<?xml version="1.0" encoding="UTF-8" standalone="no"?>
<svg
   xmlns:dc="http://purl.org/dc/elements/1.1/"
   xmlns:cc="http://creativecommons.org/ns#"
   xmlns:rdf="http://www.w3.org/1999/02/22-rdf-syntax-ns#"
   xmlns:svg="http://www.w3.org/2000/svg"
   xmlns="http://www.w3.org/2000/svg"
   xmlns:sodipodi="http://sodipodi.sourceforge.net/DTD/sodipodi-0.dtd"
   xmlns:inkscape="http://www.inkscape.org/namespaces/inkscape"
   width="30.000237mm"
   height="31.274574mm"
   viewBox="0 0 30.000237 31.274574"
   version="1.1"
   id="svg1576"
   inkscape:version="1.0.2 (e86c870879, 2021-01-15)"
   sodipodi:docname="on.svg">
  <defs
     id="defs1570" />
  <sodipodi:namedview
     id="base"
     pagecolor="#ffffff"
     bordercolor="#666666"
     borderopacity="1.0"
     inkscape:pageopacity="0.0"
     inkscape:pageshadow="2"
     inkscape:zoom="3.0967018"
     inkscape:cx="61.956567"
     inkscape:cy="76.139115"
     inkscape:document-units="mm"
     inkscape:current-layer="layer1"
     inkscape:document-rotation="0"
     showgrid="false"
     inkscape:window-width="1920"
     inkscape:window-height="1004"
     inkscape:window-x="0"
     inkscape:window-y="0"
     inkscape:window-maximized="1" />
  <metadata
     id="metadata1573">
    <rdf:RDF>
      <cc:Work
         rdf:about="">
        <dc:format>image/svg+xml</dc:format>
        <dc:type
           rdf:resource="http://purl.org/dc/dcmitype/StillImage" />
        <dc:title></dc:title>
      </cc:Work>
    </rdf:RDF>
  </metadata>
  <g
     inkscape:label="Ebene 1"
     inkscape:groupmode="layer"
     id="layer1"
     transform="translate(-135.31629,-149.33986)">
    <path
       id="path2153"
       style="fill:#00854f;fill-opacity:1;stroke:none;stroke-width:0.377953;stroke-linecap:round;paint-order:stroke fill markers;stop-color:#000000"
       d="M 56.080078,0 C 52.232593,0 49.134766,3.0978275 49.134766,6.9453125 V 49.748047 c 0,3.847485 3.097827,6.945312 6.945312,6.945312 h 1.226563 c 3.847485,0 6.945312,-3.097827 6.945312,-6.945312 V 6.9453125 C 64.251953,3.0978275 61.154126,0 57.306641,0 Z M 79.371094,9.5488281 V 26.666016 A 41.574802,41.574802 0 0 1 98.267578,61.509766 41.574802,41.574802 0 0 1 56.693359,103.08398 41.574802,41.574802 0 0 1 15.119141,61.509766 41.574802,41.574802 0 0 1 34.015625,26.664062 V 9.5507812 A 56.692912,56.692912 0 0 0 0,61.509766 56.692912,56.692912 0 0 0 56.693359,118.20312 56.692912,56.692912 0 0 0 113.38672,61.509766 56.692912,56.692912 0 0 0 79.371094,9.5488281 Z"
       transform="matrix(0.26458333,0,0,0.26458333,135.31629,149.33986)" />
  </g>
</svg>
