<?xml version="1.0" encoding="UTF-8" standalone="no"?>
<svg
   xmlns:dc="http://purl.org/dc/elements/1.1/"
   xmlns:cc="http://creativecommons.org/ns#"
   xmlns:rdf="http://www.w3.org/1999/02/22-rdf-syntax-ns#"
   xmlns:svg="http://www.w3.org/2000/svg"
   xmlns="http://www.w3.org/2000/svg"
   xmlns:sodipodi="http://sodipodi.sourceforge.net/DTD/sodipodi-0.dtd"
   xmlns:inkscape="http://www.inkscape.org/namespaces/inkscape"
   width="100mm"
   height="100mm"
   viewBox="0 0 100 100"
   version="1.1"
   id="svg8"
   inkscape:version="1.0.2 (e86c870879, 2021-01-15)"
   sodipodi:docname="logo.svg"
   inkscape:export-filename="/home/olel/Dokumente/Projekte/LautIO/Assets/logo_768.png"
   inkscape:export-xdpi="195.07001"
   inkscape:export-ydpi="195.07001">
  <defs
     id="defs2" />
  <sodipodi:namedview
     id="base"
     pagecolor="#ffffff"
     bordercolor="#666666"
     borderopacity="1.0"
     inkscape:pageopacity="0.0"
     inkscape:pageshadow="2"
     inkscape:zoom="0.98994949"
     inkscape:cx="-16.577518"
     inkscape:cy="309.98441"
     inkscape:document-units="mm"
     inkscape:current-layer="layer1"
     inkscape:document-rotation="0"
     showgrid="false"
     showguides="false"
     inkscape:window-width="1920"
     inkscape:window-height="1004"
     inkscape:window-x="0"
     inkscape:window-y="0"
     inkscape:window-maximized="1" />
  <metadata
     id="metadata5">
    <rdf:RDF>
      <cc:Work
         rdf:about="">
        <dc:format>image/svg+xml</dc:format>
        <dc:type
           rdf:resource="http://purl.org/dc/dcmitype/StillImage" />
        <dc:title></dc:title>
      </cc:Work>
    </rdf:RDF>
  </metadata>
  <g
     inkscape:label="Ebene 1"
     inkscape:groupmode="layer"
     id="layer1">
    <circle
       style="fill:#000000;stroke-width:0.1;stroke-linecap:round;paint-order:stroke fill markers;stop-color:#000000"
       id="path952"
       cx="50"
       cy="39.416664"
       r="30" />
    <g
       id="g1103"
       transform="matrix(1.3043478,0,0,1.3043478,-15.21739,-25.800724)">
      <circle
         style="fill:#ffffff;fill-opacity:0.367834;stroke:none;stroke-width:9.99998;stroke-linecap:round;paint-order:stroke fill markers;stop-color:#000000"
         id="path835-6"
         cx="50"
         cy="50"
         r="10" />
      <circle
         style="fill:#ffffff;fill-opacity:0.367834;stroke:none;stroke-width:23;stroke-linecap:round;paint-order:stroke fill markers;stop-color:#000000"
         id="path835-6-7-5-2-9"
         cx="50"
         cy="50"
         r="23" />
      <circle
         style="fill:#ffffff;fill-opacity:0.367834;stroke:none;stroke-width:12.5;stroke-linecap:round;paint-order:stroke fill markers;stop-color:#000000"
         id="path835-6-7"
         cx="50"
         cy="50"
         r="12.5" />
      <circle
         style="fill:#ffffff;fill-opacity:0.367834;stroke:none;stroke-width:15.5;stroke-linecap:round;paint-order:stroke fill markers;stop-color:#000000"
         id="path835-6-7-5"
         cx="50"
         cy="50"
         r="15.5" />
      <circle
         style="fill:#ffffff;fill-opacity:0.367834;stroke:none;stroke-width:19;stroke-linecap:round;paint-order:stroke fill markers;stop-color:#000000"
         id="path835-6-7-5-2"
         cx="50"
         cy="50"
         r="19" />
      <path
         id="rect999-1"
         style="fill:#f32b00;fill-opacity:0.367834;stroke:none;stroke-width:2.94838;stroke-linecap:round;paint-order:stroke fill markers;stop-color:#000000"
         d="m 49.966151,27.000111 a 23,23 0 0 0 -22.966039,23.000147 23,23 0 0 0 0,0.03411 23,23 0 0 0 23.000146,22.965524 V 27.000111 Z" />
      <path
         id="rect999"
         style="fill:#ff7e11;fill-opacity:0.367834;stroke:none;stroke-width:2.94838;stroke-linecap:round;paint-order:stroke fill markers;stop-color:#000000"
         d="m 50.000258,27.000111 v 45.999778 h 0.03411 a 23,23 0 0 0 22.965524,-22.999631 23,23 0 0 0 0,-0.03462 23,23 0 0 0 -22.99963,-22.965524 z" />
      <circle
         style="fill:#ffffff;fill-opacity:0.367834;stroke:none;stroke-width:4.99999;stroke-linecap:round;paint-order:stroke fill markers;stop-color:#000000"
         id="path835"
         cx="50"
         cy="50"
         r="5" />
    </g>
    <path
       id="rect31"
       style="fill:#ffffff;stroke-width:0.102296;stroke-linecap:round;paint-order:stroke fill markers;stop-color:#000000"
       d="m 22.927751,72.771773 v 16.55502 h 5.17e-4 v -16.55502 z m 21.19302,2.310968 v 7.090521 c 0,0.622517 0.07346,1.218734 0.221176,1.788511 0.158271,0.569767 0.406498,1.076134 0.74414,1.519271 0.337643,0.432607 0.775497,0.775644 1.313617,1.028874 0.538118,0.25324 1.192422,0.374357 1.962671,0.363807 h 0.0155 c 0.696389,0.0105 1.308497,-0.0947 1.836063,-0.316267 0.527566,-0.23213 0.965422,-0.554327 1.313617,-0.965824 0.358743,-0.422047 0.627811,-0.922937 0.807185,-1.503251 0.189923,-0.580327 0.284737,-1.218744 0.284737,-1.915121 V 75.082741 H 49.88166 v 6.884854 c 0,0.284877 -0.03178,0.553947 -0.09508,0.807174 -0.05276,0.25323 -0.142105,0.474627 -0.268719,0.664557 -0.116065,0.189927 -0.269478,0.342827 -0.459404,0.458887 -0.189923,0.10551 -0.416793,0.15864 -0.680577,0.15864 -0.263784,0 -0.490654,-0.0531 -0.68058,-0.15864 -0.189923,-0.11606 -0.347773,-0.26896 -0.47439,-0.458887 -0.126613,-0.18993 -0.221945,-0.411327 -0.285252,-0.664557 -0.05275,-0.253227 -0.07907,-0.522297 -0.07907,-0.807174 v -6.884854 z m -20.021515,0.01602 v 11.774964 h 5.808948 V 84.21498 h -3.149679 v -9.116219 z m 10.9368,0 -3.450436,11.774964 h 3.023071 l 1.044382,-3.102122 h 2.29495 l 1.0604,3.102122 h 3.023071 L 38.581058,75.098762 Z m 19.134749,0 v 2.658753 h 2.674773 v 9.116211 h 2.658751 v -9.116211 h 2.674773 v -2.658753 z m 9.575125,0 v 11.774964 h 2.659269 V 75.098762 Z m 8.910569,0 c -0.622531,0 -1.207813,0.121121 -1.756482,0.363802 -0.548672,0.242681 -1.044609,0.590674 -1.487765,1.044382 -0.369298,0.400949 -0.654254,0.865629 -0.854729,1.393195 -0.200474,0.517014 -0.300757,1.028327 -0.300757,1.53479 v 2.754352 c 0.01055,0.633077 0.100415,1.228774 0.269235,1.787991 0.179372,0.559217 0.47475,1.060624 0.886251,1.503771 0.443156,0.453707 0.939093,0.801704 1.487765,1.044384 0.559221,0.24268 1.144503,0.364307 1.756482,0.364307 h 0.01602 c 0.622531,0 1.207815,-0.121627 1.756485,-0.364307 0.55922,-0.24268 1.055158,-0.596147 1.487762,-1.060394 0.422056,-0.443157 0.717947,-0.954464 0.88677,-1.534781 0.179371,-0.590877 0.268716,-1.171214 0.268716,-1.740971 V 79.43493 c -0.01055,-0.538118 -0.110834,-1.060366 -0.300757,-1.566828 -0.189923,-0.506466 -0.47488,-0.960208 -0.854729,-1.361157 -0.432604,-0.453708 -0.928542,-0.801701 -1.487762,-1.044382 -0.54867,-0.242681 -1.133954,-0.363802 -1.756485,-0.363802 z" />
  </g>
</svg>
