<?xml version="1.0" encoding="UTF-8" standalone="no"?>
<svg
   xmlns:dc="http://purl.org/dc/elements/1.1/"
   xmlns:cc="http://creativecommons.org/ns#"
   xmlns:rdf="http://www.w3.org/1999/02/22-rdf-syntax-ns#"
   xmlns:svg="http://www.w3.org/2000/svg"
   xmlns="http://www.w3.org/2000/svg"
   xmlns:sodipodi="http://sodipodi.sourceforge.net/DTD/sodipodi-0.dtd"
   xmlns:inkscape="http://www.inkscape.org/namespaces/inkscape"
   width="190mm"
   height="190mm"
   viewBox="0 0 190 190"
   version="1.1"
   id="svg2724"
   inkscape:version="1.0.2 (e86c870879, 2021-01-15)"
   sodipodi:docname="logo_top.svg">
  <defs
     id="defs2718" />
  <sodipodi:namedview
     id="base"
     pagecolor="#ffffff"
     bordercolor="#666666"
     borderopacity="1.0"
     inkscape:pageopacity="0.0"
     inkscape:pageshadow="2"
     inkscape:zoom="0.98994949"
     inkscape:cx="334.35996"
     inkscape:cy="324.05495"
     inkscape:document-units="mm"
     inkscape:current-layer="layer1"
     inkscape:document-rotation="0"
     showgrid="false"
     showguides="false"
     inkscape:window-width="1920"
     inkscape:window-height="1004"
     inkscape:window-x="1920"
     inkscape:window-y="0"
     inkscape:window-maximized="1">
    <sodipodi:guide
       position="-49.514881,44.479167"
       orientation="1,0"
       id="guide2726" />
  </sodipodi:namedview>
  <metadata
     id="metadata2721">
    <rdf:RDF>
      <cc:Work
         rdf:about="">
        <dc:format>image/svg+xml</dc:format>
        <dc:type
           rdf:resource="http://purl.org/dc/dcmitype/StillImage" />
        <dc:title></dc:title>
      </cc:Work>
    </rdf:RDF>
  </metadata>
  <g
     inkscape:label="Ebene 1"
     inkscape:groupmode="layer"
     id="layer1">
    <path
       id="rect2760"
       style="fill:#000000;fill-opacity:1;stroke:none;stroke-width:0.244537;stroke-linecap:round;paint-order:stroke fill markers;stop-color:#000000"
       d="m 79.402397,80.563695 v 17.33897 c 0,1.52231 0.180884,2.980285 0.54212,4.373595 0.387024,1.39332 0.994036,2.63157 1.819699,3.71522 0.825663,1.05787 1.896384,1.89674 3.212276,2.51599 1.315899,0.61925 2.914659,0.91544 4.7982,0.88964 h 0.03917 c 1.702931,0.0258 3.199771,-0.23285 4.489871,-0.77464 1.29009,-0.56764 2.36081,-1.35429 3.21227,-2.36056 0.87726,-1.03208 1.53524,-2.25694 1.97387,-3.67605 0.46444,-1.41911 0.696287,-2.980275 0.696287,-4.683195 v -17.33897 h -6.694977 v 16.83603 c 0,0.69665 -0.0776,1.35461 -0.23253,1.97387 -0.12899,0.61923 -0.34875,1.160655 -0.658384,1.625085 -0.283815,0.46443 -0.657712,0.83833 -1.122145,1.12216 -0.464432,0.25801 -1.019219,0.38668 -1.664271,0.38668 -0.645043,0 -1.199832,-0.12868 -1.664265,-0.38668 -0.464439,-0.28383 -0.851716,-0.65773 -1.161322,-1.12216 -0.309623,-0.46443 -0.541479,-1.005855 -0.696293,-1.625085 -0.128993,-0.61926 -0.193355,-1.27722 -0.193331,-1.97387 v -16.83603 z m -49.384667,0.0392 V 109.39713 H 44.22151 V 102.8955 H 36.520633 V 80.602885 Z m 27.170409,0 -8.437594,28.794225 h 7.392533 l 2.553898,-7.58587 h 5.61201 l 2.59307,7.58587 h 7.392535 L 65.856995,80.602885 Z m 46.791591,0 v 6.50164 h 6.54081 v 22.292595 h 6.50164 V 87.104525 h 6.54081 v -6.50164 z m 23.41475,0 v 28.794235 h 6.50164 V 80.602885 Z m 21.78965,0 c -1.52231,0 -2.95482,0.29618 -4.29651,0.88963 -1.34169,0.59344 -2.55447,1.44441 -3.63814,2.5539 -0.90308,0.98048 -1.5999,2.11554 -2.09013,3.40562 -0.49023,1.26429 -0.7342,2.5159 -0.7342,3.75439 v 6.73416 c 0.0257,1.54813 0.24422,3.006115 0.65712,4.373605 0.43861,1.36751 1.16092,2.59366 2.16721,3.67732 1.08367,1.10948 2.29645,1.96044 3.63814,2.5539 1.3675,0.59345 2.80001,0.89089 4.29651,0.89089 h 0.0379 c 1.52227,0 2.9548,-0.29744 4.29651,-0.89089 1.3675,-0.59346 2.58027,-1.45778 3.63814,-2.59307 1.03208,-1.08368 1.75439,-2.3353 2.16721,-3.7544 0.43863,-1.44491 0.65838,-2.864035 0.65838,-4.257355 v -6.73416 c -0.0257,-1.3159 -0.27099,-2.59299 -0.73546,-3.83147 -0.46445,-1.23849 -1.16126,-2.34806 -2.09013,-3.32854 -1.05787,-1.10949 -2.27064,-1.96046 -3.63814,-2.5539 -1.34171,-0.59345 -2.77424,-0.88963 -4.29651,-0.88963 z" />
  </g>
</svg>
