<?xml version="1.0" encoding="UTF-8" standalone="no"?>
<svg
   xmlns:dc="http://purl.org/dc/elements/1.1/"
   xmlns:cc="http://creativecommons.org/ns#"
   xmlns:rdf="http://www.w3.org/1999/02/22-rdf-syntax-ns#"
   xmlns:svg="http://www.w3.org/2000/svg"
   xmlns="http://www.w3.org/2000/svg"
   xmlns:sodipodi="http://sodipodi.sourceforge.net/DTD/sodipodi-0.dtd"
   xmlns:inkscape="http://www.inkscape.org/namespaces/inkscape"
   width="200.10001mm"
   height="55.099998mm"
   viewBox="0 0 200.10001 55.099998"
   version="1.1"
   id="svg2006"
   inkscape:version="1.0.2 (e86c870879, 2021-01-15)"
   sodipodi:docname="panel_rear_cutouts.svg">
  <defs
     id="defs2000" />
  <sodipodi:namedview
     id="base"
     pagecolor="#ffffff"
     bordercolor="#666666"
     borderopacity="1.0"
     inkscape:pageopacity="0.0"
     inkscape:pageshadow="2"
     inkscape:zoom="0.98994949"
     inkscape:cx="504.94404"
     inkscape:cy="130.48366"
     inkscape:document-units="mm"
     inkscape:current-layer="layer1"
     inkscape:document-rotation="0"
     showgrid="false"
     inkscape:window-width="1920"
     inkscape:window-height="1004"
     inkscape:window-x="1920"
     inkscape:window-y="0"
     inkscape:window-maximized="1" />
  <metadata
     id="metadata2003">
    <rdf:RDF>
      <cc:Work
         rdf:about="">
        <dc:format>image/svg+xml</dc:format>
        <dc:type
           rdf:resource="http://purl.org/dc/dcmitype/StillImage" />
        <dc:title></dc:title>
      </cc:Work>
    </rdf:RDF>
  </metadata>
  <g
     inkscape:label="Ebene 1"
     inkscape:groupmode="layer"
     id="layer1"
     transform="translate(93.246434,76.686902)">
    <g
       id="text1055"
       style="font-weight:bold;font-size:10.5833px;line-height:1.25;font-family:'Blackout 2AM';-inkscape-font-specification:'Blackout 2AM Bold';letter-spacing:0px;word-spacing:0px;stroke-width:0.264583" />
    <circle
       style="fill:none;stroke:#000000;stroke-width:0.0992325;stroke-linecap:round;stroke-miterlimit:4;stroke-dasharray:none;paint-order:stroke fill markers;stop-color:#000000"
       id="path46"
       cx="86.753571"
       cy="-60.786854"
       r="0" />
    <circle
       style="fill:none;stroke:#000000;stroke-width:0.1;stroke-linecap:round;stroke-miterlimit:4;stroke-dasharray:none;paint-order:stroke fill markers;stop-color:#000000"
       id="path875-2"
       cx="46.953564"
       cy="-60.787434"
       r="0" />
    <circle
       style="fill:none;stroke:#000000;stroke-width:0.1;stroke-linecap:round;stroke-miterlimit:4;stroke-dasharray:none;paint-order:stroke fill markers;stop-color:#000000"
       id="path877-9"
       cx="54.753826"
       cy="-60.787807"
       r="0" />
    <circle
       style="fill:none;stroke:#000000;stroke-width:0.1;stroke-linecap:round;stroke-miterlimit:4;stroke-dasharray:none;paint-order:stroke fill markers;stop-color:#000000"
       id="path875-3"
       cx="25.953564"
       cy="-60.787434"
       r="0" />
    <circle
       style="fill:none;stroke:#000000;stroke-width:0.1;stroke-linecap:round;stroke-miterlimit:4;stroke-dasharray:none;paint-order:stroke fill markers;stop-color:#000000"
       id="path877-5"
       cx="33.753811"
       cy="-60.787807"
       r="0" />
    <circle
       style="fill:none;stroke:#000000;stroke-width:0.1;stroke-linecap:round;stroke-miterlimit:4;stroke-dasharray:none;paint-order:stroke fill markers;stop-color:#000000"
       id="path875-6"
       cx="4.9535642"
       cy="-60.787434"
       r="0" />
    <circle
       style="fill:none;stroke:#000000;stroke-width:0.1;stroke-linecap:round;stroke-miterlimit:4;stroke-dasharray:none;paint-order:stroke fill markers;stop-color:#000000"
       id="path877-7"
       cx="12.753812"
       cy="-60.787807"
       r="0" />
    <circle
       style="fill:none;stroke:#000000;stroke-width:0.1;stroke-linecap:round;stroke-miterlimit:4;stroke-dasharray:none;paint-order:stroke fill markers;stop-color:#000000"
       id="path875"
       cx="-16.046436"
       cy="-60.787434"
       r="0" />
    <circle
       style="fill:none;stroke:#000000;stroke-width:0.1;stroke-linecap:round;stroke-miterlimit:4;stroke-dasharray:none;paint-order:stroke fill markers;stop-color:#000000"
       id="path877"
       cx="-8.2461729"
       cy="-60.787807"
       r="0" />
    <circle
       style="fill:none;stroke:#000000;stroke-width:0.104917;stroke-linecap:round;stroke-miterlimit:4;stroke-dasharray:none;paint-order:stroke fill markers;stop-color:#000000"
       id="path941-1"
       cx="-27.246441"
       cy="-51.00288"
       r="0" />
    <path
       id="rect1940"
       style="fill:none;fill-opacity:1;stroke:#000000;stroke-width:0.1;stroke-linecap:round;stroke-miterlimit:4;stroke-dasharray:none;paint-order:stroke fill markers;stop-color:#000000"
       d="M -93.196434,-76.636902 H 106.80357 v 55 H -93.196434 Z" />
    <path
       d="m -75.521428,-35.48735 a 1.6000005,1.6000005 0 1 0 -3.200001,0 1.6000005,1.6000005 0 1 0 3.200001,0 z"
       style="fill:none;stroke:#000000;stroke-width:0.264583"
       id="path2222" />
    <path
       d="m -55.496428,-47.487349 a 12.125001,12.125001 0 1 0 -24.250002,0 12.125001,12.125001 0 1 0 24.250002,0 z"
       style="fill:none;stroke:#000000;stroke-width:0.264583"
       id="path2224" />
    <path
       d="m -56.521429,-59.487351 a 1.6000005,1.6000005 0 1 0 -3.200001,0 1.6000005,1.6000005 0 1 0 3.200001,0 z"
       style="fill:none;stroke:#000000;stroke-width:0.264583"
       id="path2226" />
    <path
       d="m -36.52143,-35.48735 a 1.6000002,1.6000002 0 1 0 -3.2,0 1.6000002,1.6000002 0 1 0 3.2,0 z"
       style="fill:none;stroke:#000000;stroke-width:0.264583"
       id="path2228" />
    <path
       d="m -16.49643,-47.487349 a 12.125,12.125 0 1 0 -24.249999,0 12.125,12.125 0 1 0 24.249999,0 z"
       style="fill:none;stroke:#000000;stroke-width:0.264583"
       id="path2230" />
    <path
       d="m -17.521428,-59.487351 a 1.6000005,1.6000005 0 1 0 -3.200001,0 1.6000005,1.6000005 0 1 0 3.200001,0 z"
       style="fill:none;stroke:#000000;stroke-width:0.264583"
       id="path2232" />
    <path
       d="m 2.4785716,-35.48735 a 1.6000005,1.6000005 0 1 0 -3.20000063,0 1.6000005,1.6000005 0 1 0 3.20000063,0 z"
       style="fill:none;stroke:#000000;stroke-width:0.264583"
       id="path2234" />
    <path
       d="m 22.503571,-47.487349 a 12.125001,12.125001 0 1 0 -24.2500011,0 12.125001,12.125001 0 1 0 24.2500011,0 z"
       style="fill:none;stroke:#000000;stroke-width:0.264583"
       id="path2236" />
    <path
       d="m 21.47857,-59.487351 a 1.6000005,1.6000005 0 1 0 -3.200001,0 1.6000005,1.6000005 0 1 0 3.200001,0 z"
       style="fill:none;stroke:#000000;stroke-width:0.264583"
       id="path2238" />
    <path
       d="m 41.478569,-35.48735 a 1.6000002,1.6000002 0 1 0 -3.2,0 1.6000002,1.6000002 0 1 0 3.2,0 z"
       style="fill:none;stroke:#000000;stroke-width:0.264583"
       id="path2240" />
    <path
       d="m 61.503569,-47.487349 a 12.125,12.125 0 1 0 -24.249999,0 12.125,12.125 0 1 0 24.249999,0 z"
       style="fill:none;stroke:#000000;stroke-width:0.264583"
       id="path2242" />
    <path
       d="m 60.478571,-59.487351 a 1.6000005,1.6000005 0 1 0 -3.200001,0 1.6000005,1.6000005 0 1 0 3.200001,0 z"
       style="fill:none;stroke:#000000;stroke-width:0.264583"
       id="path2244" />
    <g
       aria-label="A"
       id="text945-6"
       style="font-style:normal;font-variant:normal;font-weight:normal;font-stretch:normal;font-size:3.96643px;line-height:1.25;font-family:'Blackout 2AM';-inkscape-font-specification:'Blackout 2AM';letter-spacing:0px;word-spacing:0px;fill:#ff0000;stroke-width:0.0991611">
      <path
         d="m 49.378567,-27.915023 -0.530665,1.438993 h 1.063267 z m -0.220787,-0.38541 h 0.443512 l 1.102001,2.891543 h -0.406714 l -0.263396,-0.741769 h -1.303421 l -0.263396,0.741769 h -0.412524 z"
         style="font-style:normal;font-variant:normal;font-weight:normal;font-stretch:normal;font-family:Terminus;-inkscape-font-specification:Terminus;fill:#ff0000;stroke-width:0.0991611"
         id="path3395" />
    </g>
    <g
       aria-label="B"
       id="text945-3"
       style="font-style:normal;font-variant:normal;font-weight:normal;font-stretch:normal;font-size:3.96643px;line-height:1.25;font-family:Terminus;-inkscape-font-specification:Terminus;letter-spacing:0px;word-spacing:0px;fill:#ff0000;stroke-width:0.0991611">
      <path
         d="m 9.7442906,-26.733613 v 1.059393 h 0.6275014 q 0.315688,0 0.466753,-0.129761 0.153002,-0.131698 0.153002,-0.400904 0,-0.271143 -0.153002,-0.398967 -0.151065,-0.129761 -0.466753,-0.129761 z m 0,-1.189154 v 0.87153 h 0.5790834 q 0.286636,0 0.426081,-0.106521 0.141382,-0.108457 0.141382,-0.329244 0,-0.218851 -0.141382,-0.327308 -0.139445,-0.108457 -0.426081,-0.108457 z m -0.3912201,-0.321498 h 0.9993545 q 0.447385,0 0.689477,0.185926 0.242092,0.185927 0.242092,0.528729 0,0.265332 -0.123951,0.422207 -0.123951,0.156876 -0.364106,0.19561 0.288573,0.06198 0.447385,0.259523 0.160749,0.19561 0.160749,0.489993 0,0.387347 -0.263396,0.598451 -0.263395,0.211104 -0.749515,0.211104 H 9.3530705 Z"
         style="font-style:normal;font-variant:normal;font-weight:normal;font-stretch:normal;font-family:Terminus;-inkscape-font-specification:Terminus;fill:#ff0000;stroke-width:0.0991611"
         id="path3392" />
    </g>
    <g
       aria-label="C"
       id="text945-5"
       style="font-style:normal;font-variant:normal;font-weight:normal;font-stretch:normal;font-size:3.96643px;line-height:1.25;font-family:Terminus;-inkscape-font-specification:Terminus;letter-spacing:0px;word-spacing:0px;fill:#ff0000;stroke-width:0.0991611">
      <path
         d="m -27.455514,-28.021541 v 0.412524 q -0.197547,-0.183989 -0.422208,-0.275016 -0.222724,-0.09103 -0.474499,-0.09103 -0.495804,0 -0.7592,0.304067 -0.263396,0.30213 -0.263396,0.875403 0,0.571337 0.263396,0.875404 0.263396,0.30213 0.7592,0.30213 0.251775,0 0.474499,-0.09103 0.224661,-0.09103 0.422208,-0.275016 v 0.40865 q -0.205293,0.139445 -0.435765,0.209168 -0.228534,0.06972 -0.484183,0.06972 -0.656553,0 -1.034216,-0.400904 -0.377663,-0.40284 -0.377663,-1.098128 0,-0.697224 0.377663,-1.098127 0.377663,-0.402841 1.034216,-0.402841 0.259522,0 0.488057,0.06972 0.230471,0.06779 0.431891,0.205293 z"
         style="font-style:normal;font-variant:normal;font-weight:normal;font-stretch:normal;font-family:Terminus;-inkscape-font-specification:Terminus;fill:#ff0000;stroke-width:0.0991611"
         id="path3389" />
    </g>
    <g
       aria-label="D"
       id="text945-4"
       style="font-style:normal;font-variant:normal;font-weight:normal;font-stretch:normal;font-size:3.96643px;line-height:1.25;font-family:Terminus;-inkscape-font-specification:Terminus;letter-spacing:0px;word-spacing:0px;fill:#ff0000;stroke-width:0.0991611">
      <path
         d="m -68.44551,-27.978935 v 2.248547 h 0.472563 q 0.598451,0 0.875404,-0.271142 0.278889,-0.271143 0.278889,-0.856036 0,-0.58102 -0.278889,-0.850226 -0.276953,-0.271143 -0.875404,-0.271143 z m -0.39122,-0.321498 h 0.803745 q 0.840542,0 1.233699,0.350549 0.393157,0.348612 0.393157,1.092318 0,0.747579 -0.395094,1.098127 -0.395094,0.350549 -1.231762,0.350549 h -0.803745 z"
         style="font-style:normal;font-variant:normal;font-weight:normal;font-stretch:normal;font-family:Terminus;-inkscape-font-specification:Terminus;fill:#ff0000;stroke-width:0.0991611"
         id="path3386" />
    </g>
    <g
       id="g2692"
       transform="translate(-2.0601594,9.3513865)">
      <g
         id="g2686"
         transform="translate(-0.23950958)">
        <path
           id="path2660"
           style="fill:none;stroke:#000000;stroke-width:0.1;stroke-linecap:round;paint-order:stroke fill markers;stop-color:#000000"
           d="m 78.910828,-69.052551 a 1.5,1.5 0 0 1 -1.5,1.5 1.5,1.5 0 0 1 -1.5,-1.5 1.5,1.5 0 0 1 1.5,-1.5 1.5,1.5 0 0 1 1.5,1.5 z" />
        <path
           id="path2660-5"
           style="fill:none;stroke:#000000;stroke-width:0.1;stroke-linecap:round;paint-order:stroke fill markers;stop-color:#000000"
           d="m 99.410568,-69.052551 a 1.5,1.5 0 0 1 -1.5,1.5 1.5,1.5 0 0 1 -1.5,-1.5 1.5,1.5 0 0 1 1.5,-1.5 1.5,1.5 0 0 1 1.5,1.5 z" />
      </g>
      <path
         id="rect2682"
         style="fill:none;stroke:#000000;stroke-width:0.1;stroke-linecap:round;paint-order:stroke fill markers;stop-color:#000000"
         d="m 79.671188,-72.338737 h 15.5 v 7 h -15.5 z" />
    </g>
    <g
       aria-label="Power"
       id="text945-6-9"
       style="font-style:normal;font-variant:normal;font-weight:normal;font-stretch:normal;font-size:3.96643px;line-height:1.25;font-family:'Blackout 2AM';-inkscape-font-specification:'Blackout 2AM';letter-spacing:0px;word-spacing:0px;fill:#ff0000;stroke-width:0.0991611">
      <path
         d="m 79.950761,-27.978935 v 1.086507 h 0.49193 q 0.27308,0 0.422208,-0.141381 0.149129,-0.141382 0.149129,-0.402841 0,-0.259522 -0.149129,-0.400903 -0.149128,-0.141382 -0.422208,-0.141382 z m -0.39122,-0.321498 h 0.88315 q 0.48612,0 0.734022,0.220788 0.249839,0.218851 0.249839,0.642995 0,0.428018 -0.249839,0.646869 -0.247902,0.218851 -0.734022,0.218851 h -0.49193 v 1.16204 h -0.39122 z"
         style="font-style:normal;font-variant:normal;font-weight:normal;font-stretch:normal;font-family:Terminus;-inkscape-font-specification:Terminus;fill:#ff0000;stroke-width:0.0991611"
         id="path3372" />
      <path
         d="m 82.635074,-27.328193 q -0.286637,0 -0.453196,0.224662 -0.166559,0.222724 -0.166559,0.612007 0,0.389284 0.164622,0.613945 0.166559,0.222724 0.455133,0.222724 0.284699,0 0.451258,-0.224661 0.16656,-0.224661 0.16656,-0.612008 0,-0.38541 -0.16656,-0.610071 -0.166559,-0.226598 -0.451258,-0.226598 z m 0,-0.30213 q 0.464816,0 0.730148,0.30213 0.265333,0.302131 0.265333,0.836669 0,0.532602 -0.265333,0.836669 -0.265332,0.30213 -0.730148,0.30213 -0.466753,0 -0.732086,-0.30213 -0.263395,-0.304067 -0.263395,-0.836669 0,-0.534538 0.263395,-0.836669 0.265333,-0.30213 0.732086,-0.30213 z"
         style="font-style:normal;font-variant:normal;font-weight:normal;font-stretch:normal;font-family:Terminus;-inkscape-font-specification:Terminus;fill:#ff0000;stroke-width:0.0991611"
         id="path3374" />
      <path
         d="m 84.014027,-27.578031 h 0.356359 l 0.445449,1.692705 0.443512,-1.692705 h 0.420271 l 0.445449,1.692705 0.443512,-1.692705 h 0.356359 l -0.567463,2.169141 h -0.420271 l -0.466753,-1.777921 -0.46869,1.777921 H 84.58149 Z"
         style="font-style:normal;font-variant:normal;font-weight:normal;font-stretch:normal;font-family:Terminus;-inkscape-font-specification:Terminus;fill:#ff0000;stroke-width:0.0991611"
         id="path3376" />
      <path
         d="m 89.320677,-26.58255 v 0.174306 h -1.638476 q 0.02324,0.367979 0.220787,0.561652 0.199484,0.191737 0.553906,0.191737 0.205294,0 0.39703,-0.05035 0.193674,-0.05035 0.383474,-0.151065 v 0.336991 q -0.191737,0.08134 -0.393157,0.123951 -0.201421,0.04261 -0.408651,0.04261 -0.519045,0 -0.823112,-0.30213 -0.30213,-0.30213 -0.30213,-0.817301 0,-0.532602 0.286636,-0.844416 0.288574,-0.313751 0.77663,-0.313751 0.437702,0 0.691414,0.282763 0.255649,0.280826 0.255649,0.76501 z m -0.356359,-0.104584 q -0.0039,-0.292447 -0.164622,-0.466753 -0.158812,-0.174306 -0.422208,-0.174306 -0.298257,0 -0.478373,0.168496 -0.17818,0.168496 -0.205294,0.4745 z"
         style="font-style:normal;font-variant:normal;font-weight:normal;font-stretch:normal;font-family:Terminus;-inkscape-font-specification:Terminus;fill:#ff0000;stroke-width:0.0991611"
         id="path3378" />
      <path
         d="m 91.162511,-27.244913 q -0.06004,-0.03486 -0.131698,-0.05035 -0.06972,-0.01743 -0.154939,-0.01743 -0.30213,0 -0.464816,0.197547 -0.160749,0.19561 -0.160749,0.56359 v 1.142672 h -0.358295 v -2.169141 h 0.358295 v 0.336991 q 0.112331,-0.197546 0.292447,-0.292446 0.180116,-0.09684 0.437702,-0.09684 0.0368,0 0.08134,0.0058 0.04454,0.0039 0.09877,0.01356 z"
         style="font-style:normal;font-variant:normal;font-weight:normal;font-stretch:normal;font-family:Terminus;-inkscape-font-specification:Terminus;fill:#ff0000;stroke-width:0.0991611"
         id="path3380" />
    </g>
  </g>
</svg>
