  0
SECTION
  2
HEADER
  9
$ACADVER
  1
AC1014
  9
$HANDSEED
  5
FFFF
  9
$MEASUREMENT
 70
     1
  0
ENDSEC
  0
SECTION
  2
TABLES
  0
TABLE
  2
VPORT
  5
8
330
0
100
AcDbSymbolTable
 70
     4
  0
VPORT
  5
2E
330
8
100
AcDbSymbolTableRecord
100
AcDbViewportTableRecord
  2
*ACTIVE
 70
     0
 10
0.0
 20
0.0
 11
1.0
 21
1.0
 12
210.0
 22
148.5
 13
0.0
 23
0.0
 14
10.0
 24
10.0
 15
10.0
 25
10.0
 16
0.0
 26
0.0
 36
1.0
 17
0.0
 27
0.0
 37
0.0
 40
341.0
 41
1.24
 42
50.0
 43
0.0
 44
0.0
 50
0.0
 51
0.0
 71
     0
 72
   100
 73
     1
 74
     3
 75
     0
 76
     0
 77
     0
 78
     0
  0
ENDTAB
  0
TABLE
  2
LTYPE
  5
5
330
0
100
AcDbSymbolTable
 70
     1
  0
LTYPE
  5
14
330
5
100
AcDbSymbolTableRecord
100
AcDbLinetypeTableRecord
  2
BYBLOCK
 70
     0
  3

 72
    65
 73
     0
 40
0.0
  0
LTYPE
  5
15
330
5
100
AcDbSymbolTableRecord
100
AcDbLinetypeTableRecord
  2
BYLAYER
 70
     0
  3

 72
    65
 73
     0
 40
0.0
  0
LTYPE
  5
16
330
5
100
AcDbSymbolTableRecord
100
AcDbLinetypeTableRecord
  2
CONTINUOUS
 70
     0
  3
Solid line
 72
    65
 73
     0
 40
0.0
  0
ENDTAB
  0
TABLE
  2
LAYER
  5
2
100
AcDbSymbolTable
 70
4
  0
LAYER
  5
50
100
AcDbSymbolTableRecord
100
AcDbLayerTableRecord
  2
0
 70
0
  6
CONTINUOUS
  0
LAYER
  5
51
100
AcDbSymbolTableRecord
100
AcDbLayerTableRecord
  2
CUTOUT
 70
0
  6
CONTINUOUS
  0
LAYER
  5
52
100
AcDbSymbolTableRecord
100
AcDbLayerTableRecord
  2
REFERENCE
 70
0
  6
CONTINUOUS
  0
LAYER
  5
53
100
AcDbSymbolTableRecord
100
AcDbLayerTableRecord
  2
TEXT
 70
0
  6
CONTINUOUS
  0
ENDTAB
  0
TABLE
  2
STYLE
  5
3
330
0
100
AcDbSymbolTable
 70
     1
  0
STYLE
  5
11
330
3
100
AcDbSymbolTableRecord
100
AcDbTextStyleTableRecord
  2
STANDARD
 70
     0
 40
0.0
 41
1.0
 50
0.0
 71
     0
 42
2.5
  3
txt
  4

  0
ENDTAB
  0
TABLE
  2
VIEW
  5
6
330
0
100
AcDbSymbolTable
 70
     0
  0
ENDTAB
  0
TABLE
  2
UCS
  5
7
330
0
100
AcDbSymbolTable
 70
     0
  0
ENDTAB
  0
TABLE
  2
APPID
  5
9
330
0
100
AcDbSymbolTable
 70
     2
  0
APPID
  5
12
330
9
100
AcDbSymbolTableRecord
100
AcDbRegAppTableRecord
  2
ACAD
 70
     0
  0
ENDTAB
  0
TABLE
  2
DIMSTYLE
  5
A
330
0
100
AcDbSymbolTable
 70
     1
  0
DIMSTYLE
105
27
330
A
100
AcDbSymbolTableRecord
100
AcDbDimStyleTableRecord
  2
ISO-25
 70
     0
  3

  4

  5

  6

  7

 40
1.0
 41
2.5
 42
0.625
 43
3.75
 44
1.25
 45
0.0
 46
0.0
 47
0.0
 48
0.0
140
2.5
141
2.5
142
0.0
143
0.03937007874016
144
1.0
145
0.0
146
1.0
147
0.625
 71
     0
 72
     0
 73
     0
 74
     0
 75
     0
 76
     0
 77
     1
 78
     8
170
     0
171
     3
172
     1
173
     0
174
     0
175
     0
176
     0
177
     0
178
     0
270
     2
271
     2
272
     2
273
     2
274
     3
340
11
275
     0
280
     0
281
     0
282
     0
283
     0
284
     8
285
     0
286
     0
287
     3
288
     0
  0
ENDTAB
  0
TABLE
  2
BLOCK_RECORD
  5
1
330
0
100
AcDbSymbolTable
 70
     1
  0
BLOCK_RECORD
  5
1F
330
1
100
AcDbSymbolTableRecord
100
AcDbBlockTableRecord
  2
*MODEL_SPACE
  0
BLOCK_RECORD
  5
1B
330
1
100
AcDbSymbolTableRecord
100
AcDbBlockTableRecord
  2
*PAPER_SPACE
  0
ENDTAB
  0
ENDSEC
  0
SECTION
  2
BLOCKS
  0
BLOCK
  5
20
330
1F
100
AcDbEntity
  8
0
100
AcDbBlockBegin
  2
*MODEL_SPACE
 70
     0
 10
0.0
 20
0.0
 30
0.0
  3
*MODEL_SPACE
  1

  0
ENDBLK
  5
21
330
1F
100
AcDbEntity
  8
0
100
AcDbBlockEnd
  0
BLOCK
  5
1C
330
1B
100
AcDbEntity
 67
     1
  8
0
100
AcDbBlockBegin
  2
*PAPER_SPACE
  1

  0
ENDBLK
  5
1D
330
1B
100
AcDbEntity
 67
     1
  8
0
100
AcDbBlockEnd
  0
ENDSEC
  0
SECTION
  2
ENTITIES
  0
SPLINE
  5
100
100
AcDbEntity
  8
CUTOUT
 62
7
100
AcDbSpline
 70
8
 71
3
 72
8
 73
4
 74
0
 40
0
 40
0
 40
0
 40
0
 40
1
 40
1
 40
1
 40
1
 10
183.050350
 20
44.600301
 30
0.0
 10
183.050350
 20
42.915625
 30
0.0
 10
181.684649
 20
41.549925
 30
0.0
 10
179.999970
 20
41.549923
 30
0.0
  0
SPLINE
  5
101
100
AcDbEntity
  8
CUTOUT
 62
7
100
AcDbSpline
 70
8
 71
3
 72
8
 73
4
 74
0
 40
0
 40
0
 40
0
 40
0
 40
1
 40
1
 40
1
 40
1
 10
179.999970
 20
41.549923
 30
0.0
 10
179.190957
 20
41.549921
 30
0.0
 10
178.415078
 20
41.871299
 30
0.0
 10
177.843019
 20
42.443356
 30
0.0
  0
SPLINE
  5
102
100
AcDbEntity
  8
CUTOUT
 62
7
100
AcDbSpline
 70
8
 71
3
 72
8
 73
4
 74
0
 40
0
 40
0
 40
0
 40
0
 40
1
 40
1
 40
1
 40
1
 10
177.843019
 20
42.443356
 30
0.0
 10
177.270960
 20
43.015413
 30
0.0
 10
176.949580
 20
43.791289
 30
0.0
 10
176.949580
 20
44.600301
 30
0.0
  0
SPLINE
  5
103
100
AcDbEntity
  8
CUTOUT
 62
7
100
AcDbSpline
 70
8
 71
3
 72
8
 73
4
 74
0
 40
0
 40
0
 40
0
 40
0
 40
1
 40
1
 40
1
 40
1
 10
176.949580
 20
44.600301
 30
0.0
 10
176.949580
 20
45.409313
 30
0.0
 10
177.270960
 20
46.185189
 30
0.0
 10
177.843019
 20
46.757246
 30
0.0
  0
SPLINE
  5
104
100
AcDbEntity
  8
CUTOUT
 62
7
100
AcDbSpline
 70
8
 71
3
 72
8
 73
4
 74
0
 40
0
 40
0
 40
0
 40
0
 40
1
 40
1
 40
1
 40
1
 10
177.843019
 20
46.757246
 30
0.0
 10
178.415078
 20
47.329303
 30
0.0
 10
179.190957
 20
47.650681
 30
0.0
 10
179.999970
 20
47.650679
 30
0.0
  0
SPLINE
  5
105
100
AcDbEntity
  8
CUTOUT
 62
7
100
AcDbSpline
 70
8
 71
3
 72
8
 73
4
 74
0
 40
0
 40
0
 40
0
 40
0
 40
1
 40
1
 40
1
 40
1
 10
179.999970
 20
47.650679
 30
0.0
 10
181.684649
 20
47.650677
 30
0.0
 10
183.050350
 20
46.284977
 30
0.0
 10
183.050350
 20
44.600301
 30
0.0
  0
LWPOLYLINE
  5
106
100
AcDbEntity
  8
CUTOUT
 62
7
100
AcDbPolyline
 90
1
 70
1
 10
183.050350
 20
44.600301
 30
0.0
  0
SPLINE
  5
107
100
AcDbEntity
  8
CUTOUT
 62
7
100
AcDbSpline
 70
8
 71
3
 72
8
 73
4
 74
0
 40
0
 40
0
 40
0
 40
0
 40
1
 40
1
 40
1
 40
1
 10
167.349970
 20
34.750351
 30
0.0
 10
167.903970
 20
34.750351
 30
0.0
 10
168.349970
 20
34.304351
 30
0.0
 10
168.349970
 20
33.750351
 30
0.0
  0
LWPOLYLINE
  5
108
100
AcDbEntity
  8
CUTOUT
 62
7
100
AcDbPolyline
 90
2
 70
0
 10
160.349970
 20
34.750351
 30
0.0
 10
167.349970
 20
34.750351
 30
0.0
  0
SPLINE
  5
109
100
AcDbEntity
  8
CUTOUT
 62
7
100
AcDbSpline
 70
8
 71
3
 72
8
 73
4
 74
0
 40
0
 40
0
 40
0
 40
0
 40
1
 40
1
 40
1
 40
1
 10
168.349970
 20
32.650357
 30
0.0
 10
168.349970
 20
32.096357
 30
0.0
 10
167.903970
 20
31.650357
 30
0.0
 10
167.349970
 20
31.650357
 30
0.0
  0
LWPOLYLINE
  5
10a
100
AcDbEntity
  8
CUTOUT
 62
7
100
AcDbPolyline
 90
2
 70
0
 10
168.349970
 20
33.750351
 30
0.0
 10
168.349970
 20
32.650357
 30
0.0
  0
SPLINE
  5
10b
100
AcDbEntity
  8
CUTOUT
 62
7
100
AcDbSpline
 70
8
 71
3
 72
8
 73
4
 74
0
 40
0
 40
0
 40
0
 40
0
 40
1
 40
1
 40
1
 40
1
 10
160.349970
 20
31.650357
 30
0.0
 10
159.795970
 20
31.650357
 30
0.0
 10
159.349970
 20
32.096357
 30
0.0
 10
159.349970
 20
32.650357
 30
0.0
  0
LWPOLYLINE
  5
10c
100
AcDbEntity
  8
CUTOUT
 62
7
100
AcDbPolyline
 90
2
 70
0
 10
167.349970
 20
31.650357
 30
0.0
 10
160.349970
 20
31.650357
 30
0.0
  0
SPLINE
  5
10d
100
AcDbEntity
  8
CUTOUT
 62
7
100
AcDbSpline
 70
8
 71
3
 72
8
 73
4
 74
0
 40
0
 40
0
 40
0
 40
0
 40
1
 40
1
 40
1
 40
1
 10
159.349970
 20
33.750351
 30
0.0
 10
159.349970
 20
34.304351
 30
0.0
 10
159.795970
 20
34.750351
 30
0.0
 10
160.349970
 20
34.750351
 30
0.0
  0
LWPOLYLINE
  5
10e
100
AcDbEntity
  8
CUTOUT
 62
7
100
AcDbPolyline
 90
2
 70
0
 10
159.349970
 20
32.650357
 30
0.0
 10
159.349970
 20
33.750351
 30
0.0
  0
SPLINE
  5
10f
100
AcDbEntity
  8
CUTOUT
 62
7
100
AcDbSpline
 70
8
 71
3
 72
8
 73
4
 74
0
 40
0
 40
0
 40
0
 40
0
 40
1
 40
1
 40
1
 40
1
 10
141.699960
 20
44.600881
 30
0.0
 10
141.699960
 20
43.772456
 30
0.0
 10
141.028387
 20
43.100884
 30
0.0
 10
140.199960
 20
43.100884
 30
0.0
  0
SPLINE
  5
110
100
AcDbEntity
  8
CUTOUT
 62
7
100
AcDbSpline
 70
8
 71
3
 72
8
 73
4
 74
0
 40
0
 40
0
 40
0
 40
0
 40
1
 40
1
 40
1
 40
1
 10
140.199960
 20
43.100884
 30
0.0
 10
139.371533
 20
43.100884
 30
0.0
 10
138.699960
 20
43.772456
 30
0.0
 10
138.699960
 20
44.600881
 30
0.0
  0
SPLINE
  5
111
100
AcDbEntity
  8
CUTOUT
 62
7
100
AcDbSpline
 70
8
 71
3
 72
8
 73
4
 74
0
 40
0
 40
0
 40
0
 40
0
 40
1
 40
1
 40
1
 40
1
 10
138.699960
 20
44.600881
 30
0.0
 10
138.699960
 20
45.429306
 30
0.0
 10
139.371533
 20
46.100878
 30
0.0
 10
140.199960
 20
46.100878
 30
0.0
  0
SPLINE
  5
112
100
AcDbEntity
  8
CUTOUT
 62
7
100
AcDbSpline
 70
8
 71
3
 72
8
 73
4
 74
0
 40
0
 40
0
 40
0
 40
0
 40
1
 40
1
 40
1
 40
1
 10
140.199960
 20
46.100878
 30
0.0
 10
141.028387
 20
46.100878
 30
0.0
 10
141.699960
 20
45.429306
 30
0.0
 10
141.699960
 20
44.600881
 30
0.0
  0
LWPOLYLINE
  5
113
100
AcDbEntity
  8
CUTOUT
 62
7
100
AcDbPolyline
 90
1
 70
1
 10
160.349970
 20
34.750351
 30
0.0
  0
SPLINE
  5
114
100
AcDbEntity
  8
CUTOUT
 62
7
100
AcDbSpline
 70
8
 71
3
 72
8
 73
4
 74
0
 40
0
 40
0
 40
0
 40
0
 40
1
 40
1
 40
1
 40
1
 10
151.750230
 20
44.601255
 30
0.0
 10
151.750230
 20
42.530191
 30
0.0
 10
150.071298
 20
40.851262
 30
0.0
 10
148.000230
 20
40.851262
 30
0.0
  0
SPLINE
  5
115
100
AcDbEntity
  8
CUTOUT
 62
7
100
AcDbSpline
 70
8
 71
3
 72
8
 73
4
 74
0
 40
0
 40
0
 40
0
 40
0
 40
1
 40
1
 40
1
 40
1
 10
148.000230
 20
40.851262
 30
0.0
 10
145.929162
 20
40.851262
 30
0.0
 10
144.250230
 20
42.530191
 30
0.0
 10
144.250230
 20
44.601255
 30
0.0
  0
SPLINE
  5
116
100
AcDbEntity
  8
CUTOUT
 62
7
100
AcDbSpline
 70
8
 71
3
 72
8
 73
4
 74
0
 40
0
 40
0
 40
0
 40
0
 40
1
 40
1
 40
1
 40
1
 10
144.250230
 20
44.601255
 30
0.0
 10
144.250230
 20
45.595815
 30
0.0
 10
144.645318
 20
46.549640
 30
0.0
 10
145.348579
 20
47.252900
 30
0.0
  0
SPLINE
  5
117
100
AcDbEntity
  8
CUTOUT
 62
7
100
AcDbSpline
 70
8
 71
3
 72
8
 73
4
 74
0
 40
0
 40
0
 40
0
 40
0
 40
1
 40
1
 40
1
 40
1
 10
145.348579
 20
47.252900
 30
0.0
 10
146.051841
 20
47.956161
 30
0.0
 10
147.005668
 20
48.351248
 30
0.0
 10
148.000230
 20
48.351248
 30
0.0
  0
SPLINE
  5
118
100
AcDbEntity
  8
CUTOUT
 62
7
100
AcDbSpline
 70
8
 71
3
 72
8
 73
4
 74
0
 40
0
 40
0
 40
0
 40
0
 40
1
 40
1
 40
1
 40
1
 10
148.000230
 20
48.351248
 30
0.0
 10
150.071298
 20
48.351248
 30
0.0
 10
151.750230
 20
46.672319
 30
0.0
 10
151.750230
 20
44.601255
 30
0.0
  0
LWPOLYLINE
  5
119
100
AcDbEntity
  8
CUTOUT
 62
7
100
AcDbPolyline
 90
1
 70
1
 10
141.699960
 20
44.600881
 30
0.0
  0
SPLINE
  5
11a
100
AcDbEntity
  8
CUTOUT
 62
7
100
AcDbSpline
 70
8
 71
3
 72
8
 73
4
 74
0
 40
0
 40
0
 40
0
 40
0
 40
1
 40
1
 40
1
 40
1
 10
120.699960
 20
44.600881
 30
0.0
 10
120.699960
 20
43.772456
 30
0.0
 10
120.028387
 20
43.100884
 30
0.0
 10
119.199960
 20
43.100884
 30
0.0
  0
SPLINE
  5
11b
100
AcDbEntity
  8
CUTOUT
 62
7
100
AcDbSpline
 70
8
 71
3
 72
8
 73
4
 74
0
 40
0
 40
0
 40
0
 40
0
 40
1
 40
1
 40
1
 40
1
 10
119.199960
 20
43.100884
 30
0.0
 10
118.371533
 20
43.100884
 30
0.0
 10
117.699960
 20
43.772456
 30
0.0
 10
117.699960
 20
44.600881
 30
0.0
  0
SPLINE
  5
11c
100
AcDbEntity
  8
CUTOUT
 62
7
100
AcDbSpline
 70
8
 71
3
 72
8
 73
4
 74
0
 40
0
 40
0
 40
0
 40
0
 40
1
 40
1
 40
1
 40
1
 10
117.699960
 20
44.600881
 30
0.0
 10
117.699960
 20
45.429306
 30
0.0
 10
118.371533
 20
46.100878
 30
0.0
 10
119.199960
 20
46.100878
 30
0.0
  0
SPLINE
  5
11d
100
AcDbEntity
  8
CUTOUT
 62
7
100
AcDbSpline
 70
8
 71
3
 72
8
 73
4
 74
0
 40
0
 40
0
 40
0
 40
0
 40
1
 40
1
 40
1
 40
1
 10
119.199960
 20
46.100878
 30
0.0
 10
120.028387
 20
46.100878
 30
0.0
 10
120.699960
 20
45.429306
 30
0.0
 10
120.699960
 20
44.600881
 30
0.0
  0
LWPOLYLINE
  5
11e
100
AcDbEntity
  8
CUTOUT
 62
7
100
AcDbPolyline
 90
1
 70
1
 10
151.750230
 20
44.601255
 30
0.0
  0
SPLINE
  5
11f
100
AcDbEntity
  8
CUTOUT
 62
7
100
AcDbSpline
 70
8
 71
3
 72
8
 73
4
 74
0
 40
0
 40
0
 40
0
 40
0
 40
1
 40
1
 40
1
 40
1
 10
130.750210
 20
44.601255
 30
0.0
 10
130.750210
 20
43.606695
 30
0.0
 10
130.355122
 20
42.652870
 30
0.0
 10
129.651861
 20
41.949610
 30
0.0
  0
SPLINE
  5
120
100
AcDbEntity
  8
CUTOUT
 62
7
100
AcDbSpline
 70
8
 71
3
 72
8
 73
4
 74
0
 40
0
 40
0
 40
0
 40
0
 40
1
 40
1
 40
1
 40
1
 10
129.651861
 20
41.949610
 30
0.0
 10
128.948599
 20
41.246349
 30
0.0
 10
127.994772
 20
40.851262
 30
0.0
 10
127.000210
 20
40.851262
 30
0.0
  0
SPLINE
  5
121
100
AcDbEntity
  8
CUTOUT
 62
7
100
AcDbSpline
 70
8
 71
3
 72
8
 73
4
 74
0
 40
0
 40
0
 40
0
 40
0
 40
1
 40
1
 40
1
 40
1
 10
127.000210
 20
40.851262
 30
0.0
 10
126.005648
 20
40.851262
 30
0.0
 10
125.051821
 20
41.246349
 30
0.0
 10
124.348559
 20
41.949610
 30
0.0
  0
SPLINE
  5
122
100
AcDbEntity
  8
CUTOUT
 62
7
100
AcDbSpline
 70
8
 71
3
 72
8
 73
4
 74
0
 40
0
 40
0
 40
0
 40
0
 40
1
 40
1
 40
1
 40
1
 10
124.348559
 20
41.949610
 30
0.0
 10
123.645298
 20
42.652870
 30
0.0
 10
123.250210
 20
43.606695
 30
0.0
 10
123.250210
 20
44.601255
 30
0.0
  0
SPLINE
  5
123
100
AcDbEntity
  8
CUTOUT
 62
7
100
AcDbSpline
 70
8
 71
3
 72
8
 73
4
 74
0
 40
0
 40
0
 40
0
 40
0
 40
1
 40
1
 40
1
 40
1
 10
123.250210
 20
44.601255
 30
0.0
 10
123.250210
 20
46.672319
 30
0.0
 10
124.929142
 20
48.351248
 30
0.0
 10
127.000210
 20
48.351248
 30
0.0
  0
SPLINE
  5
124
100
AcDbEntity
  8
CUTOUT
 62
7
100
AcDbSpline
 70
8
 71
3
 72
8
 73
4
 74
0
 40
0
 40
0
 40
0
 40
0
 40
1
 40
1
 40
1
 40
1
 10
127.000210
 20
48.351248
 30
0.0
 10
127.994772
 20
48.351248
 30
0.0
 10
128.948599
 20
47.956161
 30
0.0
 10
129.651861
 20
47.252900
 30
0.0
  0
SPLINE
  5
125
100
AcDbEntity
  8
CUTOUT
 62
7
100
AcDbSpline
 70
8
 71
3
 72
8
 73
4
 74
0
 40
0
 40
0
 40
0
 40
0
 40
1
 40
1
 40
1
 40
1
 10
129.651861
 20
47.252900
 30
0.0
 10
130.355122
 20
46.549640
 30
0.0
 10
130.750210
 20
45.595815
 30
0.0
 10
130.750210
 20
44.601255
 30
0.0
  0
LWPOLYLINE
  5
126
100
AcDbEntity
  8
CUTOUT
 62
7
100
AcDbPolyline
 90
1
 70
1
 10
120.699960
 20
44.600881
 30
0.0
  0
SPLINE
  5
127
100
AcDbEntity
  8
CUTOUT
 62
7
100
AcDbSpline
 70
8
 71
3
 72
8
 73
4
 74
0
 40
0
 40
0
 40
0
 40
0
 40
1
 40
1
 40
1
 40
1
 10
99.699960
 20
44.600881
 30
0.0
 10
99.699960
 20
43.772456
 30
0.0
 10
99.028387
 20
43.100884
 30
0.0
 10
98.199960
 20
43.100884
 30
0.0
  0
SPLINE
  5
128
100
AcDbEntity
  8
CUTOUT
 62
7
100
AcDbSpline
 70
8
 71
3
 72
8
 73
4
 74
0
 40
0
 40
0
 40
0
 40
0
 40
1
 40
1
 40
1
 40
1
 10
98.199960
 20
43.100884
 30
0.0
 10
97.371533
 20
43.100884
 30
0.0
 10
96.699960
 20
43.772456
 30
0.0
 10
96.699960
 20
44.600881
 30
0.0
  0
SPLINE
  5
129
100
AcDbEntity
  8
CUTOUT
 62
7
100
AcDbSpline
 70
8
 71
3
 72
8
 73
4
 74
0
 40
0
 40
0
 40
0
 40
0
 40
1
 40
1
 40
1
 40
1
 10
96.699960
 20
44.600881
 30
0.0
 10
96.699960
 20
45.429306
 30
0.0
 10
97.371533
 20
46.100878
 30
0.0
 10
98.199960
 20
46.100878
 30
0.0
  0
SPLINE
  5
12a
100
AcDbEntity
  8
CUTOUT
 62
7
100
AcDbSpline
 70
8
 71
3
 72
8
 73
4
 74
0
 40
0
 40
0
 40
0
 40
0
 40
1
 40
1
 40
1
 40
1
 10
98.199960
 20
46.100878
 30
0.0
 10
99.028387
 20
46.100878
 30
0.0
 10
99.699960
 20
45.429306
 30
0.0
 10
99.699960
 20
44.600881
 30
0.0
  0
LWPOLYLINE
  5
12b
100
AcDbEntity
  8
CUTOUT
 62
7
100
AcDbPolyline
 90
1
 70
1
 10
130.750210
 20
44.601255
 30
0.0
  0
SPLINE
  5
12c
100
AcDbEntity
  8
CUTOUT
 62
7
100
AcDbSpline
 70
8
 71
3
 72
8
 73
4
 74
0
 40
0
 40
0
 40
0
 40
0
 40
1
 40
1
 40
1
 40
1
 10
109.750210
 20
44.601255
 30
0.0
 10
109.750210
 20
43.606695
 30
0.0
 10
109.355122
 20
42.652870
 30
0.0
 10
108.651861
 20
41.949610
 30
0.0
  0
SPLINE
  5
12d
100
AcDbEntity
  8
CUTOUT
 62
7
100
AcDbSpline
 70
8
 71
3
 72
8
 73
4
 74
0
 40
0
 40
0
 40
0
 40
0
 40
1
 40
1
 40
1
 40
1
 10
108.651861
 20
41.949610
 30
0.0
 10
107.948599
 20
41.246349
 30
0.0
 10
106.994772
 20
40.851262
 30
0.0
 10
106.000210
 20
40.851262
 30
0.0
  0
SPLINE
  5
12e
100
AcDbEntity
  8
CUTOUT
 62
7
100
AcDbSpline
 70
8
 71
3
 72
8
 73
4
 74
0
 40
0
 40
0
 40
0
 40
0
 40
1
 40
1
 40
1
 40
1
 10
106.000210
 20
40.851262
 30
0.0
 10
103.929142
 20
40.851262
 30
0.0
 10
102.250210
 20
42.530191
 30
0.0
 10
102.250210
 20
44.601255
 30
0.0
  0
SPLINE
  5
12f
100
AcDbEntity
  8
CUTOUT
 62
7
100
AcDbSpline
 70
8
 71
3
 72
8
 73
4
 74
0
 40
0
 40
0
 40
0
 40
0
 40
1
 40
1
 40
1
 40
1
 10
102.250210
 20
44.601255
 30
0.0
 10
102.250210
 20
45.595815
 30
0.0
 10
102.645298
 20
46.549640
 30
0.0
 10
103.348559
 20
47.252900
 30
0.0
  0
SPLINE
  5
130
100
AcDbEntity
  8
CUTOUT
 62
7
100
AcDbSpline
 70
8
 71
3
 72
8
 73
4
 74
0
 40
0
 40
0
 40
0
 40
0
 40
1
 40
1
 40
1
 40
1
 10
103.348559
 20
47.252900
 30
0.0
 10
104.051821
 20
47.956161
 30
0.0
 10
105.005648
 20
48.351248
 30
0.0
 10
106.000210
 20
48.351248
 30
0.0
  0
SPLINE
  5
131
100
AcDbEntity
  8
CUTOUT
 62
7
100
AcDbSpline
 70
8
 71
3
 72
8
 73
4
 74
0
 40
0
 40
0
 40
0
 40
0
 40
1
 40
1
 40
1
 40
1
 10
106.000210
 20
48.351248
 30
0.0
 10
108.071278
 20
48.351248
 30
0.0
 10
109.750210
 20
46.672319
 30
0.0
 10
109.750210
 20
44.601255
 30
0.0
  0
LWPOLYLINE
  5
132
100
AcDbEntity
  8
CUTOUT
 62
7
100
AcDbPolyline
 90
1
 70
1
 10
99.699960
 20
44.600881
 30
0.0
  0
SPLINE
  5
133
100
AcDbEntity
  8
CUTOUT
 62
7
100
AcDbSpline
 70
8
 71
3
 72
8
 73
4
 74
0
 40
0
 40
0
 40
0
 40
0
 40
1
 40
1
 40
1
 40
1
 10
78.699960
 20
44.600881
 30
0.0
 10
78.699960
 20
43.772456
 30
0.0
 10
78.028387
 20
43.100884
 30
0.0
 10
77.199960
 20
43.100884
 30
0.0
  0
SPLINE
  5
134
100
AcDbEntity
  8
CUTOUT
 62
7
100
AcDbSpline
 70
8
 71
3
 72
8
 73
4
 74
0
 40
0
 40
0
 40
0
 40
0
 40
1
 40
1
 40
1
 40
1
 10
77.199960
 20
43.100884
 30
0.0
 10
76.371533
 20
43.100884
 30
0.0
 10
75.699960
 20
43.772456
 30
0.0
 10
75.699960
 20
44.600881
 30
0.0
  0
SPLINE
  5
135
100
AcDbEntity
  8
CUTOUT
 62
7
100
AcDbSpline
 70
8
 71
3
 72
8
 73
4
 74
0
 40
0
 40
0
 40
0
 40
0
 40
1
 40
1
 40
1
 40
1
 10
75.699960
 20
44.600881
 30
0.0
 10
75.699960
 20
45.429306
 30
0.0
 10
76.371533
 20
46.100878
 30
0.0
 10
77.199960
 20
46.100878
 30
0.0
  0
SPLINE
  5
136
100
AcDbEntity
  8
CUTOUT
 62
7
100
AcDbSpline
 70
8
 71
3
 72
8
 73
4
 74
0
 40
0
 40
0
 40
0
 40
0
 40
1
 40
1
 40
1
 40
1
 10
77.199960
 20
46.100878
 30
0.0
 10
78.028387
 20
46.100878
 30
0.0
 10
78.699960
 20
45.429306
 30
0.0
 10
78.699960
 20
44.600881
 30
0.0
  0
LWPOLYLINE
  5
137
100
AcDbEntity
  8
CUTOUT
 62
7
100
AcDbPolyline
 90
1
 70
1
 10
109.750210
 20
44.601255
 30
0.0
  0
SPLINE
  5
138
100
AcDbEntity
  8
CUTOUT
 62
7
100
AcDbSpline
 70
8
 71
3
 72
8
 73
4
 74
0
 40
0
 40
0
 40
0
 40
0
 40
1
 40
1
 40
1
 40
1
 10
88.750230
 20
44.601255
 30
0.0
 10
88.750230
 20
42.530191
 30
0.0
 10
87.071298
 20
40.851262
 30
0.0
 10
85.000230
 20
40.851262
 30
0.0
  0
SPLINE
  5
139
100
AcDbEntity
  8
CUTOUT
 62
7
100
AcDbSpline
 70
8
 71
3
 72
8
 73
4
 74
0
 40
0
 40
0
 40
0
 40
0
 40
1
 40
1
 40
1
 40
1
 10
85.000230
 20
40.851262
 30
0.0
 10
82.929162
 20
40.851262
 30
0.0
 10
81.250230
 20
42.530191
 30
0.0
 10
81.250230
 20
44.601255
 30
0.0
  0
SPLINE
  5
13a
100
AcDbEntity
  8
CUTOUT
 62
7
100
AcDbSpline
 70
8
 71
3
 72
8
 73
4
 74
0
 40
0
 40
0
 40
0
 40
0
 40
1
 40
1
 40
1
 40
1
 10
81.250230
 20
44.601255
 30
0.0
 10
81.250230
 20
45.595815
 30
0.0
 10
81.645318
 20
46.549640
 30
0.0
 10
82.348579
 20
47.252900
 30
0.0
  0
SPLINE
  5
13b
100
AcDbEntity
  8
CUTOUT
 62
7
100
AcDbSpline
 70
8
 71
3
 72
8
 73
4
 74
0
 40
0
 40
0
 40
0
 40
0
 40
1
 40
1
 40
1
 40
1
 10
82.348579
 20
47.252900
 30
0.0
 10
83.051841
 20
47.956161
 30
0.0
 10
84.005668
 20
48.351248
 30
0.0
 10
85.000230
 20
48.351248
 30
0.0
  0
SPLINE
  5
13c
100
AcDbEntity
  8
CUTOUT
 62
7
100
AcDbSpline
 70
8
 71
3
 72
8
 73
4
 74
0
 40
0
 40
0
 40
0
 40
0
 40
1
 40
1
 40
1
 40
1
 10
85.000230
 20
48.351248
 30
0.0
 10
87.071298
 20
48.351248
 30
0.0
 10
88.750230
 20
46.672319
 30
0.0
 10
88.750230
 20
44.601255
 30
0.0
  0
LWPOLYLINE
  5
13d
100
AcDbEntity
  8
CUTOUT
 62
7
100
AcDbPolyline
 90
1
 70
1
 10
78.699960
 20
44.600881
 30
0.0
  0
LWPOLYLINE
  5
13e
100
AcDbEntity
  8
CUTOUT
 62
7
100
AcDbPolyline
 90
1
 70
1
 10
88.750230
 20
44.601255
 30
0.0
  0
LWPOLYLINE
  5
13f
100
AcDbEntity
  8
CUTOUT
 62
7
100
AcDbPolyline
 90
4
 70
1
 10
39.814721
 20
46.650876
 30
0.0
 10
46.914720
 20
46.650876
 30
0.0
 10
46.914720
 20
32.150905
 30
0.0
 10
39.814721
 20
32.150905
 30
0.0
  0
LWPOLYLINE
  5
140
100
AcDbEntity
  8
CUTOUT
 62
7
100
AcDbPolyline
 90
4
 70
1
 10
48.814420
 20
46.650876
 30
0.0
 10
55.914420
 20
46.650876
 30
0.0
 10
55.914420
 20
32.150905
 30
0.0
 10
48.814420
 20
32.150905
 30
0.0
  0
LWPOLYLINE
  5
141
100
AcDbEntity
  8
CUTOUT
 62
7
100
AcDbPolyline
 90
4
 70
1
 10
25.499825
 20
42.150312
 30
0.0
 10
36.499825
 20
42.150312
 30
0.0
 10
36.499825
 20
32.150331
 30
0.0
 10
25.499825
 20
32.150331
 30
0.0
  0
SPLINE
  5
142
100
AcDbEntity
  8
CUTOUT
 62
7
100
AcDbSpline
 70
8
 71
3
 72
8
 73
4
 74
0
 40
0
 40
0
 40
0
 40
0
 40
1
 40
1
 40
1
 40
1
 10
69.147500
 20
34.816327
 30
0.0
 10
69.147500
 20
33.077992
 30
0.0
 10
67.738299
 20
31.668793
 30
0.0
 10
65.999960
 20
31.668792
 30
0.0
  0
SPLINE
  5
143
100
AcDbEntity
  8
CUTOUT
 62
7
100
AcDbSpline
 70
8
 71
3
 72
8
 73
4
 74
0
 40
0
 40
0
 40
0
 40
0
 40
1
 40
1
 40
1
 40
1
 10
65.999960
 20
31.668792
 30
0.0
 10
64.261621
 20
31.668793
 30
0.0
 10
62.852420
 20
33.077992
 30
0.0
 10
62.852420
 20
34.816327
 30
0.0
  0
SPLINE
  5
144
100
AcDbEntity
  8
CUTOUT
 62
7
100
AcDbSpline
 70
8
 71
3
 72
8
 73
4
 74
0
 40
0
 40
0
 40
0
 40
0
 40
1
 40
1
 40
1
 40
1
 10
62.852420
 20
34.816327
 30
0.0
 10
62.852420
 20
36.554662
 30
0.0
 10
64.261621
 20
37.963861
 30
0.0
 10
65.999960
 20
37.963862
 30
0.0
  0
SPLINE
  5
145
100
AcDbEntity
  8
CUTOUT
 62
7
100
AcDbSpline
 70
8
 71
3
 72
8
 73
4
 74
0
 40
0
 40
0
 40
0
 40
0
 40
1
 40
1
 40
1
 40
1
 10
65.999960
 20
37.963862
 30
0.0
 10
67.738299
 20
37.963861
 30
0.0
 10
69.147500
 20
36.554662
 30
0.0
 10
69.147500
 20
34.816327
 30
0.0
  0
LWPOLYLINE
  5
146
100
AcDbEntity
  8
CUTOUT
 62
7
100
AcDbPolyline
 90
4
 70
1
 10
11.179963
 20
42.150693
 30
0.0
 10
22.179963
 20
42.150693
 30
0.0
 10
22.179963
 20
32.150712
 30
0.0
 10
11.179963
 20
32.150712
 30
0.0
  0
LWPOLYLINE
  5
147
100
AcDbEntity
  8
CUTOUT
 62
7
100
AcDbPolyline
 90
1
 70
1
 10
69.147500
 20
34.816327
 30
0.0
  0
LWPOLYLINE
  5
148
100
AcDbEntity
  8
REFERENCE
 62
5
100
AcDbPolyline
 90
4
 70
1
 10
0.056346
 20
69.943654
 30
0.0
 10
199.943652
 20
69.943654
 30
0.0
 10
199.943652
 20
0.056347
 30
0.0
 10
0.056346
 20
0.056347
 30
0.0
  0
LWPOLYLINE
  5
149
100
AcDbEntity
  8
TEXT
 62
7
100
AcDbPolyline
 90
3
 70
1
 10
177.282490
 20
55.924156
 30
0.0
 10
176.751820
 20
54.485163
 30
0.0
 10
177.815090
 20
54.485163
 30
0.0
  0
LWPOLYLINE
  5
14a
100
AcDbEntity
  8
TEXT
 62
7
100
AcDbPolyline
 90
8
 70
1
 10
177.061700
 20
56.309566
 30
0.0
 10
177.505210
 20
56.309566
 30
0.0
 10
178.607220
 20
53.418023
 30
0.0
 10
178.200500
 20
53.418023
 30
0.0
 10
177.937110
 20
54.159792
 30
0.0
 10
176.633680
 20
54.159792
 30
0.0
 10
176.370290
 20
53.418023
 30
0.0
 10
175.957760
 20
53.418023
 30
0.0
  0
LWPOLYLINE
  5
14b
100
AcDbEntity
  8
TEXT
 62
7
100
AcDbPolyline
 90
10
 70
1
 10
179.029420
 20
56.309566
 30
0.0
 10
179.556210
 20
56.309566
 30
0.0
 10
180.838330
 20
53.890586
 30
0.0
 10
180.838330
 20
56.309566
 30
0.0
 10
181.217930
 20
56.309566
 30
0.0
 10
181.217930
 20
53.418023
 30
0.0
 10
180.691140
 20
53.418023
 30
0.0
 10
179.409020
 20
55.837003
 30
0.0
 10
179.409020
 20
53.418023
 30
0.0
 10
179.029420
 20
53.418023
 30
0.0
  0
LWPOLYLINE
  5
14c
100
AcDbEntity
  8
TEXT
 62
7
100
AcDbPolyline
 90
8
 70
1
 10
181.595590
 20
56.309566
 30
0.0
 10
184.041690
 20
56.309566
 30
0.0
 10
184.041690
 20
55.980321
 30
0.0
 10
183.015220
 20
55.980321
 30
0.0
 10
183.015220
 20
53.418023
 30
0.0
 10
182.622060
 20
53.418023
 30
0.0
 10
182.622060
 20
55.980321
 30
0.0
 10
181.595590
 20
55.980321
 30
0.0
  0
SPLINE
  5
14d
100
AcDbEntity
  8
TEXT
 62
7
100
AcDbSpline
 70
8
 71
3
 72
8
 73
4
 74
0
 40
0
 40
0
 40
0
 40
0
 40
1
 40
1
 40
1
 40
1
 10
161.830030
 20
55.730485
 30
0.0
 10
161.698330
 20
55.853145
 30
0.0
 10
161.557593
 20
55.944817
 30
0.0
 10
161.407820
 20
56.005501
 30
0.0
  0
SPLINE
  5
14e
100
AcDbEntity
  8
TEXT
 62
7
100
AcDbSpline
 70
8
 71
3
 72
8
 73
4
 74
0
 40
0
 40
0
 40
0
 40
0
 40
1
 40
1
 40
1
 40
1
 10
161.407820
 20
56.005501
 30
0.0
 10
161.259333
 20
56.066188
 30
0.0
 10
161.101167
 20
56.096531
 30
0.0
 10
160.933320
 20
56.096531
 30
0.0
  0
SPLINE
  5
14f
100
AcDbEntity
  8
TEXT
 62
7
100
AcDbSpline
 70
8
 71
3
 72
8
 73
4
 74
0
 40
0
 40
0
 40
0
 40
0
 40
1
 40
1
 40
1
 40
1
 10
160.933320
 20
56.096531
 30
0.0
 10
160.602780
 20
56.096531
 30
0.0
 10
160.349713
 20
55.995175
 30
0.0
 10
160.174120
 20
55.792463
 30
0.0
  0
SPLINE
  5
150
100
AcDbEntity
  8
TEXT
 62
7
100
AcDbSpline
 70
8
 71
3
 72
8
 73
4
 74
0
 40
0
 40
0
 40
0
 40
0
 40
1
 40
1
 40
1
 40
1
 10
160.174120
 20
55.792463
 30
0.0
 10
159.998520
 20
55.591043
 30
0.0
 10
159.910720
 20
55.299242
 30
0.0
 10
159.910720
 20
54.917060
 30
0.0
  0
SPLINE
  5
151
100
AcDbEntity
  8
TEXT
 62
7
100
AcDbSpline
 70
8
 71
3
 72
8
 73
4
 74
0
 40
0
 40
0
 40
0
 40
0
 40
1
 40
1
 40
1
 40
1
 10
159.910720
 20
54.917060
 30
0.0
 10
159.910720
 20
54.536169
 30
0.0
 10
159.998520
 20
54.244368
 30
0.0
 10
160.174120
 20
54.041656
 30
0.0
  0
SPLINE
  5
152
100
AcDbEntity
  8
TEXT
 62
7
100
AcDbSpline
 70
8
 71
3
 72
8
 73
4
 74
0
 40
0
 40
0
 40
0
 40
0
 40
1
 40
1
 40
1
 40
1
 10
160.174120
 20
54.041656
 30
0.0
 10
160.349713
 20
53.840236
 30
0.0
 10
160.602780
 20
53.739526
 30
0.0
 10
160.933320
 20
53.739526
 30
0.0
  0
SPLINE
  5
153
100
AcDbEntity
  8
TEXT
 62
7
100
AcDbSpline
 70
8
 71
3
 72
8
 73
4
 74
0
 40
0
 40
0
 40
0
 40
0
 40
1
 40
1
 40
1
 40
1
 10
160.933320
 20
53.739526
 30
0.0
 10
161.101167
 20
53.739526
 30
0.0
 10
161.259333
 20
53.769869
 30
0.0
 10
161.407820
 20
53.830556
 30
0.0
  0
SPLINE
  5
154
100
AcDbEntity
  8
TEXT
 62
7
100
AcDbSpline
 70
8
 71
3
 72
8
 73
4
 74
0
 40
0
 40
0
 40
0
 40
0
 40
1
 40
1
 40
1
 40
1
 10
161.407820
 20
53.830556
 30
0.0
 10
161.557593
 20
53.891243
 30
0.0
 10
161.698330
 20
53.982915
 30
0.0
 10
161.830030
 20
54.105572
 30
0.0
  0
LWPOLYLINE
  5
155
100
AcDbEntity
  8
TEXT
 62
7
100
AcDbPolyline
 90
2
 70
0
 10
161.830030
 20
56.143009
 30
0.0
 10
161.830030
 20
55.730485
 30
0.0
  0
SPLINE
  5
156
100
AcDbEntity
  8
TEXT
 62
7
100
AcDbSpline
 70
8
 71
3
 72
8
 73
4
 74
0
 40
0
 40
0
 40
0
 40
0
 40
1
 40
1
 40
1
 40
1
 10
161.830030
 20
53.696921
 30
0.0
 10
161.693163
 20
53.603958
 30
0.0
 10
161.547907
 20
53.534235
 30
0.0
 10
161.394260
 20
53.487754
 30
0.0
  0
SPLINE
  5
157
100
AcDbEntity
  8
TEXT
 62
7
100
AcDbSpline
 70
8
 71
3
 72
8
 73
4
 74
0
 40
0
 40
0
 40
0
 40
0
 40
1
 40
1
 40
1
 40
1
 10
161.394260
 20
53.487754
 30
0.0
 10
161.241907
 20
53.441274
 30
0.0
 10
161.080513
 20
53.418034
 30
0.0
 10
160.910080
 20
53.418034
 30
0.0
  0
SPLINE
  5
158
100
AcDbEntity
  8
TEXT
 62
7
100
AcDbSpline
 70
8
 71
3
 72
8
 73
4
 74
0
 40
0
 40
0
 40
0
 40
0
 40
1
 40
1
 40
1
 40
1
 10
160.910080
 20
53.418034
 30
0.0
 10
160.472373
 20
53.418034
 30
0.0
 10
160.127633
 20
53.551669
 30
0.0
 10
159.875860
 20
53.818938
 30
0.0
  0
SPLINE
  5
159
100
AcDbEntity
  8
TEXT
 62
7
100
AcDbSpline
 70
8
 71
3
 72
8
 73
4
 74
0
 40
0
 40
0
 40
0
 40
0
 40
1
 40
1
 40
1
 40
1
 10
159.875860
 20
53.818938
 30
0.0
 10
159.624087
 20
54.087499
 30
0.0
 10
159.498200
 20
54.453541
 30
0.0
 10
159.498200
 20
54.917066
 30
0.0
  0
SPLINE
  5
15a
100
AcDbEntity
  8
TEXT
 62
7
100
AcDbSpline
 70
8
 71
3
 72
8
 73
4
 74
0
 40
0
 40
0
 40
0
 40
0
 40
1
 40
1
 40
1
 40
1
 10
159.498200
 20
54.917066
 30
0.0
 10
159.498200
 20
55.381882
 30
0.0
 10
159.624087
 20
55.747925
 30
0.0
 10
159.875860
 20
56.015194
 30
0.0
  0
SPLINE
  5
15b
100
AcDbEntity
  8
TEXT
 62
7
100
AcDbSpline
 70
8
 71
3
 72
8
 73
4
 74
0
 40
0
 40
0
 40
0
 40
0
 40
1
 40
1
 40
1
 40
1
 10
159.875860
 20
56.015194
 30
0.0
 10
160.127633
 20
56.283754
 30
0.0
 10
160.472373
 20
56.418034
 30
0.0
 10
160.910080
 20
56.418034
 30
0.0
  0
SPLINE
  5
15c
100
AcDbEntity
  8
TEXT
 62
7
100
AcDbSpline
 70
8
 71
3
 72
8
 73
4
 74
0
 40
0
 40
0
 40
0
 40
0
 40
1
 40
1
 40
1
 40
1
 10
160.910080
 20
56.418034
 30
0.0
 10
161.083093
 20
56.418034
 30
0.0
 10
161.245777
 20
56.394794
 30
0.0
 10
161.398130
 20
56.348314
 30
0.0
  0
SPLINE
  5
15d
100
AcDbEntity
  8
TEXT
 62
7
100
AcDbSpline
 70
8
 71
3
 72
8
 73
4
 74
0
 40
0
 40
0
 40
0
 40
0
 40
1
 40
1
 40
1
 40
1
 10
161.398130
 20
56.348314
 30
0.0
 10
161.551783
 20
56.303121
 30
0.0
 10
161.695750
 20
56.234689
 30
0.0
 10
161.830030
 20
56.143020
 30
0.0
  0
LWPOLYLINE
  5
15e
100
AcDbEntity
  8
TEXT
 62
7
100
AcDbPolyline
 90
2
 70
0
 10
161.830030
 20
54.105572
 30
0.0
 10
161.830030
 20
53.696921
 30
0.0
  0
SPLINE
  5
15f
100
AcDbEntity
  8
TEXT
 62
7
100
AcDbSpline
 70
8
 71
3
 72
8
 73
4
 74
0
 40
0
 40
0
 40
0
 40
0
 40
1
 40
1
 40
1
 40
1
 10
163.607950
 20
56.100401
 30
0.0
 10
163.323897
 20
56.100401
 30
0.0
 10
163.097943
 20
55.994526
 30
0.0
 10
162.930090
 20
55.782777
 30
0.0
  0
SPLINE
  5
160
100
AcDbEntity
  8
TEXT
 62
7
100
AcDbSpline
 70
8
 71
3
 72
8
 73
4
 74
0
 40
0
 40
0
 40
0
 40
0
 40
1
 40
1
 40
1
 40
1
 10
162.930090
 20
55.782777
 30
0.0
 10
162.763530
 20
55.571028
 30
0.0
 10
162.680250
 20
55.282454
 30
0.0
 10
162.680250
 20
54.917057
 30
0.0
  0
SPLINE
  5
161
100
AcDbEntity
  8
TEXT
 62
7
100
AcDbSpline
 70
8
 71
3
 72
8
 73
4
 74
0
 40
0
 40
0
 40
0
 40
0
 40
1
 40
1
 40
1
 40
1
 10
162.680250
 20
54.917057
 30
0.0
 10
162.680250
 20
54.552951
 30
0.0
 10
162.763530
 20
54.265023
 30
0.0
 10
162.930090
 20
54.053274
 30
0.0
  0
SPLINE
  5
162
100
AcDbEntity
  8
TEXT
 62
7
100
AcDbSpline
 70
8
 71
3
 72
8
 73
4
 74
0
 40
0
 40
0
 40
0
 40
0
 40
1
 40
1
 40
1
 40
1
 10
162.930090
 20
54.053274
 30
0.0
 10
163.097943
 20
53.841525
 30
0.0
 10
163.323897
 20
53.735650
 30
0.0
 10
163.607950
 20
53.735650
 30
0.0
  0
SPLINE
  5
163
100
AcDbEntity
  8
TEXT
 62
7
100
AcDbSpline
 70
8
 71
3
 72
8
 73
4
 74
0
 40
0
 40
0
 40
0
 40
0
 40
1
 40
1
 40
1
 40
1
 10
163.607950
 20
53.735650
 30
0.0
 10
163.892003
 20
53.735650
 30
0.0
 10
164.116663
 20
53.841525
 30
0.0
 10
164.281930
 20
54.053274
 30
0.0
  0
SPLINE
  5
164
100
AcDbEntity
  8
TEXT
 62
7
100
AcDbSpline
 70
8
 71
3
 72
8
 73
4
 74
0
 40
0
 40
0
 40
0
 40
0
 40
1
 40
1
 40
1
 40
1
 10
164.281930
 20
54.053274
 30
0.0
 10
164.448490
 20
54.265023
 30
0.0
 10
164.531770
 20
54.552951
 30
0.0
 10
164.531770
 20
54.917057
 30
0.0
  0
SPLINE
  5
165
100
AcDbEntity
  8
TEXT
 62
7
100
AcDbSpline
 70
8
 71
3
 72
8
 73
4
 74
0
 40
0
 40
0
 40
0
 40
0
 40
1
 40
1
 40
1
 40
1
 10
164.531770
 20
54.917057
 30
0.0
 10
164.531770
 20
55.282454
 30
0.0
 10
164.448490
 20
55.571028
 30
0.0
 10
164.281930
 20
55.782777
 30
0.0
  0
SPLINE
  5
166
100
AcDbEntity
  8
TEXT
 62
7
100
AcDbSpline
 70
8
 71
3
 72
8
 73
4
 74
0
 40
0
 40
0
 40
0
 40
0
 40
1
 40
1
 40
1
 40
1
 10
164.281930
 20
55.782777
 30
0.0
 10
164.116663
 20
55.994526
 30
0.0
 10
163.892003
 20
56.100401
 30
0.0
 10
163.607950
 20
56.100401
 30
0.0
  0
LWPOLYLINE
  5
167
100
AcDbEntity
  8
TEXT
 62
7
100
AcDbPolyline
 90
1
 70
1
 10
161.830030
 20
56.143020
 30
0.0
  0
SPLINE
  5
168
100
AcDbEntity
  8
TEXT
 62
7
100
AcDbSpline
 70
8
 71
3
 72
8
 73
4
 74
0
 40
0
 40
0
 40
0
 40
0
 40
1
 40
1
 40
1
 40
1
 10
163.607950
 20
56.418025
 30
0.0
 10
164.013370
 20
56.418025
 30
0.0
 10
164.337450
 20
56.281808
 30
0.0
 10
164.580190
 20
56.009375
 30
0.0
  0
SPLINE
  5
169
100
AcDbEntity
  8
TEXT
 62
7
100
AcDbSpline
 70
8
 71
3
 72
8
 73
4
 74
0
 40
0
 40
0
 40
0
 40
0
 40
1
 40
1
 40
1
 40
1
 10
164.580190
 20
56.009375
 30
0.0
 10
164.822923
 20
55.738232
 30
0.0
 10
164.944290
 20
55.374126
 30
0.0
 10
164.944290
 20
54.917057
 30
0.0
  0
SPLINE
  5
16a
100
AcDbEntity
  8
TEXT
 62
7
100
AcDbSpline
 70
8
 71
3
 72
8
 73
4
 74
0
 40
0
 40
0
 40
0
 40
0
 40
1
 40
1
 40
1
 40
1
 10
164.944290
 20
54.917057
 30
0.0
 10
164.944290
 20
54.461279
 30
0.0
 10
164.822923
 20
54.097173
 30
0.0
 10
164.580190
 20
53.824739
 30
0.0
  0
SPLINE
  5
16b
100
AcDbEntity
  8
TEXT
 62
7
100
AcDbSpline
 70
8
 71
3
 72
8
 73
4
 74
0
 40
0
 40
0
 40
0
 40
0
 40
1
 40
1
 40
1
 40
1
 10
164.580190
 20
53.824739
 30
0.0
 10
164.337450
 20
53.553596
 30
0.0
 10
164.013370
 20
53.418025
 30
0.0
 10
163.607950
 20
53.418025
 30
0.0
  0
SPLINE
  5
16c
100
AcDbEntity
  8
TEXT
 62
7
100
AcDbSpline
 70
8
 71
3
 72
8
 73
4
 74
0
 40
0
 40
0
 40
0
 40
0
 40
1
 40
1
 40
1
 40
1
 10
163.607950
 20
53.418025
 30
0.0
 10
163.201237
 20
53.418025
 30
0.0
 10
162.875863
 20
53.553596
 30
0.0
 10
162.631830
 20
53.824739
 30
0.0
  0
SPLINE
  5
16d
100
AcDbEntity
  8
TEXT
 62
7
100
AcDbSpline
 70
8
 71
3
 72
8
 73
4
 74
0
 40
0
 40
0
 40
0
 40
0
 40
1
 40
1
 40
1
 40
1
 10
162.631830
 20
53.824739
 30
0.0
 10
162.389097
 20
54.095882
 30
0.0
 10
162.267730
 20
54.459988
 30
0.0
 10
162.267730
 20
54.917057
 30
0.0
  0
SPLINE
  5
16e
100
AcDbEntity
  8
TEXT
 62
7
100
AcDbSpline
 70
8
 71
3
 72
8
 73
4
 74
0
 40
0
 40
0
 40
0
 40
0
 40
1
 40
1
 40
1
 40
1
 10
162.267730
 20
54.917057
 30
0.0
 10
162.267730
 20
55.374126
 30
0.0
 10
162.389097
 20
55.738232
 30
0.0
 10
162.631830
 20
56.009375
 30
0.0
  0
SPLINE
  5
16f
100
AcDbEntity
  8
TEXT
 62
7
100
AcDbSpline
 70
8
 71
3
 72
8
 73
4
 74
0
 40
0
 40
0
 40
0
 40
0
 40
1
 40
1
 40
1
 40
1
 10
162.631830
 20
56.009375
 30
0.0
 10
162.875863
 20
56.281808
 30
0.0
 10
163.201237
 20
56.418025
 30
0.0
 10
163.607950
 20
56.418025
 30
0.0
  0
LWPOLYLINE
  5
170
100
AcDbEntity
  8
TEXT
 62
7
100
AcDbPolyline
 90
1
 70
1
 10
163.607950
 20
56.100401
 30
0.0
  0
LWPOLYLINE
  5
171
100
AcDbEntity
  8
TEXT
 62
7
100
AcDbPolyline
 90
1
 70
1
 10
163.607950
 20
56.418025
 30
0.0
  0
SPLINE
  5
172
100
AcDbEntity
  8
TEXT
 62
7
100
AcDbSpline
 70
8
 71
3
 72
8
 73
4
 74
0
 40
0
 40
0
 40
0
 40
0
 40
1
 40
1
 40
1
 40
1
 10
148.000010
 20
56.108148
 30
0.0
 10
147.798590
 20
56.108148
 30
0.0
 10
147.646880
 20
56.008729
 30
0.0
 10
147.544880
 20
55.809891
 30
0.0
  0
SPLINE
  5
173
100
AcDbEntity
  8
TEXT
 62
7
100
AcDbSpline
 70
8
 71
3
 72
8
 73
4
 74
0
 40
0
 40
0
 40
0
 40
0
 40
1
 40
1
 40
1
 40
1
 10
147.544880
 20
55.809891
 30
0.0
 10
147.444173
 20
55.612344
 30
0.0
 10
147.393820
 20
55.314733
 30
0.0
 10
147.393820
 20
54.917057
 30
0.0
  0
SPLINE
  5
174
100
AcDbEntity
  8
TEXT
 62
7
100
AcDbSpline
 70
8
 71
3
 72
8
 73
4
 74
0
 40
0
 40
0
 40
0
 40
0
 40
1
 40
1
 40
1
 40
1
 10
147.393820
 20
54.917057
 30
0.0
 10
147.393820
 20
54.520672
 30
0.0
 10
147.444173
 20
54.223061
 30
0.0
 10
147.544880
 20
54.024223
 30
0.0
  0
SPLINE
  5
175
100
AcDbEntity
  8
TEXT
 62
7
100
AcDbSpline
 70
8
 71
3
 72
8
 73
4
 74
0
 40
0
 40
0
 40
0
 40
0
 40
1
 40
1
 40
1
 40
1
 10
147.544880
 20
54.024223
 30
0.0
 10
147.646880
 20
53.826676
 30
0.0
 10
147.798590
 20
53.727903
 30
0.0
 10
148.000010
 20
53.727903
 30
0.0
  0
SPLINE
  5
176
100
AcDbEntity
  8
TEXT
 62
7
100
AcDbSpline
 70
8
 71
3
 72
8
 73
4
 74
0
 40
0
 40
0
 40
0
 40
0
 40
1
 40
1
 40
1
 40
1
 10
148.000010
 20
53.727903
 30
0.0
 10
148.202723
 20
53.727903
 30
0.0
 10
148.354437
 20
53.826676
 30
0.0
 10
148.455150
 20
54.024223
 30
0.0
  0
SPLINE
  5
177
100
AcDbEntity
  8
TEXT
 62
7
100
AcDbSpline
 70
8
 71
3
 72
8
 73
4
 74
0
 40
0
 40
0
 40
0
 40
0
 40
1
 40
1
 40
1
 40
1
 10
148.455150
 20
54.024223
 30
0.0
 10
148.557150
 20
54.223061
 30
0.0
 10
148.608150
 20
54.520672
 30
0.0
 10
148.608150
 20
54.917057
 30
0.0
  0
SPLINE
  5
178
100
AcDbEntity
  8
TEXT
 62
7
100
AcDbSpline
 70
8
 71
3
 72
8
 73
4
 74
0
 40
0
 40
0
 40
0
 40
0
 40
1
 40
1
 40
1
 40
1
 10
148.608150
 20
54.917057
 30
0.0
 10
148.608150
 20
55.314733
 30
0.0
 10
148.557150
 20
55.612344
 30
0.0
 10
148.455150
 20
55.809891
 30
0.0
  0
SPLINE
  5
179
100
AcDbEntity
  8
TEXT
 62
7
100
AcDbSpline
 70
8
 71
3
 72
8
 73
4
 74
0
 40
0
 40
0
 40
0
 40
0
 40
1
 40
1
 40
1
 40
1
 10
148.455150
 20
55.809891
 30
0.0
 10
148.354437
 20
56.008729
 30
0.0
 10
148.202723
 20
56.108148
 30
0.0
 10
148.000010
 20
56.108148
 30
0.0
  0
LWPOLYLINE
  5
17a
100
AcDbEntity
  8
TEXT
 62
7
100
AcDbPolyline
 90
13
 70
1
 10
165.556300
 20
56.365734
 30
0.0
 10
166.139260
 20
56.365734
 30
0.0
 10
166.877150
 20
54.398012
 30
0.0
 10
167.618920
 20
56.365734
 30
0.0
 10
168.201880
 20
56.365734
 30
0.0
 10
168.201880
 20
53.474191
 30
0.0
 10
167.820340
 20
53.474191
 30
0.0
 10
167.820340
 20
56.013248
 30
0.0
 10
167.074700
 20
54.030033
 30
0.0
 10
166.681540
 20
54.030033
 30
0.0
 10
165.935900
 20
56.013248
 30
0.0
 10
165.935900
 20
53.474191
 30
0.0
 10
165.556300
 20
53.474191
 30
0.0
  0
SPLINE
  5
17b
100
AcDbEntity
  8
TEXT
 62
7
100
AcDbSpline
 70
8
 71
3
 72
8
 73
4
 74
0
 40
0
 40
0
 40
0
 40
0
 40
1
 40
1
 40
1
 40
1
 10
148.000010
 20
56.418025
 30
0.0
 10
148.324090
 20
56.418025
 30
0.0
 10
148.571347
 20
56.289555
 30
0.0
 10
148.741780
 20
56.032615
 30
0.0
  0
SPLINE
  5
17c
100
AcDbEntity
  8
TEXT
 62
7
100
AcDbSpline
 70
8
 71
3
 72
8
 73
4
 74
0
 40
0
 40
0
 40
0
 40
0
 40
1
 40
1
 40
1
 40
1
 10
148.741780
 20
56.032615
 30
0.0
 10
148.913507
 20
55.776966
 30
0.0
 10
148.999370
 20
55.405114
 30
0.0
 10
148.999370
 20
54.917057
 30
0.0
  0
SPLINE
  5
17d
100
AcDbEntity
  8
TEXT
 62
7
100
AcDbSpline
 70
8
 71
3
 72
8
 73
4
 74
0
 40
0
 40
0
 40
0
 40
0
 40
1
 40
1
 40
1
 40
1
 10
148.999370
 20
54.917057
 30
0.0
 10
148.999370
 20
54.430291
 30
0.0
 10
148.913507
 20
54.058438
 30
0.0
 10
148.741780
 20
53.801499
 30
0.0
  0
SPLINE
  5
17e
100
AcDbEntity
  8
TEXT
 62
7
100
AcDbSpline
 70
8
 71
3
 72
8
 73
4
 74
0
 40
0
 40
0
 40
0
 40
0
 40
1
 40
1
 40
1
 40
1
 10
148.741780
 20
53.801499
 30
0.0
 10
148.571347
 20
53.545850
 30
0.0
 10
148.324090
 20
53.418025
 30
0.0
 10
148.000010
 20
53.418025
 30
0.0
  0
SPLINE
  5
17f
100
AcDbEntity
  8
TEXT
 62
7
100
AcDbSpline
 70
8
 71
3
 72
8
 73
4
 74
0
 40
0
 40
0
 40
0
 40
0
 40
1
 40
1
 40
1
 40
1
 10
148.000010
 20
53.418025
 30
0.0
 10
147.675930
 20
53.418025
 30
0.0
 10
147.428030
 20
53.545850
 30
0.0
 10
147.256310
 20
53.801499
 30
0.0
  0
SPLINE
  5
180
100
AcDbEntity
  8
TEXT
 62
7
100
AcDbSpline
 70
8
 71
3
 72
8
 73
4
 74
0
 40
0
 40
0
 40
0
 40
0
 40
1
 40
1
 40
1
 40
1
 10
147.256310
 20
53.801499
 30
0.0
 10
147.085877
 20
54.058438
 30
0.0
 10
147.000660
 20
54.430291
 30
0.0
 10
147.000660
 20
54.917057
 30
0.0
  0
SPLINE
  5
181
100
AcDbEntity
  8
TEXT
 62
7
100
AcDbSpline
 70
8
 71
3
 72
8
 73
4
 74
0
 40
0
 40
0
 40
0
 40
0
 40
1
 40
1
 40
1
 40
1
 10
147.000660
 20
54.917057
 30
0.0
 10
147.000660
 20
55.405114
 30
0.0
 10
147.085877
 20
55.776966
 30
0.0
 10
147.256310
 20
56.032615
 30
0.0
  0
SPLINE
  5
182
100
AcDbEntity
  8
TEXT
 62
7
100
AcDbSpline
 70
8
 71
3
 72
8
 73
4
 74
0
 40
0
 40
0
 40
0
 40
0
 40
1
 40
1
 40
1
 40
1
 10
147.256310
 20
56.032615
 30
0.0
 10
147.428030
 20
56.289555
 30
0.0
 10
147.675930
 20
56.418025
 30
0.0
 10
148.000010
 20
56.418025
 30
0.0
  0
LWPOLYLINE
  5
183
100
AcDbEntity
  8
TEXT
 62
7
100
AcDbPolyline
 90
1
 70
1
 10
148.000010
 20
56.108148
 30
0.0
  0
LWPOLYLINE
  5
184
100
AcDbEntity
  8
TEXT
 62
7
100
AcDbPolyline
 90
1
 70
1
 10
148.000010
 20
56.418025
 30
0.0
  0
LWPOLYLINE
  5
185
100
AcDbEntity
  8
TEXT
 62
7
100
AcDbPolyline
 90
11
 70
1
 10
126.195330
 20
53.747268
 30
0.0
 10
126.834460
 20
53.747268
 30
0.0
 10
126.834460
 20
55.953207
 30
0.0
 10
126.139170
 20
55.813762
 30
0.0
 10
126.139170
 20
56.170121
 30
0.0
 10
126.830580
 20
56.309566
 30
0.0
 10
127.221800
 20
56.309566
 30
0.0
 10
127.221800
 20
53.747268
 30
0.0
 10
127.860920
 20
53.747268
 30
0.0
 10
127.860920
 20
53.418023
 30
0.0
 10
126.195330
 20
53.418023
 30
0.0
  0
SPLINE
  5
186
100
AcDbEntity
  8
TEXT
 62
7
100
AcDbSpline
 70
8
 71
3
 72
8
 73
4
 74
0
 40
0
 40
0
 40
0
 40
0
 40
1
 40
1
 40
1
 40
1
 10
105.082050
 20
53.747268
 30
0.0
 10
105.230530
 20
53.900915
 30
0.0
 10
105.432597
 20
54.106855
 30
0.0
 10
105.688250
 20
54.365086
 30
0.0
  0
SPLINE
  5
187
100
AcDbEntity
  8
TEXT
 62
7
100
AcDbSpline
 70
8
 71
3
 72
8
 73
4
 74
0
 40
0
 40
0
 40
0
 40
0
 40
1
 40
1
 40
1
 40
1
 10
105.688250
 20
54.365086
 30
0.0
 10
105.945190
 20
54.624608
 30
0.0
 10
106.106583
 20
54.791813
 30
0.0
 10
106.172430
 20
54.866700
 30
0.0
  0
SPLINE
  5
188
100
AcDbEntity
  8
TEXT
 62
7
100
AcDbSpline
 70
8
 71
3
 72
8
 73
4
 74
0
 40
0
 40
0
 40
0
 40
0
 40
1
 40
1
 40
1
 40
1
 10
106.172430
 20
54.866700
 30
0.0
 10
106.297670
 20
55.007435
 30
0.0
 10
106.384823
 20
55.126221
 30
0.0
 10
106.433890
 20
55.223058
 30
0.0
  0
SPLINE
  5
189
100
AcDbEntity
  8
TEXT
 62
7
100
AcDbSpline
 70
8
 71
3
 72
8
 73
4
 74
0
 40
0
 40
0
 40
0
 40
0
 40
1
 40
1
 40
1
 40
1
 10
106.433890
 20
55.223058
 30
0.0
 10
106.484223
 20
55.321186
 30
0.0
 10
106.509390
 20
55.417377
 30
0.0
 10
106.509390
 20
55.511632
 30
0.0
  0
SPLINE
  5
18a
100
AcDbEntity
  8
TEXT
 62
7
100
AcDbSpline
 70
8
 71
3
 72
8
 73
4
 74
0
 40
0
 40
0
 40
0
 40
0
 40
1
 40
1
 40
1
 40
1
 10
106.509390
 20
55.511632
 30
0.0
 10
106.509390
 20
55.665279
 30
0.0
 10
106.455160
 20
55.790521
 30
0.0
 10
106.346700
 20
55.887358
 30
0.0
  0
SPLINE
  5
18b
100
AcDbEntity
  8
TEXT
 62
7
100
AcDbSpline
 70
8
 71
3
 72
8
 73
4
 74
0
 40
0
 40
0
 40
0
 40
0
 40
1
 40
1
 40
1
 40
1
 10
106.346700
 20
55.887358
 30
0.0
 10
106.239540
 20
55.984195
 30
0.0
 10
106.099450
 20
56.032613
 30
0.0
 10
105.926430
 20
56.032613
 30
0.0
  0
SPLINE
  5
18c
100
AcDbEntity
  8
TEXT
 62
7
100
AcDbSpline
 70
8
 71
3
 72
8
 73
4
 74
0
 40
0
 40
0
 40
0
 40
0
 40
1
 40
1
 40
1
 40
1
 10
105.926430
 20
56.032613
 30
0.0
 10
105.803770
 20
56.032613
 30
0.0
 10
105.674010
 20
56.011310
 30
0.0
 10
105.537150
 20
55.968703
 30
0.0
  0
SPLINE
  5
18d
100
AcDbEntity
  8
TEXT
 62
7
100
AcDbSpline
 70
8
 71
3
 72
8
 73
4
 74
0
 40
0
 40
0
 40
0
 40
0
 40
1
 40
1
 40
1
 40
1
 10
105.537150
 20
55.968703
 30
0.0
 10
105.401577
 20
55.926096
 30
0.0
 10
105.256320
 20
55.861539
 30
0.0
 10
105.101380
 20
55.775030
 30
0.0
  0
LWPOLYLINE
  5
18e
100
AcDbEntity
  8
TEXT
 62
7
100
AcDbPolyline
 90
5
 70
0
 10
105.552670
 20
53.747268
 30
0.0
 10
106.918070
 20
53.747268
 30
0.0
 10
106.918070
 20
53.418023
 30
0.0
 10
105.082050
 20
53.418023
 30
0.0
 10
105.082050
 20
53.747268
 30
0.0
  0
SPLINE
  5
18f
100
AcDbEntity
  8
TEXT
 62
7
100
AcDbSpline
 70
8
 71
3
 72
8
 73
4
 74
0
 40
0
 40
0
 40
0
 40
0
 40
1
 40
1
 40
1
 40
1
 10
105.101380
 20
56.170123
 30
0.0
 10
105.258907
 20
56.233390
 30
0.0
 10
105.406100
 20
56.281162
 30
0.0
 10
105.542960
 20
56.313441
 30
0.0
  0
SPLINE
  5
190
100
AcDbEntity
  8
TEXT
 62
7
100
AcDbSpline
 70
8
 71
3
 72
8
 73
4
 74
0
 40
0
 40
0
 40
0
 40
0
 40
1
 40
1
 40
1
 40
1
 10
105.542960
 20
56.313441
 30
0.0
 10
105.679820
 20
56.345721
 30
0.0
 10
105.805063
 20
56.361861
 30
0.0
 10
105.918690
 20
56.361861
 30
0.0
  0
SPLINE
  5
191
100
AcDbEntity
  8
TEXT
 62
7
100
AcDbSpline
 70
8
 71
3
 72
8
 73
4
 74
0
 40
0
 40
0
 40
0
 40
0
 40
1
 40
1
 40
1
 40
1
 10
105.918690
 20
56.361861
 30
0.0
 10
106.218237
 20
56.361861
 30
0.0
 10
106.457100
 20
56.286974
 30
0.0
 10
106.635280
 20
56.137200
 30
0.0
  0
SPLINE
  5
192
100
AcDbEntity
  8
TEXT
 62
7
100
AcDbSpline
 70
8
 71
3
 72
8
 73
4
 74
0
 40
0
 40
0
 40
0
 40
0
 40
1
 40
1
 40
1
 40
1
 10
106.635280
 20
56.137200
 30
0.0
 10
106.813460
 20
55.987426
 30
0.0
 10
106.902550
 20
55.787297
 30
0.0
 10
106.902550
 20
55.536812
 30
0.0
  0
SPLINE
  5
193
100
AcDbEntity
  8
TEXT
 62
7
100
AcDbSpline
 70
8
 71
3
 72
8
 73
4
 74
0
 40
0
 40
0
 40
0
 40
0
 40
1
 40
1
 40
1
 40
1
 10
106.902550
 20
55.536812
 30
0.0
 10
106.902550
 20
55.418026
 30
0.0
 10
106.879950
 20
55.305050
 30
0.0
 10
106.834750
 20
55.197884
 30
0.0
  0
SPLINE
  5
194
100
AcDbEntity
  8
TEXT
 62
7
100
AcDbSpline
 70
8
 71
3
 72
8
 73
4
 74
0
 40
0
 40
0
 40
0
 40
0
 40
1
 40
1
 40
1
 40
1
 10
106.834750
 20
55.197884
 30
0.0
 10
106.790883
 20
55.092009
 30
0.0
 10
106.710187
 20
54.966767
 30
0.0
 10
106.592660
 20
54.822158
 30
0.0
  0
SPLINE
  5
195
100
AcDbEntity
  8
TEXT
 62
7
100
AcDbSpline
 70
8
 71
3
 72
8
 73
4
 74
0
 40
0
 40
0
 40
0
 40
0
 40
1
 40
1
 40
1
 40
1
 10
106.592660
 20
54.822158
 30
0.0
 10
106.560393
 20
54.784711
 30
0.0
 10
106.457747
 20
54.676254
 30
0.0
 10
106.284720
 20
54.496786
 30
0.0
  0
SPLINE
  5
196
100
AcDbEntity
  8
TEXT
 62
7
100
AcDbSpline
 70
8
 71
3
 72
8
 73
4
 74
0
 40
0
 40
0
 40
0
 40
0
 40
1
 40
1
 40
1
 40
1
 10
106.284720
 20
54.496786
 30
0.0
 10
106.111707
 20
54.318607
 30
0.0
 10
105.867677
 20
54.068768
 30
0.0
 10
105.552630
 20
53.747271
 30
0.0
  0
LWPOLYLINE
  5
197
100
AcDbEntity
  8
TEXT
 62
7
100
AcDbPolyline
 90
2
 70
0
 10
105.101380
 20
55.775030
 30
0.0
 10
105.101380
 20
56.170123
 30
0.0
  0
SPLINE
  5
198
100
AcDbEntity
  8
TEXT
 62
7
100
AcDbSpline
 70
8
 71
3
 72
8
 73
4
 74
0
 40
0
 40
0
 40
0
 40
0
 40
1
 40
1
 40
1
 40
1
 10
85.355460
 20
55.033261
 30
0.0
 10
85.542680
 20
54.993234
 30
0.0
 10
85.688580
 20
54.909955
 30
0.0
 10
85.793160
 20
54.783422
 30
0.0
  0
SPLINE
  5
199
100
AcDbEntity
  8
TEXT
 62
7
100
AcDbSpline
 70
8
 71
3
 72
8
 73
4
 74
0
 40
0
 40
0
 40
0
 40
0
 40
1
 40
1
 40
1
 40
1
 10
85.793160
 20
54.783422
 30
0.0
 10
85.899040
 20
54.656889
 30
0.0
 10
85.951980
 20
54.500659
 30
0.0
 10
85.951980
 20
54.314733
 30
0.0
  0
SPLINE
  5
19a
100
AcDbEntity
  8
TEXT
 62
7
100
AcDbSpline
 70
8
 71
3
 72
8
 73
4
 74
0
 40
0
 40
0
 40
0
 40
0
 40
1
 40
1
 40
1
 40
1
 10
85.951980
 20
54.314733
 30
0.0
 10
85.951980
 20
54.029388
 30
0.0
 10
85.853850
 20
53.808600
 30
0.0
 10
85.657590
 20
53.652370
 30
0.0
  0
SPLINE
  5
19b
100
AcDbEntity
  8
TEXT
 62
7
100
AcDbSpline
 70
8
 71
3
 72
8
 73
4
 74
0
 40
0
 40
0
 40
0
 40
0
 40
1
 40
1
 40
1
 40
1
 10
85.657590
 20
53.652370
 30
0.0
 10
85.461337
 20
53.496140
 30
0.0
 10
85.182447
 20
53.418025
 30
0.0
 10
84.820920
 20
53.418025
 30
0.0
  0
SPLINE
  5
19c
100
AcDbEntity
  8
TEXT
 62
7
100
AcDbSpline
 70
8
 71
3
 72
8
 73
4
 74
0
 40
0
 40
0
 40
0
 40
0
 40
1
 40
1
 40
1
 40
1
 10
84.820920
 20
53.418025
 30
0.0
 10
84.699553
 20
53.418025
 30
0.0
 10
84.574313
 20
53.430292
 30
0.0
 10
84.445200
 20
53.454825
 30
0.0
  0
SPLINE
  5
19d
100
AcDbEntity
  8
TEXT
 62
7
100
AcDbSpline
 70
8
 71
3
 72
8
 73
4
 74
0
 40
0
 40
0
 40
0
 40
0
 40
1
 40
1
 40
1
 40
1
 10
84.445200
 20
53.454825
 30
0.0
 10
84.317373
 20
53.478065
 30
0.0
 10
84.185030
 20
53.513572
 30
0.0
 10
84.048170
 20
53.561346
 30
0.0
  0
LWPOLYLINE
  5
19e
100
AcDbEntity
  8
TEXT
 62
7
100
AcDbPolyline
 90
1
 70
1
 10
105.552630
 20
53.747271
 30
0.0
  0
SPLINE
  5
19f
100
AcDbEntity
  8
TEXT
 62
7
100
AcDbSpline
 70
8
 71
3
 72
8
 73
4
 74
0
 40
0
 40
0
 40
0
 40
0
 40
1
 40
1
 40
1
 40
1
 10
84.048170
 20
53.939009
 30
0.0
 10
84.156623
 20
53.875742
 30
0.0
 10
84.275410
 20
53.827969
 30
0.0
 10
84.404530
 20
53.795690
 30
0.0
  0
SPLINE
  5
1a0
100
AcDbEntity
  8
TEXT
 62
7
100
AcDbSpline
 70
8
 71
3
 72
8
 73
4
 74
0
 40
0
 40
0
 40
0
 40
0
 40
1
 40
1
 40
1
 40
1
 10
84.404530
 20
53.795690
 30
0.0
 10
84.533643
 20
53.763410
 30
0.0
 10
84.668567
 20
53.747270
 30
0.0
 10
84.809300
 20
53.747270
 30
0.0
  0
SPLINE
  5
1a1
100
AcDbEntity
  8
TEXT
 62
7
100
AcDbSpline
 70
8
 71
3
 72
8
 73
4
 74
0
 40
0
 40
0
 40
0
 40
0
 40
1
 40
1
 40
1
 40
1
 10
84.809300
 20
53.747270
 30
0.0
 10
85.054620
 20
53.747270
 30
0.0
 10
85.241193
 20
53.795688
 30
0.0
 10
85.369020
 20
53.892525
 30
0.0
  0
SPLINE
  5
1a2
100
AcDbEntity
  8
TEXT
 62
7
100
AcDbSpline
 70
8
 71
3
 72
8
 73
4
 74
0
 40
0
 40
0
 40
0
 40
0
 40
1
 40
1
 40
1
 40
1
 10
85.369020
 20
53.892525
 30
0.0
 10
85.498133
 20
53.989362
 30
0.0
 10
85.562690
 20
54.130098
 30
0.0
 10
85.562690
 20
54.314733
 30
0.0
  0
SPLINE
  5
1a3
100
AcDbEntity
  8
TEXT
 62
7
100
AcDbSpline
 70
8
 71
3
 72
8
 73
4
 74
0
 40
0
 40
0
 40
0
 40
0
 40
1
 40
1
 40
1
 40
1
 10
85.562690
 20
54.314733
 30
0.0
 10
85.562690
 20
54.485166
 30
0.0
 10
85.502653
 20
54.618155
 30
0.0
 10
85.382580
 20
54.713700
 30
0.0
  0
SPLINE
  5
1a4
100
AcDbEntity
  8
TEXT
 62
7
100
AcDbSpline
 70
8
 71
3
 72
8
 73
4
 74
0
 40
0
 40
0
 40
0
 40
0
 40
1
 40
1
 40
1
 40
1
 10
85.382580
 20
54.713700
 30
0.0
 10
85.263793
 20
54.810537
 30
0.0
 10
85.097880
 20
54.858955
 30
0.0
 10
84.884840
 20
54.858955
 30
0.0
  0
LWPOLYLINE
  5
1a5
100
AcDbEntity
  8
TEXT
 62
7
100
AcDbPolyline
 90
2
 70
0
 10
84.048170
 20
53.561346
 30
0.0
 10
84.048170
 20
53.939009
 30
0.0
  0
SPLINE
  5
1a6
100
AcDbEntity
  8
TEXT
 62
7
100
AcDbSpline
 70
8
 71
3
 72
8
 73
4
 74
0
 40
0
 40
0
 40
0
 40
0
 40
1
 40
1
 40
1
 40
1
 10
84.900330
 20
55.180453
 30
0.0
 10
85.092710
 20
55.180453
 30
0.0
 10
85.239900
 20
55.218542
 30
0.0
 10
85.341900
 20
55.294720
 30
0.0
  0
SPLINE
  5
1a7
100
AcDbEntity
  8
TEXT
 62
7
100
AcDbSpline
 70
8
 71
3
 72
8
 73
4
 74
0
 40
0
 40
0
 40
0
 40
0
 40
1
 40
1
 40
1
 40
1
 10
85.341900
 20
55.294720
 30
0.0
 10
85.443907
 20
55.372189
 30
0.0
 10
85.494910
 20
55.483229
 30
0.0
 10
85.494910
 20
55.627838
 30
0.0
  0
SPLINE
  5
1a8
100
AcDbEntity
  8
TEXT
 62
7
100
AcDbSpline
 70
8
 71
3
 72
8
 73
4
 74
0
 40
0
 40
0
 40
0
 40
0
 40
1
 40
1
 40
1
 40
1
 10
85.494910
 20
55.627838
 30
0.0
 10
85.494910
 20
55.776321
 30
0.0
 10
85.441970
 20
55.889942
 30
0.0
 10
85.336090
 20
55.968703
 30
0.0
  0
SPLINE
  5
1a9
100
AcDbEntity
  8
TEXT
 62
7
100
AcDbSpline
 70
8
 71
3
 72
8
 73
4
 74
0
 40
0
 40
0
 40
0
 40
0
 40
1
 40
1
 40
1
 40
1
 10
85.336090
 20
55.968703
 30
0.0
 10
85.231510
 20
56.048755
 30
0.0
 10
85.081093
 20
56.088781
 30
0.0
 10
84.884840
 20
56.088781
 30
0.0
  0
SPLINE
  5
1aa
100
AcDbEntity
  8
TEXT
 62
7
100
AcDbSpline
 70
8
 71
3
 72
8
 73
4
 74
0
 40
0
 40
0
 40
0
 40
0
 40
1
 40
1
 40
1
 40
1
 10
84.884840
 20
56.088781
 30
0.0
 10
84.777673
 20
56.088781
 30
0.0
 10
84.662760
 20
56.077161
 30
0.0
 10
84.540100
 20
56.053921
 30
0.0
  0
SPLINE
  5
1ab
100
AcDbEntity
  8
TEXT
 62
7
100
AcDbSpline
 70
8
 71
3
 72
8
 73
4
 74
0
 40
0
 40
0
 40
0
 40
0
 40
1
 40
1
 40
1
 40
1
 10
84.540100
 20
56.053921
 30
0.0
 10
84.417440
 20
56.030681
 30
0.0
 10
84.282513
 20
55.994529
 30
0.0
 10
84.135320
 20
55.945464
 30
0.0
  0
LWPOLYLINE
  5
1ac
100
AcDbEntity
  8
TEXT
 62
7
100
AcDbPolyline
 90
4
 70
0
 10
84.884840
 20
54.858955
 30
0.0
 10
84.547840
 20
54.858955
 30
0.0
 10
84.547840
 20
55.180453
 30
0.0
 10
84.900330
 20
55.180453
 30
0.0
  0
SPLINE
  5
1ad
100
AcDbEntity
  8
TEXT
 62
7
100
AcDbSpline
 70
8
 71
3
 72
8
 73
4
 74
0
 40
0
 40
0
 40
0
 40
0
 40
1
 40
1
 40
1
 40
1
 10
84.135320
 20
56.294076
 30
0.0
 10
84.283800
 20
56.335396
 30
0.0
 10
84.422600
 20
56.366383
 30
0.0
 10
84.551720
 20
56.387036
 30
0.0
  0
SPLINE
  5
1ae
100
AcDbEntity
  8
TEXT
 62
7
100
AcDbSpline
 70
8
 71
3
 72
8
 73
4
 74
0
 40
0
 40
0
 40
0
 40
0
 40
1
 40
1
 40
1
 40
1
 10
84.551720
 20
56.387036
 30
0.0
 10
84.682127
 20
56.407696
 30
0.0
 10
84.804787
 20
56.418026
 30
0.0
 10
84.919700
 20
56.418026
 30
0.0
  0
SPLINE
  5
1af
100
AcDbEntity
  8
TEXT
 62
7
100
AcDbSpline
 70
8
 71
3
 72
8
 73
4
 74
0
 40
0
 40
0
 40
0
 40
0
 40
1
 40
1
 40
1
 40
1
 10
84.919700
 20
56.418026
 30
0.0
 10
85.216667
 20
56.418026
 30
0.0
 10
85.451657
 20
56.350240
 30
0.0
 10
85.624670
 20
56.214669
 30
0.0
  0
SPLINE
  5
1b0
100
AcDbEntity
  8
TEXT
 62
7
100
AcDbSpline
 70
8
 71
3
 72
8
 73
4
 74
0
 40
0
 40
0
 40
0
 40
0
 40
1
 40
1
 40
1
 40
1
 10
85.624670
 20
56.214669
 30
0.0
 10
85.797683
 20
56.080389
 30
0.0
 10
85.884190
 20
55.898336
 30
0.0
 10
85.884190
 20
55.668511
 30
0.0
  0
SPLINE
  5
1b1
100
AcDbEntity
  8
TEXT
 62
7
100
AcDbSpline
 70
8
 71
3
 72
8
 73
4
 74
0
 40
0
 40
0
 40
0
 40
0
 40
1
 40
1
 40
1
 40
1
 10
85.884190
 20
55.668511
 30
0.0
 10
85.884190
 20
55.508408
 30
0.0
 10
85.838353
 20
55.372836
 30
0.0
 10
85.746680
 20
55.261796
 30
0.0
  0
SPLINE
  5
1b2
100
AcDbEntity
  8
TEXT
 62
7
100
AcDbSpline
 70
8
 71
3
 72
8
 73
4
 74
0
 40
0
 40
0
 40
0
 40
0
 40
1
 40
1
 40
1
 40
1
 10
85.746680
 20
55.261796
 30
0.0
 10
85.655007
 20
55.152048
 30
0.0
 10
85.524600
 20
55.075870
 30
0.0
 10
85.355460
 20
55.033261
 30
0.0
  0
LWPOLYLINE
  5
1b3
100
AcDbEntity
  8
TEXT
 62
7
100
AcDbPolyline
 90
2
 70
0
 10
84.135320
 20
55.945464
 30
0.0
 10
84.135320
 20
56.294076
 30
0.0
  0
LWPOLYLINE
  5
1b4
100
AcDbEntity
  8
TEXT
 62
7
100
AcDbPolyline
 90
1
 70
1
 10
85.355460
 20
55.033261
 30
0.0
  0
LWPOLYLINE
  5
1b5
100
AcDbEntity
  8
TEXT
 62
7
100
AcDbPolyline
 90
4
 70
1
 10
64.320690
 20
56.309566
 30
0.0
 10
64.711910
 20
56.309566
 30
0.0
 10
64.711910
 20
53.418023
 30
0.0
 10
64.320690
 20
53.418023
 30
0.0
  0
LWPOLYLINE
  5
1b6
100
AcDbEntity
  8
TEXT
 62
7
100
AcDbPolyline
 90
10
 70
1
 10
65.490480
 20
56.309566
 30
0.0
 10
66.017270
 20
56.309566
 30
0.0
 10
67.299390
 20
53.890586
 30
0.0
 10
67.299390
 20
56.309566
 30
0.0
 10
67.678990
 20
56.309566
 30
0.0
 10
67.678990
 20
53.418023
 30
0.0
 10
67.152190
 20
53.418023
 30
0.0
 10
65.870080
 20
55.837003
 30
0.0
 10
65.870080
 20
53.418023
 30
0.0
 10
65.490480
 20
53.418023
 30
0.0
  0
SPLINE
  5
1b7
100
AcDbEntity
  8
TEXT
 62
7
100
AcDbSpline
 70
8
 71
3
 72
8
 73
4
 74
0
 40
0
 40
0
 40
0
 40
0
 40
1
 40
1
 40
1
 40
1
 10
44.679509
 20
55.730485
 30
0.0
 10
44.547811
 20
55.853145
 30
0.0
 10
44.407075
 20
55.944817
 30
0.0
 10
44.257301
 20
56.005501
 30
0.0
  0
SPLINE
  5
1b8
100
AcDbEntity
  8
TEXT
 62
7
100
AcDbSpline
 70
8
 71
3
 72
8
 73
4
 74
0
 40
0
 40
0
 40
0
 40
0
 40
1
 40
1
 40
1
 40
1
 10
44.257301
 20
56.005501
 30
0.0
 10
44.108818
 20
56.066188
 30
0.0
 10
43.950652
 20
56.096531
 30
0.0
 10
43.782801
 20
56.096531
 30
0.0
  0
SPLINE
  5
1b9
100
AcDbEntity
  8
TEXT
 62
7
100
AcDbSpline
 70
8
 71
3
 72
8
 73
4
 74
0
 40
0
 40
0
 40
0
 40
0
 40
1
 40
1
 40
1
 40
1
 10
43.782801
 20
56.096531
 30
0.0
 10
43.452265
 20
56.096531
 30
0.0
 10
43.199199
 20
55.995175
 30
0.0
 10
43.023602
 20
55.792463
 30
0.0
  0
SPLINE
  5
1ba
100
AcDbEntity
  8
TEXT
 62
7
100
AcDbSpline
 70
8
 71
3
 72
8
 73
4
 74
0
 40
0
 40
0
 40
0
 40
0
 40
1
 40
1
 40
1
 40
1
 10
43.023602
 20
55.792463
 30
0.0
 10
42.848005
 20
55.591043
 30
0.0
 10
42.760206
 20
55.299242
 30
0.0
 10
42.760206
 20
54.917060
 30
0.0
  0
SPLINE
  5
1bb
100
AcDbEntity
  8
TEXT
 62
7
100
AcDbSpline
 70
8
 71
3
 72
8
 73
4
 74
0
 40
0
 40
0
 40
0
 40
0
 40
1
 40
1
 40
1
 40
1
 10
42.760206
 20
54.917060
 30
0.0
 10
42.760206
 20
54.536169
 30
0.0
 10
42.848005
 20
54.244368
 30
0.0
 10
43.023602
 20
54.041656
 30
0.0
  0
SPLINE
  5
1bc
100
AcDbEntity
  8
TEXT
 62
7
100
AcDbSpline
 70
8
 71
3
 72
8
 73
4
 74
0
 40
0
 40
0
 40
0
 40
0
 40
1
 40
1
 40
1
 40
1
 10
43.023602
 20
54.041656
 30
0.0
 10
43.199199
 20
53.840236
 30
0.0
 10
43.452265
 20
53.739526
 30
0.0
 10
43.782801
 20
53.739526
 30
0.0
  0
SPLINE
  5
1bd
100
AcDbEntity
  8
TEXT
 62
7
100
AcDbSpline
 70
8
 71
3
 72
8
 73
4
 74
0
 40
0
 40
0
 40
0
 40
0
 40
1
 40
1
 40
1
 40
1
 10
43.782801
 20
53.739526
 30
0.0
 10
43.950652
 20
53.739526
 30
0.0
 10
44.108818
 20
53.769869
 30
0.0
 10
44.257301
 20
53.830556
 30
0.0
  0
SPLINE
  5
1be
100
AcDbEntity
  8
TEXT
 62
7
100
AcDbSpline
 70
8
 71
3
 72
8
 73
4
 74
0
 40
0
 40
0
 40
0
 40
0
 40
1
 40
1
 40
1
 40
1
 10
44.257301
 20
53.830556
 30
0.0
 10
44.407075
 20
53.891243
 30
0.0
 10
44.547811
 20
53.982915
 30
0.0
 10
44.679509
 20
54.105572
 30
0.0
  0
LWPOLYLINE
  5
1bf
100
AcDbEntity
  8
TEXT
 62
7
100
AcDbPolyline
 90
2
 70
0
 10
44.679509
 20
56.143009
 30
0.0
 10
44.679509
 20
55.730485
 30
0.0
  0
SPLINE
  5
1c0
100
AcDbEntity
  8
TEXT
 62
7
100
AcDbSpline
 70
8
 71
3
 72
8
 73
4
 74
0
 40
0
 40
0
 40
0
 40
0
 40
1
 40
1
 40
1
 40
1
 10
44.679509
 20
53.696921
 30
0.0
 10
44.542646
 20
53.603958
 30
0.0
 10
44.397391
 20
53.534235
 30
0.0
 10
44.243744
 20
53.487754
 30
0.0
  0
SPLINE
  5
1c1
100
AcDbEntity
  8
TEXT
 62
7
100
AcDbSpline
 70
8
 71
3
 72
8
 73
4
 74
0
 40
0
 40
0
 40
0
 40
0
 40
1
 40
1
 40
1
 40
1
 10
44.243744
 20
53.487754
 30
0.0
 10
44.091387
 20
53.441274
 30
0.0
 10
43.929993
 20
53.418034
 30
0.0
 10
43.759560
 20
53.418034
 30
0.0
  0
SPLINE
  5
1c2
100
AcDbEntity
  8
TEXT
 62
7
100
AcDbSpline
 70
8
 71
3
 72
8
 73
4
 74
0
 40
0
 40
0
 40
0
 40
0
 40
1
 40
1
 40
1
 40
1
 10
43.759560
 20
53.418034
 30
0.0
 10
43.321859
 20
53.418034
 30
0.0
 10
42.977120
 20
53.551669
 30
0.0
 10
42.725345
 20
53.818938
 30
0.0
  0
SPLINE
  5
1c3
100
AcDbEntity
  8
TEXT
 62
7
100
AcDbSpline
 70
8
 71
3
 72
8
 73
4
 74
0
 40
0
 40
0
 40
0
 40
0
 40
1
 40
1
 40
1
 40
1
 10
42.725345
 20
53.818938
 30
0.0
 10
42.473570
 20
54.087499
 30
0.0
 10
42.347682
 20
54.453541
 30
0.0
 10
42.347682
 20
54.917066
 30
0.0
  0
SPLINE
  5
1c4
100
AcDbEntity
  8
TEXT
 62
7
100
AcDbSpline
 70
8
 71
3
 72
8
 73
4
 74
0
 40
0
 40
0
 40
0
 40
0
 40
1
 40
1
 40
1
 40
1
 10
42.347682
 20
54.917066
 30
0.0
 10
42.347682
 20
55.381882
 30
0.0
 10
42.473570
 20
55.747925
 30
0.0
 10
42.725345
 20
56.015194
 30
0.0
  0
SPLINE
  5
1c5
100
AcDbEntity
  8
TEXT
 62
7
100
AcDbSpline
 70
8
 71
3
 72
8
 73
4
 74
0
 40
0
 40
0
 40
0
 40
0
 40
1
 40
1
 40
1
 40
1
 10
42.725345
 20
56.015194
 30
0.0
 10
42.977120
 20
56.283754
 30
0.0
 10
43.321859
 20
56.418034
 30
0.0
 10
43.759560
 20
56.418034
 30
0.0
  0
SPLINE
  5
1c6
100
AcDbEntity
  8
TEXT
 62
7
100
AcDbSpline
 70
8
 71
3
 72
8
 73
4
 74
0
 40
0
 40
0
 40
0
 40
0
 40
1
 40
1
 40
1
 40
1
 10
43.759560
 20
56.418034
 30
0.0
 10
43.932575
 20
56.418034
 30
0.0
 10
44.095261
 20
56.394794
 30
0.0
 10
44.247617
 20
56.348314
 30
0.0
  0
SPLINE
  5
1c7
100
AcDbEntity
  8
TEXT
 62
7
100
AcDbSpline
 70
8
 71
3
 72
8
 73
4
 74
0
 40
0
 40
0
 40
0
 40
0
 40
1
 40
1
 40
1
 40
1
 10
44.247617
 20
56.348314
 30
0.0
 10
44.401264
 20
56.303121
 30
0.0
 10
44.545228
 20
56.234689
 30
0.0
 10
44.679509
 20
56.143020
 30
0.0
  0
LWPOLYLINE
  5
1c8
100
AcDbEntity
  8
TEXT
 62
7
100
AcDbPolyline
 90
2
 70
0
 10
44.679509
 20
54.105572
 30
0.0
 10
44.679509
 20
53.696921
 30
0.0
  0
LWPOLYLINE
  5
1c9
100
AcDbEntity
  8
TEXT
 62
7
100
AcDbPolyline
 90
1
 70
1
 10
44.679509
 20
56.143020
 30
0.0
  0
SPLINE
  5
1ca
100
AcDbEntity
  8
TEXT
 62
7
100
AcDbSpline
 70
8
 71
3
 72
8
 73
4
 74
0
 40
0
 40
0
 40
0
 40
0
 40
1
 40
1
 40
1
 40
1
 10
49.637550
 20
54.829904
 30
0.0
 10
49.721470
 20
54.801497
 30
0.0
 10
49.802810
 20
54.740813
 30
0.0
 10
49.881570
 20
54.647851
 30
0.0
  0
SPLINE
  5
1cb
100
AcDbEntity
  8
TEXT
 62
7
100
AcDbSpline
 70
8
 71
3
 72
8
 73
4
 74
0
 40
0
 40
0
 40
0
 40
0
 40
1
 40
1
 40
1
 40
1
 10
49.881570
 20
54.647851
 30
0.0
 10
49.961623
 20
54.554888
 30
0.0
 10
50.041677
 20
54.427063
 30
0.0
 10
50.121730
 20
54.264378
 30
0.0
  0
LWPOLYLINE
  5
1cc
100
AcDbEntity
  8
TEXT
 62
7
100
AcDbPolyline
 90
12
 70
1
 10
45.283769
 20
56.365734
 30
0.0
 10
45.674990
 20
56.365734
 30
0.0
 10
45.674990
 20
55.180453
 30
0.0
 10
47.096550
 20
55.180453
 30
0.0
 10
47.096550
 20
56.365734
 30
0.0
 10
47.487770
 20
56.365734
 30
0.0
 10
47.487770
 20
53.474191
 30
0.0
 10
47.096550
 20
53.474191
 30
0.0
 10
47.096550
 20
54.851208
 30
0.0
 10
45.674990
 20
54.851208
 30
0.0
 10
45.674990
 20
53.474191
 30
0.0
 10
45.283769
 20
53.474191
 30
0.0
  0
SPLINE
  5
1cd
100
AcDbEntity
  8
TEXT
 62
7
100
AcDbSpline
 70
8
 71
3
 72
8
 73
4
 74
0
 40
0
 40
0
 40
0
 40
0
 40
1
 40
1
 40
1
 40
1
 10
49.728570
 20
54.215959
 30
0.0
 10
49.633023
 20
54.409632
 30
0.0
 10
49.540060
 20
54.538102
 30
0.0
 10
49.449680
 20
54.601369
 30
0.0
  0
SPLINE
  5
1ce
100
AcDbEntity
  8
TEXT
 62
7
100
AcDbSpline
 70
8
 71
3
 72
8
 73
4
 74
0
 40
0
 40
0
 40
0
 40
0
 40
1
 40
1
 40
1
 40
1
 10
49.449680
 20
54.601369
 30
0.0
 10
49.360593
 20
54.664636
 30
0.0
 10
49.238580
 20
54.696269
 30
0.0
 10
49.083640
 20
54.696269
 30
0.0
  0
LWPOLYLINE
  5
1cf
100
AcDbEntity
  8
TEXT
 62
7
100
AcDbPolyline
 90
4
 70
0
 10
50.121730
 20
54.264378
 30
0.0
 10
50.518760
 20
53.474191
 30
0.0
 10
50.098490
 20
53.474191
 30
0.0
 10
49.728570
 20
54.215959
 30
0.0
  0
SPLINE
  5
1d0
100
AcDbEntity
  8
TEXT
 62
7
100
AcDbSpline
 70
8
 71
3
 72
8
 73
4
 74
0
 40
0
 40
0
 40
0
 40
0
 40
1
 40
1
 40
1
 40
1
 10
49.149490
 20
56.365734
 30
0.0
 10
49.480023
 20
56.365734
 30
0.0
 10
49.726633
 20
56.296657
 30
0.0
 10
49.889320
 20
56.158503
 30
0.0
  0
SPLINE
  5
1d1
100
AcDbEntity
  8
TEXT
 62
7
100
AcDbSpline
 70
8
 71
3
 72
8
 73
4
 74
0
 40
0
 40
0
 40
0
 40
0
 40
1
 40
1
 40
1
 40
1
 10
49.889320
 20
56.158503
 30
0.0
 10
50.052007
 20
56.020350
 30
0.0
 10
50.133350
 20
55.811828
 30
0.0
 10
50.133350
 20
55.532938
 30
0.0
  0
SPLINE
  5
1d2
100
AcDbEntity
  8
TEXT
 62
7
100
AcDbSpline
 70
8
 71
3
 72
8
 73
4
 74
0
 40
0
 40
0
 40
0
 40
0
 40
1
 40
1
 40
1
 40
1
 10
50.133350
 20
55.532938
 30
0.0
 10
50.133350
 20
55.350885
 30
0.0
 10
50.090743
 20
55.199820
 30
0.0
 10
50.005530
 20
55.079743
 30
0.0
  0
SPLINE
  5
1d3
100
AcDbEntity
  8
TEXT
 62
7
100
AcDbSpline
 70
8
 71
3
 72
8
 73
4
 74
0
 40
0
 40
0
 40
0
 40
0
 40
1
 40
1
 40
1
 40
1
 10
50.005530
 20
55.079743
 30
0.0
 10
49.921603
 20
54.959665
 30
0.0
 10
49.798943
 20
54.876385
 30
0.0
 10
49.637550
 20
54.829904
 30
0.0
  0
LWPOLYLINE
  5
1d4
100
AcDbEntity
  8
TEXT
 62
7
100
AcDbPolyline
 90
6
 70
0
 10
49.083640
 20
54.696269
 30
0.0
 10
48.657560
 20
54.696269
 30
0.0
 10
48.657560
 20
53.474191
 30
0.0
 10
48.266340
 20
53.474191
 30
0.0
 10
48.266340
 20
56.365734
 30
0.0
 10
49.149490
 20
56.365734
 30
0.0
  0
LWPOLYLINE
  5
1d5
100
AcDbEntity
  8
TEXT
 62
7
100
AcDbPolyline
 90
1
 70
1
 10
49.637550
 20
54.829904
 30
0.0
  0
SPLINE
  5
1d6
100
AcDbEntity
  8
TEXT
 62
7
100
AcDbSpline
 70
8
 71
3
 72
8
 73
4
 74
0
 40
0
 40
0
 40
0
 40
0
 40
1
 40
1
 40
1
 40
1
 10
49.149490
 20
55.017767
 30
0.0
 10
49.337997
 20
55.017767
 30
0.0
 10
49.480023
 20
55.061021
 30
0.0
 10
49.575570
 20
55.147528
 30
0.0
  0
SPLINE
  5
1d7
100
AcDbEntity
  8
TEXT
 62
7
100
AcDbSpline
 70
8
 71
3
 72
8
 73
4
 74
0
 40
0
 40
0
 40
0
 40
0
 40
1
 40
1
 40
1
 40
1
 10
49.575570
 20
55.147528
 30
0.0
 10
49.672410
 20
55.235327
 30
0.0
 10
49.720830
 20
55.363797
 30
0.0
 10
49.720830
 20
55.532938
 30
0.0
  0
SPLINE
  5
1d8
100
AcDbEntity
  8
TEXT
 62
7
100
AcDbSpline
 70
8
 71
3
 72
8
 73
4
 74
0
 40
0
 40
0
 40
0
 40
0
 40
1
 40
1
 40
1
 40
1
 10
49.720830
 20
55.532938
 30
0.0
 10
49.720830
 20
55.702079
 30
0.0
 10
49.672410
 20
55.829258
 30
0.0
 10
49.575570
 20
55.914475
 30
0.0
  0
SPLINE
  5
1d9
100
AcDbEntity
  8
TEXT
 62
7
100
AcDbSpline
 70
8
 71
3
 72
8
 73
4
 74
0
 40
0
 40
0
 40
0
 40
0
 40
1
 40
1
 40
1
 40
1
 10
49.575570
 20
55.914475
 30
0.0
 10
49.480023
 20
56.000982
 30
0.0
 10
49.337997
 20
56.044236
 30
0.0
 10
49.149490
 20
56.044236
 30
0.0
  0
LWPOLYLINE
  5
1da
100
AcDbEntity
  8
TEXT
 62
7
100
AcDbPolyline
 90
3
 70
0
 10
48.657560
 20
56.044236
 30
0.0
 10
48.657560
 20
55.017767
 30
0.0
 10
49.149490
 20
55.017767
 30
0.0
  0
LWPOLYLINE
  5
1db
100
AcDbEntity
  8
TEXT
 62
7
100
AcDbPolyline
 90
2
 70
0
 10
49.149490
 20
56.044236
 30
0.0
 10
48.657560
 20
56.044236
 30
0.0
  0
SPLINE
  5
1dc
100
AcDbEntity
  8
TEXT
 62
7
100
AcDbSpline
 70
8
 71
3
 72
8
 73
4
 74
0
 40
0
 40
0
 40
0
 40
0
 40
1
 40
1
 40
1
 40
1
 10
53.381250
 20
53.743397
 30
0.0
 10
53.230183
 20
53.636231
 30
0.0
 10
53.063623
 20
53.554888
 30
0.0
 10
52.881570
 20
53.499368
 30
0.0
  0
SPLINE
  5
1dd
100
AcDbEntity
  8
TEXT
 62
7
100
AcDbSpline
 70
8
 71
3
 72
8
 73
4
 74
0
 40
0
 40
0
 40
0
 40
0
 40
1
 40
1
 40
1
 40
1
 10
52.881570
 20
53.499368
 30
0.0
 10
52.699523
 20
53.445141
 30
0.0
 10
52.505207
 20
53.418028
 30
0.0
 10
52.298620
 20
53.418028
 30
0.0
  0
SPLINE
  5
1de
100
AcDbEntity
  8
TEXT
 62
7
100
AcDbSpline
 70
8
 71
3
 72
8
 73
4
 74
0
 40
0
 40
0
 40
0
 40
0
 40
1
 40
1
 40
1
 40
1
 10
52.298620
 20
53.418028
 30
0.0
 10
51.846713
 20
53.418028
 30
0.0
 10
51.492937
 20
53.549726
 30
0.0
 10
51.237290
 20
53.813122
 30
0.0
  0
SPLINE
  5
1df
100
AcDbEntity
  8
TEXT
 62
7
100
AcDbSpline
 70
8
 71
3
 72
8
 73
4
 74
0
 40
0
 40
0
 40
0
 40
0
 40
1
 40
1
 40
1
 40
1
 10
51.237290
 20
53.813122
 30
0.0
 10
50.982930
 20
54.077809
 30
0.0
 10
50.855750
 20
54.445788
 30
0.0
 10
50.855750
 20
54.917060
 30
0.0
  0
SPLINE
  5
1e0
100
AcDbEntity
  8
TEXT
 62
7
100
AcDbSpline
 70
8
 71
3
 72
8
 73
4
 74
0
 40
0
 40
0
 40
0
 40
0
 40
1
 40
1
 40
1
 40
1
 10
50.855750
 20
54.917060
 30
0.0
 10
50.855750
 20
55.389623
 30
0.0
 10
50.982930
 20
55.757602
 30
0.0
 10
51.237290
 20
56.020998
 30
0.0
  0
SPLINE
  5
1e1
100
AcDbEntity
  8
TEXT
 62
7
100
AcDbSpline
 70
8
 71
3
 72
8
 73
4
 74
0
 40
0
 40
0
 40
0
 40
0
 40
1
 40
1
 40
1
 40
1
 10
51.237290
 20
56.020998
 30
0.0
 10
51.492937
 20
56.285685
 30
0.0
 10
51.846713
 20
56.418028
 30
0.0
 10
52.298620
 20
56.418028
 30
0.0
  0
SPLINE
  5
1e2
100
AcDbEntity
  8
TEXT
 62
7
100
AcDbSpline
 70
8
 71
3
 72
8
 73
4
 74
0
 40
0
 40
0
 40
0
 40
0
 40
1
 40
1
 40
1
 40
1
 10
52.298620
 20
56.418028
 30
0.0
 10
52.487127
 20
56.418028
 30
0.0
 10
52.665950
 20
56.394788
 30
0.0
 10
52.835090
 20
56.348308
 30
0.0
  0
SPLINE
  5
1e3
100
AcDbEntity
  8
TEXT
 62
7
100
AcDbSpline
 70
8
 71
3
 72
8
 73
4
 74
0
 40
0
 40
0
 40
0
 40
0
 40
1
 40
1
 40
1
 40
1
 10
52.835090
 20
56.348308
 30
0.0
 10
53.005523
 20
56.301828
 30
0.0
 10
53.162400
 20
56.233397
 30
0.0
 10
53.305720
 20
56.143014
 30
0.0
  0
LWPOLYLINE
  5
1e4
100
AcDbEntity
  8
TEXT
 62
7
100
AcDbPolyline
 90
6
 70
0
 10
52.993910
 20
53.886715
 30
0.0
 10
52.993910
 20
54.663345
 30
0.0
 10
52.354780
 20
54.663345
 30
0.0
 10
52.354780
 20
54.984843
 30
0.0
 10
53.381250
 20
54.984843
 30
0.0
 10
53.381250
 20
53.743397
 30
0.0
  0
SPLINE
  5
1e5
100
AcDbEntity
  8
TEXT
 62
7
100
AcDbSpline
 70
8
 71
3
 72
8
 73
4
 74
0
 40
0
 40
0
 40
0
 40
0
 40
1
 40
1
 40
1
 40
1
 10
53.305720
 20
55.726617
 30
0.0
 10
53.161113
 20
55.849276
 30
0.0
 10
53.007467
 20
55.941594
 30
0.0
 10
52.844780
 20
56.003569
 30
0.0
  0
SPLINE
  5
1e6
100
AcDbEntity
  8
TEXT
 62
7
100
AcDbSpline
 70
8
 71
3
 72
8
 73
4
 74
0
 40
0
 40
0
 40
0
 40
0
 40
1
 40
1
 40
1
 40
1
 10
52.844780
 20
56.003569
 30
0.0
 10
52.682093
 20
56.065542
 30
0.0
 10
52.511013
 20
56.096529
 30
0.0
 10
52.331540
 20
56.096529
 30
0.0
  0
SPLINE
  5
1e7
100
AcDbEntity
  8
TEXT
 62
7
100
AcDbSpline
 70
8
 71
3
 72
8
 73
4
 74
0
 40
0
 40
0
 40
0
 40
0
 40
1
 40
1
 40
1
 40
1
 10
52.331540
 20
56.096529
 30
0.0
 10
51.977767
 20
56.096529
 30
0.0
 10
51.711790
 20
55.997755
 30
0.0
 10
51.533610
 20
55.800208
 30
0.0
  0
SPLINE
  5
1e8
100
AcDbEntity
  8
TEXT
 62
7
100
AcDbSpline
 70
8
 71
3
 72
8
 73
4
 74
0
 40
0
 40
0
 40
0
 40
0
 40
1
 40
1
 40
1
 40
1
 10
51.533610
 20
55.800208
 30
0.0
 10
51.356723
 20
55.602661
 30
0.0
 10
51.268280
 20
55.308278
 30
0.0
 10
51.268280
 20
54.917058
 30
0.0
  0
SPLINE
  5
1e9
100
AcDbEntity
  8
TEXT
 62
7
100
AcDbSpline
 70
8
 71
3
 72
8
 73
4
 74
0
 40
0
 40
0
 40
0
 40
0
 40
1
 40
1
 40
1
 40
1
 10
51.268280
 20
54.917058
 30
0.0
 10
51.268280
 20
54.527129
 30
0.0
 10
51.356723
 20
54.233391
 30
0.0
 10
51.533610
 20
54.035844
 30
0.0
  0
SPLINE
  5
1ea
100
AcDbEntity
  8
TEXT
 62
7
100
AcDbSpline
 70
8
 71
3
 72
8
 73
4
 74
0
 40
0
 40
0
 40
0
 40
0
 40
1
 40
1
 40
1
 40
1
 10
51.533610
 20
54.035844
 30
0.0
 10
51.711790
 20
53.838297
 30
0.0
 10
51.977767
 20
53.739524
 30
0.0
 10
52.331540
 20
53.739524
 30
0.0
  0
SPLINE
  5
1eb
100
AcDbEntity
  8
TEXT
 62
7
100
AcDbSpline
 70
8
 71
3
 72
8
 73
4
 74
0
 40
0
 40
0
 40
0
 40
0
 40
1
 40
1
 40
1
 40
1
 10
52.331540
 20
53.739524
 30
0.0
 10
52.469693
 20
53.739524
 30
0.0
 10
52.593000
 20
53.751144
 30
0.0
 10
52.701460
 20
53.774384
 30
0.0
  0
SPLINE
  5
1ec
100
AcDbEntity
  8
TEXT
 62
7
100
AcDbSpline
 70
8
 71
3
 72
8
 73
4
 74
0
 40
0
 40
0
 40
0
 40
0
 40
1
 40
1
 40
1
 40
1
 10
52.701460
 20
53.774384
 30
0.0
 10
52.809913
 20
53.798917
 30
0.0
 10
52.907397
 20
53.836361
 30
0.0
 10
52.993910
 20
53.886715
 30
0.0
  0
LWPOLYLINE
  5
1ed
100
AcDbEntity
  8
TEXT
 62
7
100
AcDbPolyline
 90
2
 70
0
 10
53.305720
 20
56.143014
 30
0.0
 10
53.305720
 20
55.726617
 30
0.0
  0
LWPOLYLINE
  5
1ee
100
AcDbEntity
  8
TEXT
 62
7
100
AcDbPolyline
 90
1
 70
1
 10
52.993910
 20
53.886715
 30
0.0
  0
SPLINE
  5
1ef
100
AcDbEntity
  8
TEXT
 62
7
100
AcDbSpline
 70
8
 71
3
 72
8
 73
4
 74
0
 40
0
 40
0
 40
0
 40
0
 40
1
 40
1
 40
1
 40
1
 10
29.031037
 20
55.327644
 30
0.0
 10
29.087850
 20
55.347011
 30
0.0
 10
29.144661
 20
55.361214
 30
0.0
 10
29.201470
 20
55.370254
 30
0.0
  0
SPLINE
  5
1f0
100
AcDbEntity
  8
TEXT
 62
7
100
AcDbSpline
 70
8
 71
3
 72
8
 73
4
 74
0
 40
0
 40
0
 40
0
 40
0
 40
1
 40
1
 40
1
 40
1
 10
29.201470
 20
55.370254
 30
0.0
 10
29.258283
 20
55.380581
 30
0.0
 10
29.315094
 20
55.385744
 30
0.0
 10
29.371903
 20
55.385744
 30
0.0
  0
SPLINE
  5
1f1
100
AcDbEntity
  8
TEXT
 62
7
100
AcDbSpline
 70
8
 71
3
 72
8
 73
4
 74
0
 40
0
 40
0
 40
0
 40
0
 40
1
 40
1
 40
1
 40
1
 10
29.371903
 20
55.385744
 30
0.0
 10
29.694692
 20
55.385744
 30
0.0
 10
29.950340
 20
55.297300
 30
0.0
 10
30.138849
 20
55.120412
 30
0.0
  0
SPLINE
  5
1f2
100
AcDbEntity
  8
TEXT
 62
7
100
AcDbSpline
 70
8
 71
3
 72
8
 73
4
 74
0
 40
0
 40
0
 40
0
 40
0
 40
1
 40
1
 40
1
 40
1
 10
30.138849
 20
55.120412
 30
0.0
 10
30.327358
 20
54.943523
 30
0.0
 10
30.421612
 20
54.704014
 30
0.0
 10
30.421612
 20
54.401884
 30
0.0
  0
SPLINE
  5
1f3
100
AcDbEntity
  8
TEXT
 62
7
100
AcDbSpline
 70
8
 71
3
 72
8
 73
4
 74
0
 40
0
 40
0
 40
0
 40
0
 40
1
 40
1
 40
1
 40
1
 10
30.421612
 20
54.401884
 30
0.0
 10
30.421612
 20
54.090715
 30
0.0
 10
30.324775
 20
53.848624
 30
0.0
 10
30.131102
 20
53.675609
 30
0.0
  0
SPLINE
  5
1f4
100
AcDbEntity
  8
TEXT
 62
7
100
AcDbSpline
 70
8
 71
3
 72
8
 73
4
 74
0
 40
0
 40
0
 40
0
 40
0
 40
1
 40
1
 40
1
 40
1
 10
30.131102
 20
53.675609
 30
0.0
 10
29.937429
 20
53.503885
 30
0.0
 10
29.664349
 20
53.418023
 30
0.0
 10
29.311864
 20
53.418023
 30
0.0
  0
SPLINE
  5
1f5
100
AcDbEntity
  8
TEXT
 62
7
100
AcDbSpline
 70
8
 71
3
 72
8
 73
4
 74
0
 40
0
 40
0
 40
0
 40
0
 40
1
 40
1
 40
1
 40
1
 10
29.311864
 20
53.418023
 30
0.0
 10
29.190495
 20
53.418023
 30
0.0
 10
29.066544
 20
53.428353
 30
0.0
 10
28.940011
 20
53.449013
 30
0.0
  0
SPLINE
  5
1f6
100
AcDbEntity
  8
TEXT
 62
7
100
AcDbSpline
 70
8
 71
3
 72
8
 73
4
 74
0
 40
0
 40
0
 40
0
 40
0
 40
1
 40
1
 40
1
 40
1
 10
28.940011
 20
53.449013
 30
0.0
 10
28.814769
 20
53.469673
 30
0.0
 10
28.685008
 20
53.500660
 30
0.0
 10
28.550728
 20
53.541973
 30
0.0
  0
LWPOLYLINE
  5
1f7
100
AcDbEntity
  8
TEXT
 62
7
100
AcDbPolyline
 90
5
 70
0
 10
28.672742
 20
56.365734
 30
0.0
 10
30.208571
 20
56.365734
 30
0.0
 10
30.208571
 20
56.036489
 30
0.0
 10
29.031037
 20
56.036489
 30
0.0
 10
29.031037
 20
55.327644
 30
0.0
  0
SPLINE
  5
1f8
100
AcDbEntity
  8
TEXT
 62
7
100
AcDbSpline
 70
8
 71
3
 72
8
 73
4
 74
0
 40
0
 40
0
 40
0
 40
0
 40
1
 40
1
 40
1
 40
1
 10
28.550728
 20
53.935130
 30
0.0
 10
28.666932
 20
53.871863
 30
0.0
 10
28.787009
 20
53.824736
 30
0.0
 10
28.910960
 20
53.793749
 30
0.0
  0
SPLINE
  5
1f9
100
AcDbEntity
  8
TEXT
 62
7
100
AcDbSpline
 70
8
 71
3
 72
8
 73
4
 74
0
 40
0
 40
0
 40
0
 40
0
 40
1
 40
1
 40
1
 40
1
 10
28.910960
 20
53.793749
 30
0.0
 10
29.034911
 20
53.762762
 30
0.0
 10
29.165963
 20
53.747269
 30
0.0
 10
29.304117
 20
53.747269
 30
0.0
  0
SPLINE
  5
1fa
100
AcDbEntity
  8
TEXT
 62
7
100
AcDbSpline
 70
8
 71
3
 72
8
 73
4
 74
0
 40
0
 40
0
 40
0
 40
0
 40
1
 40
1
 40
1
 40
1
 10
29.304117
 20
53.747269
 30
0.0
 10
29.527487
 20
53.747269
 30
0.0
 10
29.704375
 20
53.806017
 30
0.0
 10
29.834782
 20
53.923512
 30
0.0
  0
SPLINE
  5
1fb
100
AcDbEntity
  8
TEXT
 62
7
100
AcDbSpline
 70
8
 71
3
 72
8
 73
4
 74
0
 40
0
 40
0
 40
0
 40
0
 40
1
 40
1
 40
1
 40
1
 10
29.834782
 20
53.923512
 30
0.0
 10
29.965189
 20
54.041007
 30
0.0
 10
30.030392
 20
54.200464
 30
0.0
 10
30.030392
 20
54.401885
 30
0.0
  0
SPLINE
  5
1fc
100
AcDbEntity
  8
TEXT
 62
7
100
AcDbSpline
 70
8
 71
3
 72
8
 73
4
 74
0
 40
0
 40
0
 40
0
 40
0
 40
1
 40
1
 40
1
 40
1
 10
30.030392
 20
54.401885
 30
0.0
 10
30.030392
 20
54.603305
 30
0.0
 10
29.965189
 20
54.762763
 30
0.0
 10
29.834782
 20
54.880258
 30
0.0
  0
SPLINE
  5
1fd
100
AcDbEntity
  8
TEXT
 62
7
100
AcDbSpline
 70
8
 71
3
 72
8
 73
4
 74
0
 40
0
 40
0
 40
0
 40
0
 40
1
 40
1
 40
1
 40
1
 10
29.834782
 20
54.880258
 30
0.0
 10
29.704375
 20
54.997753
 30
0.0
 10
29.527487
 20
55.056501
 30
0.0
 10
29.304117
 20
55.056501
 30
0.0
  0
SPLINE
  5
1fe
100
AcDbEntity
  8
TEXT
 62
7
100
AcDbSpline
 70
8
 71
3
 72
8
 73
4
 74
0
 40
0
 40
0
 40
0
 40
0
 40
1
 40
1
 40
1
 40
1
 10
29.304117
 20
55.056501
 30
0.0
 10
29.199533
 20
55.056501
 30
0.0
 10
29.094949
 20
55.044881
 30
0.0
 10
28.990366
 20
55.021641
 30
0.0
  0
SPLINE
  5
1ff
100
AcDbEntity
  8
TEXT
 62
7
100
AcDbSpline
 70
8
 71
3
 72
8
 73
4
 74
0
 40
0
 40
0
 40
0
 40
0
 40
1
 40
1
 40
1
 40
1
 10
28.990366
 20
55.021641
 30
0.0
 10
28.887073
 20
54.998401
 30
0.0
 10
28.781199
 20
54.962248
 30
0.0
 10
28.672742
 20
54.913183
 30
0.0
  0
LWPOLYLINE
  5
200
100
AcDbEntity
  8
TEXT
 62
7
100
AcDbPolyline
 90
2
 70
0
 10
28.550728
 20
53.541973
 30
0.0
 10
28.550728
 20
53.935130
 30
0.0
  0
LWPOLYLINE
  5
201
100
AcDbEntity
  8
TEXT
 62
7
100
AcDbPolyline
 90
2
 70
0
 10
28.672742
 20
54.913183
 30
0.0
 10
28.672742
 20
56.365734
 30
0.0
  0
LWPOLYLINE
  5
202
100
AcDbEntity
  8
TEXT
 62
7
100
AcDbPolyline
 90
7
 70
1
 10
31.903213
 20
53.474191
 30
0.0
 10
30.799275
 20
56.365734
 30
0.0
 10
31.207926
 20
56.365734
 30
0.0
 10
32.124001
 20
53.931260
 30
0.0
 10
33.042012
 20
56.365734
 30
0.0
 10
33.448726
 20
56.365734
 30
0.0
 10
32.346725
 20
53.474191
 30
0.0
  0
LWPOLYLINE
  5
203
100
AcDbEntity
  8
TEXT
 62
7
100
AcDbPolyline
 90
11
 70
1
 10
13.090147
 20
53.747268
 30
0.0
 10
13.729269
 20
53.747268
 30
0.0
 10
13.729269
 20
55.953207
 30
0.0
 10
13.033981
 20
55.813762
 30
0.0
 10
13.033981
 20
56.170121
 30
0.0
 10
13.725395
 20
56.309566
 30
0.0
 10
14.116615
 20
56.309566
 30
0.0
 10
14.116615
 20
53.747268
 30
0.0
 10
14.755737
 20
53.747268
 30
0.0
 10
14.755737
 20
53.418023
 30
0.0
 10
13.090147
 20
53.418023
 30
0.0
  0
SPLINE
  5
204
100
AcDbEntity
  8
TEXT
 62
7
100
AcDbSpline
 70
8
 71
3
 72
8
 73
4
 74
0
 40
0
 40
0
 40
0
 40
0
 40
1
 40
1
 40
1
 40
1
 10
15.412290
 20
53.747268
 30
0.0
 10
15.560773
 20
53.900915
 30
0.0
 10
15.762839
 20
54.106855
 30
0.0
 10
16.018488
 20
54.365086
 30
0.0
  0
SPLINE
  5
205
100
AcDbEntity
  8
TEXT
 62
7
100
AcDbSpline
 70
8
 71
3
 72
8
 73
4
 74
0
 40
0
 40
0
 40
0
 40
0
 40
1
 40
1
 40
1
 40
1
 10
16.018488
 20
54.365086
 30
0.0
 10
16.275428
 20
54.624608
 30
0.0
 10
16.436822
 20
54.791813
 30
0.0
 10
16.502671
 20
54.866700
 30
0.0
  0
SPLINE
  5
206
100
AcDbEntity
  8
TEXT
 62
7
100
AcDbSpline
 70
8
 71
3
 72
8
 73
4
 74
0
 40
0
 40
0
 40
0
 40
0
 40
1
 40
1
 40
1
 40
1
 10
16.502671
 20
54.866700
 30
0.0
 10
16.627913
 20
55.007435
 30
0.0
 10
16.715066
 20
55.126221
 30
0.0
 10
16.764130
 20
55.223058
 30
0.0
  0
SPLINE
  5
207
100
AcDbEntity
  8
TEXT
 62
7
100
AcDbSpline
 70
8
 71
3
 72
8
 73
4
 74
0
 40
0
 40
0
 40
0
 40
0
 40
1
 40
1
 40
1
 40
1
 10
16.764130
 20
55.223058
 30
0.0
 10
16.814483
 20
55.321186
 30
0.0
 10
16.839660
 20
55.417377
 30
0.0
 10
16.839660
 20
55.511632
 30
0.0
  0
SPLINE
  5
208
100
AcDbEntity
  8
TEXT
 62
7
100
AcDbSpline
 70
8
 71
3
 72
8
 73
4
 74
0
 40
0
 40
0
 40
0
 40
0
 40
1
 40
1
 40
1
 40
1
 10
16.839660
 20
55.511632
 30
0.0
 10
16.839660
 20
55.665279
 30
0.0
 10
16.785431
 20
55.790521
 30
0.0
 10
16.676974
 20
55.887358
 30
0.0
  0
SPLINE
  5
209
100
AcDbEntity
  8
TEXT
 62
7
100
AcDbSpline
 70
8
 71
3
 72
8
 73
4
 74
0
 40
0
 40
0
 40
0
 40
0
 40
1
 40
1
 40
1
 40
1
 10
16.676974
 20
55.887358
 30
0.0
 10
16.569808
 20
55.984195
 30
0.0
 10
16.429718
 20
56.032613
 30
0.0
 10
16.256703
 20
56.032613
 30
0.0
  0
SPLINE
  5
20a
100
AcDbEntity
  8
TEXT
 62
7
100
AcDbSpline
 70
8
 71
3
 72
8
 73
4
 74
0
 40
0
 40
0
 40
0
 40
0
 40
1
 40
1
 40
1
 40
1
 10
16.256703
 20
56.032613
 30
0.0
 10
16.134043
 20
56.032613
 30
0.0
 10
16.004282
 20
56.011310
 30
0.0
 10
15.867419
 20
55.968703
 30
0.0
  0
SPLINE
  5
20b
100
AcDbEntity
  8
TEXT
 62
7
100
AcDbSpline
 70
8
 71
3
 72
8
 73
4
 74
0
 40
0
 40
0
 40
0
 40
0
 40
1
 40
1
 40
1
 40
1
 10
15.867419
 20
55.968703
 30
0.0
 10
15.731848
 20
55.926096
 30
0.0
 10
15.586593
 20
55.861539
 30
0.0
 10
15.431654
 20
55.775030
 30
0.0
  0
LWPOLYLINE
  5
20c
100
AcDbEntity
  8
TEXT
 62
7
100
AcDbPolyline
 90
5
 70
0
 10
15.882916
 20
53.747268
 30
0.0
 10
17.248313
 20
53.747268
 30
0.0
 10
17.248313
 20
53.418023
 30
0.0
 10
15.412290
 20
53.418023
 30
0.0
 10
15.412290
 20
53.747268
 30
0.0
  0
SPLINE
  5
20d
100
AcDbEntity
  8
TEXT
 62
7
100
AcDbSpline
 70
8
 71
3
 72
8
 73
4
 74
0
 40
0
 40
0
 40
0
 40
0
 40
1
 40
1
 40
1
 40
1
 10
15.431654
 20
56.170123
 30
0.0
 10
15.589175
 20
56.233390
 30
0.0
 10
15.736367
 20
56.281162
 30
0.0
 10
15.873230
 20
56.313441
 30
0.0
  0
SPLINE
  5
20e
100
AcDbEntity
  8
TEXT
 62
7
100
AcDbSpline
 70
8
 71
3
 72
8
 73
4
 74
0
 40
0
 40
0
 40
0
 40
0
 40
1
 40
1
 40
1
 40
1
 10
15.873230
 20
56.313441
 30
0.0
 10
16.010092
 20
56.345721
 30
0.0
 10
16.135334
 20
56.361861
 30
0.0
 10
16.248956
 20
56.361861
 30
0.0
  0
SPLINE
  5
20f
100
AcDbEntity
  8
TEXT
 62
7
100
AcDbSpline
 70
8
 71
3
 72
8
 73
4
 74
0
 40
0
 40
0
 40
0
 40
0
 40
1
 40
1
 40
1
 40
1
 10
16.248956
 20
56.361861
 30
0.0
 10
16.548504
 20
56.361861
 30
0.0
 10
16.787368
 20
56.286974
 30
0.0
 10
16.965547
 20
56.137200
 30
0.0
  0
SPLINE
  5
210
100
AcDbEntity
  8
TEXT
 62
7
100
AcDbSpline
 70
8
 71
3
 72
8
 73
4
 74
0
 40
0
 40
0
 40
0
 40
0
 40
1
 40
1
 40
1
 40
1
 10
16.965547
 20
56.137200
 30
0.0
 10
17.143726
 20
55.987426
 30
0.0
 10
17.232816
 20
55.787297
 30
0.0
 10
17.232816
 20
55.536812
 30
0.0
  0
SPLINE
  5
211
100
AcDbEntity
  8
TEXT
 62
7
100
AcDbSpline
 70
8
 71
3
 72
8
 73
4
 74
0
 40
0
 40
0
 40
0
 40
0
 40
1
 40
1
 40
1
 40
1
 10
17.232816
 20
55.536812
 30
0.0
 10
17.232816
 20
55.418026
 30
0.0
 10
17.210219
 20
55.305050
 30
0.0
 10
17.165026
 20
55.197884
 30
0.0
  0
SPLINE
  5
212
100
AcDbEntity
  8
TEXT
 62
7
100
AcDbSpline
 70
8
 71
3
 72
8
 73
4
 74
0
 40
0
 40
0
 40
0
 40
0
 40
1
 40
1
 40
1
 40
1
 10
17.165026
 20
55.197884
 30
0.0
 10
17.121126
 20
55.092009
 30
0.0
 10
17.040429
 20
54.966767
 30
0.0
 10
16.922934
 20
54.822158
 30
0.0
  0
SPLINE
  5
213
100
AcDbEntity
  8
TEXT
 62
7
100
AcDbSpline
 70
8
 71
3
 72
8
 73
4
 74
0
 40
0
 40
0
 40
0
 40
0
 40
1
 40
1
 40
1
 40
1
 10
16.922934
 20
54.822158
 30
0.0
 10
16.890654
 20
54.784711
 30
0.0
 10
16.788007
 20
54.676254
 30
0.0
 10
16.614993
 20
54.496786
 30
0.0
  0
SPLINE
  5
214
100
AcDbEntity
  8
TEXT
 62
7
100
AcDbSpline
 70
8
 71
3
 72
8
 73
4
 74
0
 40
0
 40
0
 40
0
 40
0
 40
1
 40
1
 40
1
 40
1
 10
16.614993
 20
54.496786
 30
0.0
 10
16.441978
 20
54.318607
 30
0.0
 10
16.197950
 20
54.068768
 30
0.0
 10
15.882908
 20
53.747271
 30
0.0
  0
LWPOLYLINE
  5
215
100
AcDbEntity
  8
TEXT
 62
7
100
AcDbPolyline
 90
2
 70
0
 10
15.431654
 20
55.775030
 30
0.0
 10
15.431654
 20
56.170123
 30
0.0
  0
LWPOLYLINE
  5
216
100
AcDbEntity
  8
TEXT
 62
7
100
AcDbPolyline
 90
1
 70
1
 10
15.882908
 20
53.747271
 30
0.0
  0
LWPOLYLINE
  5
217
100
AcDbEntity
  8
TEXT
 62
7
100
AcDbPolyline
 90
7
 70
1
 10
18.780269
 20
53.418023
 30
0.0
 10
17.676331
 20
56.309566
 30
0.0
 10
18.084982
 20
56.309566
 30
0.0
 10
19.001057
 20
53.875092
 30
0.0
 10
19.919069
 20
56.309566
 30
0.0
 10
20.325783
 20
56.309566
 30
0.0
 10
19.223781
 20
53.418023
 30
0.0
  0
ENDSEC
  0
SECTION
  2
OBJECTS
  0
DICTIONARY
  5
C
330
0
100
AcDbDictionary
  3
ACAD_GROUP
350
D
  3
ACAD_MLINESTYLE
350
17
  0
DICTIONARY
  5
D
330
C
100
AcDbDictionary
  0
DICTIONARY
  5
1A
330
C
100
AcDbDictionary
  0
DICTIONARY
  5
17
330
C
100
AcDbDictionary
  3
STANDARD
350
18
  0
DICTIONARY
  5
19
330
C
100
AcDbDictionary
  0
ENDSEC
  0
EOF
