999
dxfrw 0.6.3
  0
SECTION
  2
HEADER
  9
$ACADVER
  1
AC1021
  9
$DWGCODEPAGE
  3
ANSI_1252
  9
$INSBASE
 10
0
 20
0
 30
0
  9
$EXTMIN
 10
0.056312
 20
0.056348
 30
0
  9
$EXTMAX
 10
199.94362
 20
69.943656
 30
0
  9
$LIMMIN
 10
0
 20
0
  9
$LIMMAX
 10
420
 20
297
  9
$ORTHOMODE
 70
    0
  9
$REGENMODE
 70
    1
  9
$FILLMODE
 70
    1
  9
$QTEXTMODE
 70
    0
  9
$MIRRTEXT
 70
    0
  9
$LTSCALE
 40
1
  9
$ATTMODE
 70
    0
  9
$TEXTSIZE
 40
2.5
  9
$TRACEWID
 40
15.68
  9
$TEXTSTYLE
  7
STANDARD
  9
$CLAYER
  8
0
  9
$CELTYPE
  6
BYLAYER
  9
$CECOLOR
 62
  256
  9
$CELTSCALE
 40
1
  9
$DISPSILH
 70
    0
  9
$DIMSCALE
 40
2.5
  9
$DIMASZ
 40
2.5
  9
$DIMEXO
 40
0.625
  9
$DIMDLI
 40
3.75
  9
$DIMRND
 40
0
  9
$DIMDLE
 40
0
  9
$DIMEXE
 40
1.25
  9
$DIMTP
 40
0
  9
$DIMTM
 40
0
  9
$DIMTXT
 40
2.5
  9
$DIMCEN
 40
2.5
  9
$DIMTSZ
 40
0
  9
$DIMTOL
 70
    0
  9
$DIMLIM
 70
    0
  9
$DIMTIH
 70
    0
  9
$DIMTOH
 70
    0
  9
$DIMSE1
 70
    0
  9
$DIMSE2
 70
    0
  9
$DIMTAD
 70
    1
  9
$DIMZIN
 70
    8
  9
$DIMBLK
  1

  9
$DIMASO
 70
    1
  9
$DIMSHO
 70
    1
  9
$DIMPOST
  1

  9
$DIMAPOST
  1

  9
$DIMALT
 70
    0
  9
$DIMALTD
 70
    3
  9
$DIMALTF
 40
0.03937
  9
$DIMLFAC
 40
1
  9
$DIMTOFL
 70
    1
  9
$DIMTVP
 40
0
  9
$DIMTIX
 70
    0
  9
$DIMSOXD
 70
    0
  9
$DIMSAH
 70
    0
  9
$DIMBLK1
  1

  9
$DIMBLK2
  1

  9
$DIMSTYLE
  2
Standard
  9
$DIMCLRD
 70
    0
  9
$DIMCLRE
 70
    0
  9
$DIMCLRT
 70
    0
  9
$DIMTFAC
 40
1
  9
$DIMGAP
 40
0.625
  9
$DIMJUST
 70
    0
  9
$DIMSD1
 70
    0
  9
$DIMSD2
 70
    0
  9
$DIMTOLJ
 70
    0
  9
$DIMTZIN
 70
    8
  9
$DIMALTZ
 70
    0
  9
$DIMALTTZ
 70
    0
  9
$DIMUPT
 70
    0
  9
$DIMDEC
 70
    2
  9
$DIMTDEC
 70
    2
  9
$DIMALTU
 70
    2
  9
$DIMALTTD
 70
    3
  9
$DIMTXSTY
  7
STANDARD
  9
$DIMAUNIT
 70
    0
  9
$DIMADEC
 70
    0
  9
$DIMALTRND
 40
0
  9
$DIMAZIN
 70
    0
  9
$DIMDSEP
 70
   44
  9
$DIMATFIT
 70
    3
  9
$DIMFRAC
 70
    0
  9
$DIMLDRBLK
  1
STANDARD
  9
$DIMLUNIT
 70
    2
  9
$DIMLWD
 70
   -2
  9
$DIMLWE
 70
   -2
  9
$DIMTMOVE
 70
    0
  9
$DIMFXL
 40
1
  9
$DIMFXLON
 70
    0
  9
$DIMJOGANG
 40
0.7854
  9
$DIMTFILL
 70
    0
  9
$DIMTFILLCLR
 70
    0
  9
$DIMARCSYM
 70
    0
  9
$DIMLTYPE
  6

  9
$DIMLTEX1
  6

  9
$DIMLTEX2
  6

  9
$LUNITS
 70
    2
  9
$LUPREC
 70
    4
  9
$SKETCHINC
 40
1
  9
$FILLETRAD
 40
0
  9
$AUNITS
 70
    0
  9
$AUPREC
 70
    2
  9
$MENU
  1
.
  9
$ELEVATION
 40
0
  9
$PELEVATION
 40
0
  9
$THICKNESS
 40
0
  9
$LIMCHECK
 70
    0
  9
$CHAMFERA
 40
0
  9
$CHAMFERB
 40
0
  9
$CHAMFERC
 40
0
  9
$CHAMFERD
 40
0
  9
$SKPOLY
 70
    0
  9
$USRTIMER
 70
    1
  9
$ANGBASE
 50
0
  9
$ANGDIR
 70
    0
  9
$PDMODE
 70
   34
  9
$PDSIZE
 40
0
  9
$PLINEWID
 40
0
  9
$SPLFRAME
 70
    0
  9
$SPLINETYPE
 70
    2
  9
$SPLINESEGS
 70
    8
  9
$HANDSEED
  5
20000
  9
$SURFTAB1
 70
    6
  9
$SURFTAB2
 70
    6
  9
$SURFTYPE
 70
    6
  9
$SURFU
 70
    6
  9
$SURFV
 70
    6
  9
$UCSBASE
  2

  9
$UCSNAME
  2

  9
$UCSORG
 10
0
 20
0
 30
0
  9
$UCSXDIR
 10
1
 20
0
 30
0
  9
$UCSYDIR
 10
0
 20
1
 30
0
  9
$UCSORTHOREF
  2

  9
$UCSORTHOVIEW
 70
    0
  9
$UCSORGTOP
 10
0
 20
0
 30
0
  9
$UCSORGBOTTOM
 10
0
 20
0
 30
0
  9
$UCSORGLEFT
 10
0
 20
0
 30
0
  9
$UCSORGRIGHT
 10
0
 20
0
 30
0
  9
$UCSORGFRONT
 10
0
 20
0
 30
0
  9
$UCSORGBACK
 10
0
 20
0
 30
0
  9
$PUCSBASE
  2

  9
$PUCSNAME
  2

  9
$PUCSORG
 10
0
 20
0
 30
0
  9
$PUCSXDIR
 10
1
 20
0
 30
0
  9
$PUCSYDIR
 10
0
 20
1
 30
0
  9
$PUCSORTHOREF
  2

  9
$PUCSORTHOVIEW
 70
    0
  9
$PUCSORGTOP
 10
0
 20
0
 30
0
  9
$PUCSORGBOTTOM
 10
0
 20
0
 30
0
  9
$PUCSORGLEFT
 10
0
 20
0
 30
0
  9
$PUCSORGRIGHT
 10
0
 20
0
 30
0
  9
$PUCSORGFRONT
 10
0
 20
0
 30
0
  9
$PUCSORGBACK
 10
0
 20
0
 30
0
  9
$USERI1
 70
    0
  9
$USERI2
 70
    0
  9
$USERI3
 70
    0
  9
$USERI4
 70
    0
  9
$USERI5
 70
    0
  9
$USERR1
 40
0
  9
$USERR2
 40
0
  9
$USERR3
 40
0
  9
$USERR4
 40
0
  9
$USERR5
 40
0
  9
$WORLDVIEW
 70
    1
  9
$SHADEDGE
 70
    3
  9
$SHADEDIF
 70
   70
  9
$TILEMODE
 70
    1
  9
$MAXACTVP
 70
   64
  9
$PINSBASE
 10
0
 20
0
 30
0
  9
$PLIMCHECK
 70
    0
  9
$PEXTMIN
 10
0
 20
0
 30
0
  9
$PEXTMAX
 10
0
 20
0
 30
0
  9
$GRIDMODE
 70
    0
  9
$SNAPSTYLE
 70
    0
  9
$PLIMMIN
 10
0
 20
0
  9
$PLIMMAX
 10
210
 20
297
  9
$UNITMODE
 70
    0
  9
$VISRETAIN
 70
    1
  9
$PLINEGEN
 70
    0
  9
$PSLTSCALE
 70
    1
  9
$TREEDEPTH
 70
 3020
  9
$CMLSTYLE
  2
Standard
  9
$CMLJUST
 70
    0
  9
$CMLSCALE
 40
20
  9
$PROXYGRAPHICS
 70
    1
  9
$MEASUREMENT
 70
    1
  9
$CELWEIGHT
370
   -1
  9
$ENDCAPS
280
    0
  9
$JOINSTYLE
280
    0
  9
$LWDISPLAY
290
    0
  9
$INSUNITS
 70
    4
  9
$HYPERLINKBASE
  1

  9
$STYLESHEET
  1

  9
$XEDIT
290
    1
  9
$CEPSNTYPE
380
    0
  9
$PSTYLEMODE
290
    1
  9
$EXTNAMES
290
    1
  9
$PSVPSCALE
 40
1
  9
$OLESTARTUP
290
    0
  9
$SORTENTS
280
  127
  9
$INDEXCTL
280
    0
  9
$HIDETEXT
280
    1
  9
$XCLIPFRAME
290
    0
  9
$HALOGAP
280
    0
  9
$OBSCOLOR
 70
  257
  9
$OBSLTYPE
280
    0
  9
$INTERSECTIONDISPLAY
280
    0
  9
$INTERSECTIONCOLOR
 70
  257
  9
$DIMASSOC
280
    1
  9
$PROJECTNAME
  1

  9
$CAMERADISPLAY
290
    0
  9
$LENSLENGTH
 40
50
  9
$CAMERAHEIGHT
 40
0
  9
$STEPSPERSEC
 40
2
  9
$STEPSIZE
 40
50
  9
$3DDWFPREC
 40
2
  9
$PSOLWIDTH
 40
5
  9
$PSOLHEIGHT
 40
80
  9
$LOFTANG1
 40
1.570796326794897
  9
$LOFTANG2
 40
1.570796326794897
  9
$LOFTMAG1
 40
0
  9
$LOFTMAG2
 40
0
  9
$LOFTPARAM
 70
    7
  9
$LOFTNORMALS
280
    1
  9
$LATITUDE
 40
1
  9
$LONGITUDE
 40
1
  9
$NORTHDIRECTION
 40
0
  9
$TIMEZONE
 70
-8000
  9
$LIGHTGLYPHDISPLAY
280
    1
  9
$TILEMODELIGHTSYNCH
280
    1
  9
$SOLIDHIST
280
    1
  9
$SHOWHIST
280
    1
  9
$DWFFRAME
280
    2
  9
$DGNFRAME
280
    0
  9
$REALWORLDSCALE
290
    1
  9
$INTERFERECOLOR
 62
    1
  9
$CSHADOW
280
    0
  9
$SHADOWPLANELOCATION
 40
0
  0
ENDSEC
  0
SECTION
  2
CLASSES
  0
ENDSEC
  0
SECTION
  2
TABLES
  0
TABLE
  2
VPORT
  5
8
330
0
100
AcDbSymbolTable
 70
    1
  0
VPORT
  5
31
330
2
100
AcDbSymbolTableRecord
100
AcDbViewportTableRecord
  2
*ACTIVE
 70
    0
 10
0
 20
0
 11
1
 21
1
 12
129.6808602004162
 22
51.22872344603967
 13
0
 23
0
 14
10
 24
10
 15
10
 25
10
 16
0
 26
0
 36
1
 17
0
 27
0
 37
0
 40
135.6821877348419
 41
2.029487179487179
 42
50
 43
0
 44
0
 50
0
 51
0
 71
    0
 72
  100
 73
    1
 74
    3
 75
    0
 76
    0
 77
    0
 78
    0
281
    0
 65
    1
110
0
120
0
130
0
111
1
121
0
131
0
112
0
122
1
132
0
 79
    0
146
0
348
10020
 60
    7
 61
    5
292
1
282
    1
141
0
142
0
 63
  250
421
3358443
  0
ENDTAB
  0
TABLE
  2
LTYPE
  5
5
330
0
100
AcDbSymbolTable
 70
    4
  0
LTYPE
  5
14
330
5
100
AcDbSymbolTableRecord
100
AcDbLinetypeTableRecord
  2
ByBlock
 70
    0
  3

 72
   65
 73
    0
 40
0
  0
LTYPE
  5
15
330
5
100
AcDbSymbolTableRecord
100
AcDbLinetypeTableRecord
  2
ByLayer
 70
    0
  3

 72
   65
 73
    0
 40
0
  0
LTYPE
  5
16
330
5
100
AcDbSymbolTableRecord
100
AcDbLinetypeTableRecord
  2
Continuous
 70
    0
  3
Solid line
 72
   65
 73
    0
 40
0
  0
LTYPE
  5
32
330
5
100
AcDbSymbolTableRecord
100
AcDbLinetypeTableRecord
  2
DOT
 70
    0
  3
Dot . . . . . . . . . . . . . . . . . . . . . .
 72
   65
 73
    2
 40
6.35
 49
0
 74
    0
 49
-6.35
 74
    0
  0
LTYPE
  5
33
330
5
100
AcDbSymbolTableRecord
100
AcDbLinetypeTableRecord
  2
DOTTINY
 70
    0
  3
Dot (.15x) .....................................
 72
   65
 73
    2
 40
0.9525
 49
0
 74
    0
 49
-0.9525
 74
    0
  0
LTYPE
  5
34
330
5
100
AcDbSymbolTableRecord
100
AcDbLinetypeTableRecord
  2
DOT2
 70
    0
  3
Dot (.5x) .....................................
 72
   65
 73
    2
 40
3.175
 49
0
 74
    0
 49
-3.175
 74
    0
  0
LTYPE
  5
35
330
5
100
AcDbSymbolTableRecord
100
AcDbLinetypeTableRecord
  2
DOTX2
 70
    0
  3
Dot (2x) .  .  .  .  .  .  .  .  .  .  .  .  .
 72
   65
 73
    2
 40
12.7
 49
0
 74
    0
 49
-12.7
 74
    0
  0
LTYPE
  5
36
330
5
100
AcDbSymbolTableRecord
100
AcDbLinetypeTableRecord
  2
DASHED
 70
    0
  3
Dashed _ _ _ _ _ _ _ _ _ _ _ _ _ _ _ _ _
 72
   65
 73
    2
 40
19.05
 49
12.7
 74
    0
 49
-6.35
 74
    0
  0
LTYPE
  5
37
330
5
100
AcDbSymbolTableRecord
100
AcDbLinetypeTableRecord
  2
DASHEDTINY
 70
    0
  3
Dashed (.15x) _ _ _ _ _ _ _ _ _ _ _ _ _ _ _ _ _
 72
   65
 73
    2
 40
2.8575
 49
1.905
 74
    0
 49
-0.9525
 74
    0
  0
LTYPE
  5
38
330
5
100
AcDbSymbolTableRecord
100
AcDbLinetypeTableRecord
  2
DASHED2
 70
    0
  3
Dashed (.5x) _ _ _ _ _ _ _ _ _ _ _ _ _ _ _ _ _
 72
   65
 73
    2
 40
9.524999999999999
 49
6.35
 74
    0
 49
-3.175
 74
    0
  0
LTYPE
  5
39
330
5
100
AcDbSymbolTableRecord
100
AcDbLinetypeTableRecord
  2
DASHEDX2
 70
    0
  3
Dashed (2x) ____  ____  ____  ____  ____  ___
 72
   65
 73
    2
 40
38.09999999999999
 49
25.4
 74
    0
 49
-12.7
 74
    0
  0
LTYPE
  5
3A
330
5
100
AcDbSymbolTableRecord
100
AcDbLinetypeTableRecord
  2
DASHDOT
 70
    0
  3
Dash dot __ . __ . __ . __ . __ . __ . __ . __
 72
   65
 73
    4
 40
25.4
 49
12.7
 74
    0
 49
-6.35
 74
    0
 49
0
 74
    0
 49
-6.35
 74
    0
  0
LTYPE
  5
3B
330
5
100
AcDbSymbolTableRecord
100
AcDbLinetypeTableRecord
  2
DASHDOTTINY
 70
    0
  3
Dash dot (.15x) _._._._._._._._._._._._._._._.
 72
   65
 73
    4
 40
3.81
 49
1.905
 74
    0
 49
-0.9525
 74
    0
 49
0
 74
    0
 49
-0.9525
 74
    0
  0
LTYPE
  5
3C
330
5
100
AcDbSymbolTableRecord
100
AcDbLinetypeTableRecord
  2
DASHDOT2
 70
    0
  3
Dash dot (.5x) _._._._._._._._._._._._._._._.
 72
   65
 73
    4
 40
12.7
 49
6.35
 74
    0
 49
-3.175
 74
    0
 49
0
 74
    0
 49
-3.175
 74
    0
  0
LTYPE
  5
3D
330
5
100
AcDbSymbolTableRecord
100
AcDbLinetypeTableRecord
  2
DASHDOTX2
 70
    0
  3
Dash dot (2x) ____  .  ____  .  ____  .  ___
 72
   65
 73
    4
 40
50.8
 49
25.4
 74
    0
 49
-12.7
 74
    0
 49
0
 74
    0
 49
-12.7
 74
    0
  0
LTYPE
  5
3E
330
5
100
AcDbSymbolTableRecord
100
AcDbLinetypeTableRecord
  2
DIVIDE
 70
    0
  3
Divide ____ . . ____ . . ____ . . ____ . . ____
 72
   65
 73
    6
 40
31.75
 49
12.7
 74
    0
 49
-6.35
 74
    0
 49
0
 74
    0
 49
-6.35
 74
    0
 49
0
 74
    0
 49
-6.35
 74
    0
  0
LTYPE
  5
3F
330
5
100
AcDbSymbolTableRecord
100
AcDbLinetypeTableRecord
  2
DIVIDETINY
 70
    0
  3
Divide (.15x) __..__..__..__..__..__..__..__.._
 72
   65
 73
    6
 40
4.7625
 49
1.905
 74
    0
 49
-0.9525
 74
    0
 49
0
 74
    0
 49
-0.9525
 74
    0
 49
0
 74
    0
 49
-0.9525
 74
    0
  0
LTYPE
  5
40
330
5
100
AcDbSymbolTableRecord
100
AcDbLinetypeTableRecord
  2
DIVIDE2
 70
    0
  3
Divide (.5x) __..__..__..__..__..__..__..__.._
 72
   65
 73
    6
 40
15.875
 49
6.35
 74
    0
 49
-3.175
 74
    0
 49
0
 74
    0
 49
-3.175
 74
    0
 49
0
 74
    0
 49
-3.175
 74
    0
  0
LTYPE
  5
41
330
5
100
AcDbSymbolTableRecord
100
AcDbLinetypeTableRecord
  2
DIVIDEX2
 70
    0
  3
Divide (2x) ________  .  .  ________  .  .  _
 72
   65
 73
    6
 40
63.5
 49
25.4
 74
    0
 49
-12.7
 74
    0
 49
0
 74
    0
 49
-12.7
 74
    0
 49
0
 74
    0
 49
-12.7
 74
    0
  0
LTYPE
  5
42
330
5
100
AcDbSymbolTableRecord
100
AcDbLinetypeTableRecord
  2
BORDER
 70
    0
  3
Border __ __ . __ __ . __ __ . __ __ . __ __ .
 72
   65
 73
    6
 40
44.45
 49
12.7
 74
    0
 49
-6.35
 74
    0
 49
12.7
 74
    0
 49
-6.35
 74
    0
 49
0
 74
    0
 49
-6.35
 74
    0
  0
LTYPE
  5
43
330
5
100
AcDbSymbolTableRecord
100
AcDbLinetypeTableRecord
  2
BORDERTINY
 70
    0
  3
Border (.15x) __.__.__.__.__.__.__.__.__.__.__.
 72
   65
 73
    6
 40
6.6675
 49
1.905
 74
    0
 49
-0.9525
 74
    0
 49
1.905
 74
    0
 49
-0.9525
 74
    0
 49
0
 74
    0
 49
-0.9525
 74
    0
  0
LTYPE
  5
44
330
5
100
AcDbSymbolTableRecord
100
AcDbLinetypeTableRecord
  2
BORDER2
 70
    0
  3
Border (.5x) __.__.__.__.__.__.__.__.__.__.__.
 72
   65
 73
    6
 40
22.225
 49
6.35
 74
    0
 49
-3.175
 74
    0
 49
6.35
 74
    0
 49
-3.175
 74
    0
 49
0
 74
    0
 49
-3.175
 74
    0
  0
LTYPE
  5
45
330
5
100
AcDbSymbolTableRecord
100
AcDbLinetypeTableRecord
  2
BORDERX2
 70
    0
  3
Border (2x) ____  ____  .  ____  ____  .  ___
 72
   65
 73
    6
 40
88.89999999999999
 49
25.4
 74
    0
 49
-12.7
 74
    0
 49
25.4
 74
    0
 49
-12.7
 74
    0
 49
0
 74
    0
 49
-12.7
 74
    0
  0
LTYPE
  5
46
330
5
100
AcDbSymbolTableRecord
100
AcDbLinetypeTableRecord
  2
CENTER
 70
    0
  3
Center ____ _ ____ _ ____ _ ____ _ ____ _ ____
 72
   65
 73
    4
 40
50.8
 49
31.75
 74
    0
 49
-6.35
 74
    0
 49
6.35
 74
    0
 49
-6.35
 74
    0
  0
LTYPE
  5
47
330
5
100
AcDbSymbolTableRecord
100
AcDbLinetypeTableRecord
  2
CENTERTINY
 70
    0
  3
Center (.15x) ___ _ ___ _ ___ _ ___ _ ___ _ ___
 72
   65
 73
    4
 40
7.619999999999999
 49
4.7625
 74
    0
 49
-0.9525
 74
    0
 49
0.9525
 74
    0
 49
-0.9525
 74
    0
  0
LTYPE
  5
48
330
5
100
AcDbSymbolTableRecord
100
AcDbLinetypeTableRecord
  2
CENTER2
 70
    0
  3
Center (.5x) ___ _ ___ _ ___ _ ___ _ ___ _ ___
 72
   65
 73
    4
 40
28.575
 49
19.05
 74
    0
 49
-3.175
 74
    0
 49
3.175
 74
    0
 49
-3.175
 74
    0
  0
LTYPE
  5
49
330
5
100
AcDbSymbolTableRecord
100
AcDbLinetypeTableRecord
  2
CENTERX2
 70
    0
  3
Center (2x) ________  __  ________  __  _____
 72
   65
 73
    4
 40
101.6
 49
63.5
 74
    0
 49
-12.7
 74
    0
 49
12.7
 74
    0
 49
-12.7
 74
    0
  0
ENDTAB
  0
TABLE
  2
LAYER
  5
2
330
0
100
AcDbSymbolTable
 70
    1
  0
LAYER
  5
10
330
2
100
AcDbSymbolTableRecord
100
AcDbLayerTableRecord
  2
0
 70
    0
 62
    7
  6
CONTINUOUS
370
   -3
390
F
  0
LAYER
  5
4A
330
2
100
AcDbSymbolTableRecord
100
AcDbLayerTableRecord
  2
CUTOUT
 70
    0
 62
    7
  6
CONTINUOUS
370
   -3
390
F
  0
LAYER
  5
4B
330
2
100
AcDbSymbolTableRecord
100
AcDbLayerTableRecord
  2
REFERENCE
 70
    0
 62
    7
  6
CONTINUOUS
370
   -3
390
F
  0
LAYER
  5
4C
330
2
100
AcDbSymbolTableRecord
100
AcDbLayerTableRecord
  2
TEXT
 70
    0
 62
    7
  6
CONTINUOUS
370
   -3
390
F
  0
ENDTAB
  0
TABLE
  2
STYLE
  5
3
330
0
100
AcDbSymbolTable
 70
    3
  0
STYLE
  5
4D
330
2
100
AcDbSymbolTableRecord
100
AcDbTextStyleTableRecord
  2
Standard
 70
    0
 40
0
 41
1
 50
0
 71
    0
 42
1
  3
txt
  4

  0
ENDTAB
  0
TABLE
  2
VIEW
  5
6
330
0
100
AcDbSymbolTable
 70
    0
  0
ENDTAB
  0
TABLE
  2
UCS
  5
7
330
0
100
AcDbSymbolTable
 70
    0
  0
ENDTAB
  0
TABLE
  2
APPID
  5
9
330
0
100
AcDbSymbolTable
 70
    1
  0
APPID
  5
12
330
9
100
AcDbSymbolTableRecord
100
AcDbRegAppTableRecord
  2
ACAD
 70
    0
  0
APPID
  5
4E
330
9
100
AcDbSymbolTableRecord
100
AcDbRegAppTableRecord
  2
LibreCad
 70
    0
  0
ENDTAB
  0
TABLE
  2
DIMSTYLE
  5
A
330
0
100
AcDbSymbolTable
 70
    1
100
AcDbDimStyleTable
 71
    1
  0
DIMSTYLE
105
4F
330
A
100
AcDbSymbolTableRecord
100
AcDbDimStyleTableRecord
  2
Standard
 70
    0
 40
1
 41
2.5
 42
0.625
 43
0.38
 44
1.25
 45
0
 46
0
 47
0
 48
0
 49
1
140
2.5
141
0.09
142
2.5
143
25.4
144
1
145
0
146
1
147
0.625
148
0
 71
    0
 72
    0
 73
    0
 74
    1
 75
    0
 76
    0
 77
    0
 78
    1
 79
    0
170
    0
171
    2
172
    0
173
    0
174
    0
175
    0
176
    0
177
    0
178
    0
179
    0
271
    2
272
    4
273
    2
274
    2
275
    0
276
    0
277
    2
278
    0
279
    0
280
    0
281
    0
282
    0
283
    1
284
    0
285
    0
286
    0
288
    0
289
    3
340
standard
341

371
   -2
372
   -2
  0
ENDTAB
  0
TABLE
  2
BLOCK_RECORD
  5
1
330
0
100
AcDbSymbolTable
 70
    2
  0
BLOCK_RECORD
  5
1F
330
1
100
AcDbSymbolTableRecord
100
AcDbBlockTableRecord
  2
*Model_Space
 70
    0
280
    1
281
    0
  0
BLOCK_RECORD
  5
1E
330
1
100
AcDbSymbolTableRecord
100
AcDbBlockTableRecord
  2
*Paper_Space
 70
    0
280
    1
281
    0
  0
ENDTAB
  0
ENDSEC
  0
SECTION
  2
BLOCKS
  0
BLOCK
  5
20
330
1F
100
AcDbEntity
  8
0
100
AcDbBlockBegin
  2
*Model_Space
 70
    0
 10
0
 20
0
 30
0
  3
*Model_Space
  1

  0
ENDBLK
  5
21
330
1F
100
AcDbEntity
  8
0
100
AcDbBlockEnd
  0
BLOCK
  5
1C
330
1B
100
AcDbEntity
  8
0
100
AcDbBlockBegin
  2
*Paper_Space
 70
    0
 10
0
 20
0
 30
0
  3
*Paper_Space
  1

  0
ENDBLK
  5
1D
330
1F
100
AcDbEntity
  8
0
100
AcDbBlockEnd
  0
ENDSEC
  0
SECTION
  2
ENTITIES
  0
LWPOLYLINE
  5
50
100
AcDbEntity
  8
REFERENCE
  6
ByLayer
 62
    5
370
   -1
100
AcDbPolyline
 90
    4
 70
    1
 43
0
 10
0.056312
 20
69.943656
 10
199.94362
 20
69.943656
 10
199.94362
 20
0.056348
 10
0.056312
 20
0.056348
  0
LWPOLYLINE
  5
51
100
AcDbEntity
  8
TEXT
  6
ByLayer
 62
    7
370
   -1
100
AcDbPolyline
 90
    3
 70
    1
 43
0
 10
142.625002
 20
58.269778
 10
142.094337
 20
56.830785
 10
143.157604
 20
56.830785
  0
LWPOLYLINE
  5
52
100
AcDbEntity
  8
TEXT
  6
ByLayer
 62
    7
370
   -1
100
AcDbPolyline
 90
    8
 70
    1
 43
0
 10
142.404215
 20
58.655188
 10
142.847727
 20
58.655188
 10
143.949728
 20
55.763645
 10
143.543014
 20
55.763645
 10
143.279618
 20
56.505414
 10
141.976197
 20
56.505414
 10
141.712801
 20
55.763645
 10
141.300277
 20
55.763645
  0
SPLINE
  5
53
100
AcDbEntity
  8
TEXT
  6
ByLayer
 62
    7
370
   -1
100
AcDbSpline
210
0
220
0
230
0
 70
    8
 71
    3
 72
    8
 73
    4
 74
    0
 42
1e-07
 43
1e-07
 40
0
 40
0
 40
0
 40
0
 40
1
 40
1
 40
1
 40
1
 10
103.618227
 20
56.028975
 30
0
 10
103.828686
 20
56.028975
 30
0
 10
103.98427
 20
56.072229
 30
0
 10
104.08498
 20
56.158736
 30
0
  0
SPLINE
  5
54
100
AcDbEntity
  8
TEXT
  6
ByLayer
 62
    7
370
   -1
100
AcDbSpline
210
0
220
0
230
0
 70
    8
 71
    3
 72
    8
 73
    4
 74
    0
 42
1e-07
 43
1e-07
 40
0
 40
0
 40
0
 40
0
 40
1
 40
1
 40
1
 40
1
 10
104.08498
 20
56.158736
 30
0
 10
104.186981
 20
56.246535
 30
0
 10
104.237982
 20
56.380169
 30
0
 10
104.237982
 20
56.55964
 30
0
  0
SPLINE
  5
55
100
AcDbEntity
  8
TEXT
  6
ByLayer
 62
    7
370
   -1
100
AcDbSpline
210
0
220
0
230
0
 70
    8
 71
    3
 72
    8
 73
    4
 74
    0
 42
1e-07
 43
1e-07
 40
0
 40
0
 40
0
 40
0
 40
1
 40
1
 40
1
 40
1
 10
104.237982
 20
56.55964
 30
0
 10
104.237982
 20
56.740402
 30
0
 10
104.186981
 20
56.873391
 30
0
 10
104.08498
 20
56.958607
 30
0
  0
SPLINE
  5
56
100
AcDbEntity
  8
TEXT
  6
ByLayer
 62
    7
370
   -1
100
AcDbSpline
210
0
220
0
230
0
 70
    8
 71
    3
 72
    8
 73
    4
 74
    0
 42
1e-07
 43
1e-07
 40
0
 40
0
 40
0
 40
0
 40
1
 40
1
 40
1
 40
1
 10
104.08498
 20
56.958607
 30
0
 10
103.98427
 20
57.045114
 30
0
 10
103.828686
 20
57.088368
 30
0
 10
103.618227
 20
57.088368
 30
0
  0
LWPOLYLINE
  5
57
100
AcDbEntity
  8
TEXT
  6
ByLayer
 62
    7
370
   -1
100
AcDbPolyline
 90
    3
 70
    0
 43
0
 10
102.990726
 20
57.088368
 10
102.990726
 20
56.028975
 10
103.618227
 20
56.028975
  0
LWPOLYLINE
  5
58
100
AcDbEntity
  8
TEXT
  6
ByLayer
 62
    7
370
   -1
100
AcDbPolyline
 90
    2
 70
    0
 43
0
 10
103.618227
 20
57.088368
 10
102.990726
 20
57.088368
  0
SPLINE
  5
59
100
AcDbEntity
  8
TEXT
  6
ByLayer
 62
    7
370
   -1
100
AcDbSpline
210
0
220
0
230
0
 70
    8
 71
    3
 72
    8
 73
    4
 74
    0
 42
1e-07
 43
1e-07
 40
0
 40
0
 40
0
 40
0
 40
1
 40
1
 40
1
 40
1
 10
103.569809
 20
57.405992
 30
0
 10
103.7609
 20
57.405992
 30
0
 10
103.902927
 20
57.441499
 30
0
 10
103.99589
 20
57.512513
 30
0
  0
SPLINE
  5
5A
100
AcDbEntity
  8
TEXT
  6
ByLayer
 62
    7
370
   -1
100
AcDbSpline
210
0
220
0
230
0
 70
    8
 71
    3
 72
    8
 73
    4
 74
    0
 42
1e-07
 43
1e-07
 40
0
 40
0
 40
0
 40
0
 40
1
 40
1
 40
1
 40
1
 10
103.99589
 20
57.512513
 30
0
 10
104.090145
 20
57.584818
 30
0
 10
104.137272
 20
57.694566
 30
0
 10
104.137272
 20
57.841757
 30
0
  0
SPLINE
  5
5B
100
AcDbEntity
  8
TEXT
  6
ByLayer
 62
    7
370
   -1
100
AcDbSpline
210
0
220
0
230
0
 70
    8
 71
    3
 72
    8
 73
    4
 74
    0
 42
1e-07
 43
1e-07
 40
0
 40
0
 40
0
 40
0
 40
1
 40
1
 40
1
 40
1
 10
104.137272
 20
57.841757
 30
0
 10
104.137272
 20
57.987658
 30
0
 10
104.090145
 20
58.09676
 30
0
 10
103.99589
 20
58.169065
 30
0
  0
SPLINE
  5
5C
100
AcDbEntity
  8
TEXT
  6
ByLayer
 62
    7
370
   -1
100
AcDbSpline
210
0
220
0
230
0
 70
    8
 71
    3
 72
    8
 73
    4
 74
    0
 42
1e-07
 43
1e-07
 40
0
 40
0
 40
0
 40
0
 40
1
 40
1
 40
1
 40
1
 10
103.99589
 20
58.169065
 30
0
 10
103.902927
 20
58.24137
 30
0
 10
103.7609
 20
58.277522
 30
0
 10
103.569809
 20
58.277522
 30
0
  0
LWPOLYLINE
  5
5D
100
AcDbEntity
  8
TEXT
  6
ByLayer
 62
    7
370
   -1
100
AcDbPolyline
 90
    3
 70
    0
 43
0
 10
102.990726
 20
58.277522
 10
102.990726
 20
57.405992
 10
103.569809
 20
57.405992
  0
LWPOLYLINE
  5
5E
100
AcDbEntity
  8
TEXT
  6
ByLayer
 62
    7
370
   -1
100
AcDbPolyline
 90
    2
 70
    0
 43
0
 10
103.569809
 20
58.277522
 10
102.990726
 20
58.277522
  0
SPLINE
  5
5F
100
AcDbEntity
  8
TEXT
  6
ByLayer
 62
    7
370
   -1
100
AcDbSpline
210
0
220
0
230
0
 70
    8
 71
    3
 72
    8
 73
    4
 74
    0
 42
1e-07
 43
1e-07
 40
0
 40
0
 40
0
 40
0
 40
1
 40
1
 40
1
 40
1
 10
103.59886
 20
58.59902
 30
0
 10
103.897117
 20
58.59902
 30
0
 10
104.126942
 20
58.537045
 30
0
 10
104.288337
 20
58.413094
 30
0
  0
SPLINE
  5
60
100
AcDbEntity
  8
TEXT
  6
ByLayer
 62
    7
370
   -1
100
AcDbSpline
210
0
220
0
230
0
 70
    8
 71
    3
 72
    8
 73
    4
 74
    0
 42
1e-07
 43
1e-07
 40
0
 40
0
 40
0
 40
0
 40
1
 40
1
 40
1
 40
1
 10
104.288337
 20
58.413094
 30
0
 10
104.449732
 20
58.289143
 30
0
 10
104.530429
 20
58.1129
 30
0
 10
104.530429
 20
57.884365
 30
0
  0
SPLINE
  5
61
100
AcDbEntity
  8
TEXT
  6
ByLayer
 62
    7
370
   -1
100
AcDbSpline
210
0
220
0
230
0
 70
    8
 71
    3
 72
    8
 73
    4
 74
    0
 42
1e-07
 43
1e-07
 40
0
 40
0
 40
0
 40
0
 40
1
 40
1
 40
1
 40
1
 10
104.530429
 20
57.884365
 30
0
 10
104.530429
 20
57.707477
 30
0
 10
104.489112
 20
57.566741
 30
0
 10
104.406478
 20
57.462158
 30
0
  0
SPLINE
  5
62
100
AcDbEntity
  8
TEXT
  6
ByLayer
 62
    7
370
   -1
100
AcDbSpline
210
0
220
0
230
0
 70
    8
 71
    3
 72
    8
 73
    4
 74
    0
 42
1e-07
 43
1e-07
 40
0
 40
0
 40
0
 40
0
 40
1
 40
1
 40
1
 40
1
 10
104.406478
 20
57.462158
 30
0
 10
104.323844
 20
57.357574
 30
0
 10
104.202475
 20
57.292371
 30
0
 10
104.042372
 20
57.266548
 30
0
  0
SPLINE
  5
63
100
AcDbEntity
  8
TEXT
  6
ByLayer
 62
    7
370
   -1
100
AcDbSpline
210
0
220
0
230
0
 70
    8
 71
    3
 72
    8
 73
    4
 74
    0
 42
1e-07
 43
1e-07
 40
0
 40
0
 40
0
 40
0
 40
1
 40
1
 40
1
 40
1
 10
104.042372
 20
57.266548
 30
0
 10
104.234754
 20
57.225228
 30
0
 10
104.383882
 20
57.13872
 30
0
 10
104.489757
 20
57.007025
 30
0
  0
SPLINE
  5
64
100
AcDbEntity
  8
TEXT
  6
ByLayer
 62
    7
370
   -1
100
AcDbSpline
210
0
220
0
230
0
 70
    8
 71
    3
 72
    8
 73
    4
 74
    0
 42
1e-07
 43
1e-07
 40
0
 40
0
 40
0
 40
0
 40
1
 40
1
 40
1
 40
1
 10
104.489757
 20
57.007025
 30
0
 10
104.596923
 20
56.876618
 30
0
 10
104.650506
 20
56.713287
 30
0
 10
104.650506
 20
56.517032
 30
0
  0
SPLINE
  5
65
100
AcDbEntity
  8
TEXT
  6
ByLayer
 62
    7
370
   -1
100
AcDbSpline
210
0
220
0
230
0
 70
    8
 71
    3
 72
    8
 73
    4
 74
    0
 42
1e-07
 43
1e-07
 40
0
 40
0
 40
0
 40
0
 40
1
 40
1
 40
1
 40
1
 10
104.650506
 20
56.517032
 30
0
 10
104.650506
 20
56.258801
 30
0
 10
104.562707
 20
56.059317
 30
0
 10
104.38711
 20
55.918581
 30
0
  0
SPLINE
  5
66
100
AcDbEntity
  8
TEXT
  6
ByLayer
 62
    7
370
   -1
100
AcDbSpline
210
0
220
0
230
0
 70
    8
 71
    3
 72
    8
 73
    4
 74
    0
 42
1e-07
 43
1e-07
 40
0
 40
0
 40
0
 40
0
 40
1
 40
1
 40
1
 40
1
 10
104.38711
 20
55.918581
 30
0
 10
104.211513
 20
55.777845
 30
0
 10
103.961675
 20
55.707477
 30
0
 10
103.637595
 20
55.707477
 30
0
  0
LWPOLYLINE
  5
67
100
AcDbEntity
  8
TEXT
  6
ByLayer
 62
    7
370
   -1
100
AcDbPolyline
 90
    2
 70
    0
 43
0
 10
102.599506
 20
58.59902
 10
103.59886
 20
58.59902
  0
LWPOLYLINE
  5
68
100
AcDbEntity
  8
TEXT
  6
ByLayer
 62
    7
370
   -1
100
AcDbPolyline
 90
    3
 70
    0
 43
0
 10
103.637595
 20
55.707477
 10
102.599506
 20
55.707477
 10
102.599506
 20
58.59902
  0
SPLINE
  5
69
100
AcDbEntity
  8
TEXT
  6
ByLayer
 62
    7
370
   -1
100
AcDbSpline
210
0
220
0
230
0
 70
    8
 71
    3
 72
    8
 73
    4
 74
    0
 42
1e-07
 43
1e-07
 40
0
 40
0
 40
0
 40
0
 40
1
 40
1
 40
1
 40
1
 10
65.790921
 20
57.963772
 30
0
 10
65.659223
 20
58.086431
 30
0
 10
65.51848699999999
 20
58.178103
 30
0
 10
65.368713
 20
58.238788
 30
0
  0
SPLINE
  5
6A
100
AcDbEntity
  8
TEXT
  6
ByLayer
 62
    7
370
   -1
100
AcDbSpline
210
0
220
0
230
0
 70
    8
 71
    3
 72
    8
 73
    4
 74
    0
 42
1e-07
 43
1e-07
 40
0
 40
0
 40
0
 40
0
 40
1
 40
1
 40
1
 40
1
 10
65.368713
 20
58.238788
 30
0
 10
65.22023
 20
58.299475
 30
0
 10
65.06206400000001
 20
58.329818
 30
0
 10
64.89421400000001
 20
58.329818
 30
0
  0
SPLINE
  5
6B
100
AcDbEntity
  8
TEXT
  6
ByLayer
 62
    7
370
   -1
100
AcDbSpline
210
0
220
0
230
0
 70
    8
 71
    3
 72
    8
 73
    4
 74
    0
 42
1e-07
 43
1e-07
 40
0
 40
0
 40
0
 40
0
 40
1
 40
1
 40
1
 40
1
 10
64.89421400000001
 20
58.329818
 30
0
 10
64.563678
 20
58.329818
 30
0
 10
64.31061099999999
 20
58.228462
 30
0
 10
64.135014
 20
58.025751
 30
0
  0
SPLINE
  5
6C
100
AcDbEntity
  8
TEXT
  6
ByLayer
 62
    7
370
   -1
100
AcDbSpline
210
0
220
0
230
0
 70
    8
 71
    3
 72
    8
 73
    4
 74
    0
 42
1e-07
 43
1e-07
 40
0
 40
0
 40
0
 40
0
 40
1
 40
1
 40
1
 40
1
 10
64.135014
 20
58.025751
 30
0
 10
63.959417
 20
57.824331
 30
0
 10
63.871618
 20
57.53253
 30
0
 10
63.871618
 20
57.150348
 30
0
  0
SPLINE
  5
6D
100
AcDbEntity
  8
TEXT
  6
ByLayer
 62
    7
370
   -1
100
AcDbSpline
210
0
220
0
230
0
 70
    8
 71
    3
 72
    8
 73
    4
 74
    0
 42
1e-07
 43
1e-07
 40
0
 40
0
 40
0
 40
0
 40
1
 40
1
 40
1
 40
1
 10
63.871618
 20
57.150348
 30
0
 10
63.871618
 20
56.769457
 30
0
 10
63.959417
 20
56.477655
 30
0
 10
64.135014
 20
56.274944
 30
0
  0
SPLINE
  5
6E
100
AcDbEntity
  8
TEXT
  6
ByLayer
 62
    7
370
   -1
100
AcDbSpline
210
0
220
0
230
0
 70
    8
 71
    3
 72
    8
 73
    4
 74
    0
 42
1e-07
 43
1e-07
 40
0
 40
0
 40
0
 40
0
 40
1
 40
1
 40
1
 40
1
 10
64.135014
 20
56.274944
 30
0
 10
64.31061099999999
 20
56.073524
 30
0
 10
64.563678
 20
55.972814
 30
0
 10
64.89421400000001
 20
55.972814
 30
0
  0
SPLINE
  5
6F
100
AcDbEntity
  8
TEXT
  6
ByLayer
 62
    7
370
   -1
100
AcDbSpline
210
0
220
0
230
0
 70
    8
 71
    3
 72
    8
 73
    4
 74
    0
 42
1e-07
 43
1e-07
 40
0
 40
0
 40
0
 40
0
 40
1
 40
1
 40
1
 40
1
 10
64.89421400000001
 20
55.972814
 30
0
 10
65.06206400000001
 20
55.972814
 30
0
 10
65.22023
 20
56.003157
 30
0
 10
65.368713
 20
56.063844
 30
0
  0
SPLINE
  5
70
100
AcDbEntity
  8
TEXT
  6
ByLayer
 62
    7
370
   -1
100
AcDbSpline
210
0
220
0
230
0
 70
    8
 71
    3
 72
    8
 73
    4
 74
    0
 42
1e-07
 43
1e-07
 40
0
 40
0
 40
0
 40
0
 40
1
 40
1
 40
1
 40
1
 10
65.368713
 20
56.063844
 30
0
 10
65.51848699999999
 20
56.124531
 30
0
 10
65.659223
 20
56.216203
 30
0
 10
65.790921
 20
56.33886
 30
0
  0
LWPOLYLINE
  5
71
100
AcDbEntity
  8
TEXT
  6
ByLayer
 62
    7
370
   -1
100
AcDbPolyline
 90
    2
 70
    0
 43
0
 10
65.790921
 20
58.376296
 10
65.790921
 20
57.963772
  0
SPLINE
  5
72
100
AcDbEntity
  8
TEXT
  6
ByLayer
 62
    7
370
   -1
100
AcDbSpline
210
0
220
0
230
0
 70
    8
 71
    3
 72
    8
 73
    4
 74
    0
 42
1e-07
 43
1e-07
 40
0
 40
0
 40
0
 40
0
 40
1
 40
1
 40
1
 40
1
 10
65.790921
 20
55.93021
 30
0
 10
65.654059
 20
55.837247
 30
0
 10
65.508804
 20
55.767524
 30
0
 10
65.35515599999999
 20
55.721042
 30
0
  0
SPLINE
  5
73
100
AcDbEntity
  8
TEXT
  6
ByLayer
 62
    7
370
   -1
100
AcDbSpline
210
0
220
0
230
0
 70
    8
 71
    3
 72
    8
 73
    4
 74
    0
 42
1e-07
 43
1e-07
 40
0
 40
0
 40
0
 40
0
 40
1
 40
1
 40
1
 40
1
 10
65.35515599999999
 20
55.721042
 30
0
 10
65.2028
 20
55.674562
 30
0
 10
65.04140599999999
 20
55.651322
 30
0
 10
64.87097300000001
 20
55.651322
 30
0
  0
SPLINE
  5
74
100
AcDbEntity
  8
TEXT
  6
ByLayer
 62
    7
370
   -1
100
AcDbSpline
210
0
220
0
230
0
 70
    8
 71
    3
 72
    8
 73
    4
 74
    0
 42
1e-07
 43
1e-07
 40
0
 40
0
 40
0
 40
0
 40
1
 40
1
 40
1
 40
1
 10
64.87097300000001
 20
55.651322
 30
0
 10
64.433271
 20
55.651322
 30
0
 10
64.088532
 20
55.784957
 30
0
 10
63.836757
 20
56.052226
 30
0
  0
SPLINE
  5
75
100
AcDbEntity
  8
TEXT
  6
ByLayer
 62
    7
370
   -1
100
AcDbSpline
210
0
220
0
230
0
 70
    8
 71
    3
 72
    8
 73
    4
 74
    0
 42
1e-07
 43
1e-07
 40
0
 40
0
 40
0
 40
0
 40
1
 40
1
 40
1
 40
1
 10
63.836757
 20
56.052226
 30
0
 10
63.584982
 20
56.320786
 30
0
 10
63.459094
 20
56.686829
 30
0
 10
63.459094
 20
57.150354
 30
0
  0
SPLINE
  5
76
100
AcDbEntity
  8
TEXT
  6
ByLayer
 62
    7
370
   -1
100
AcDbSpline
210
0
220
0
230
0
 70
    8
 71
    3
 72
    8
 73
    4
 74
    0
 42
1e-07
 43
1e-07
 40
0
 40
0
 40
0
 40
0
 40
1
 40
1
 40
1
 40
1
 10
63.459094
 20
57.150354
 30
0
 10
63.459094
 20
57.61517
 30
0
 10
63.584982
 20
57.981212
 30
0
 10
63.836757
 20
58.248481
 30
0
  0
SPLINE
  5
77
100
AcDbEntity
  8
TEXT
  6
ByLayer
 62
    7
370
   -1
100
AcDbSpline
210
0
220
0
230
0
 70
    8
 71
    3
 72
    8
 73
    4
 74
    0
 42
1e-07
 43
1e-07
 40
0
 40
0
 40
0
 40
0
 40
1
 40
1
 40
1
 40
1
 10
63.836757
 20
58.248481
 30
0
 10
64.088532
 20
58.517042
 30
0
 10
64.433271
 20
58.651322
 30
0
 10
64.87097300000001
 20
58.651322
 30
0
  0
SPLINE
  5
78
100
AcDbEntity
  8
TEXT
  6
ByLayer
 62
    7
370
   -1
100
AcDbSpline
210
0
220
0
230
0
 70
    8
 71
    3
 72
    8
 73
    4
 74
    0
 42
1e-07
 43
1e-07
 40
0
 40
0
 40
0
 40
0
 40
1
 40
1
 40
1
 40
1
 10
64.87097300000001
 20
58.651322
 30
0
 10
65.043988
 20
58.651322
 30
0
 10
65.20667299999999
 20
58.628082
 30
0
 10
65.35903
 20
58.581602
 30
0
  0
SPLINE
  5
79
100
AcDbEntity
  8
TEXT
  6
ByLayer
 62
    7
370
   -1
100
AcDbSpline
210
0
220
0
230
0
 70
    8
 71
    3
 72
    8
 73
    4
 74
    0
 42
1e-07
 43
1e-07
 40
0
 40
0
 40
0
 40
0
 40
1
 40
1
 40
1
 40
1
 10
65.35903
 20
58.581602
 30
0
 10
65.512677
 20
58.536409
 30
0
 10
65.65664099999999
 20
58.467978
 30
0
 10
65.790921
 20
58.376309
 30
0
  0
LWPOLYLINE
  5
7A
100
AcDbEntity
  8
TEXT
  6
ByLayer
 62
    7
370
   -1
100
AcDbPolyline
 90
    2
 70
    0
 43
0
 10
65.790921
 20
56.33886
 10
65.790921
 20
55.93021
  0
LWPOLYLINE
  5
7B
100
AcDbEntity
  8
TEXT
  6
ByLayer
 62
    7
370
   -1
100
AcDbPolyline
 90
    1
 70
    1
 43
0
 10
65.790921
 20
58.376309
  0
SPLINE
  5
7C
100
AcDbEntity
  8
TEXT
  6
ByLayer
 62
    7
370
   -1
100
AcDbSpline
210
0
220
0
230
0
 70
    8
 71
    3
 72
    8
 73
    4
 74
    0
 42
1e-07
 43
1e-07
 40
0
 40
0
 40
0
 40
0
 40
1
 40
1
 40
1
 40
1
 10
25.273488
 20
56.085143
 30
0
 10
25.672455
 20
56.085143
 30
0
 10
25.964257
 20
56.175524
 30
0
 10
26.148892
 20
56.356285
 30
0
  0
SPLINE
  5
7D
100
AcDbEntity
  8
TEXT
  6
ByLayer
 62
    7
370
   -1
100
AcDbSpline
210
0
220
0
230
0
 70
    8
 71
    3
 72
    8
 73
    4
 74
    0
 42
1e-07
 43
1e-07
 40
0
 40
0
 40
0
 40
0
 40
1
 40
1
 40
1
 40
1
 10
26.148892
 20
56.356285
 30
0
 10
26.334818
 20
56.537047
 30
0
 10
26.427781
 20
56.822392
 30
0
 10
26.427781
 20
57.212321
 30
0
  0
SPLINE
  5
7E
100
AcDbEntity
  8
TEXT
  6
ByLayer
 62
    7
370
   -1
100
AcDbSpline
210
0
220
0
230
0
 70
    8
 71
    3
 72
    8
 73
    4
 74
    0
 42
1e-07
 43
1e-07
 40
0
 40
0
 40
0
 40
0
 40
1
 40
1
 40
1
 40
1
 10
26.427781
 20
57.212321
 30
0
 10
26.427781
 20
57.599668
 30
0
 10
26.334818
 20
57.883076
 30
0
 10
26.148892
 20
58.062547
 30
0
  0
SPLINE
  5
7F
100
AcDbEntity
  8
TEXT
  6
ByLayer
 62
    7
370
   -1
100
AcDbSpline
210
0
220
0
230
0
 70
    8
 71
    3
 72
    8
 73
    4
 74
    0
 42
1e-07
 43
1e-07
 40
0
 40
0
 40
0
 40
0
 40
1
 40
1
 40
1
 40
1
 10
26.148892
 20
58.062547
 30
0
 10
25.964257
 20
58.243309
 30
0
 10
25.672455
 20
58.33369
 30
0
 10
25.273488
 20
58.33369
 30
0
  0
LWPOLYLINE
  5
80
100
AcDbEntity
  8
TEXT
  6
ByLayer
 62
    7
370
   -1
100
AcDbPolyline
 90
    3
 70
    0
 43
0
 10
24.800925
 20
58.33369
 10
24.800925
 20
56.085143
 10
25.273488
 20
56.085143
  0
LWPOLYLINE
  5
81
100
AcDbEntity
  8
TEXT
  6
ByLayer
 62
    7
370
   -1
100
AcDbPolyline
 90
    2
 70
    0
 43
0
 10
25.273488
 20
58.33369
 10
24.800925
 20
58.33369
  0
SPLINE
  5
82
100
AcDbEntity
  8
TEXT
  6
ByLayer
 62
    7
370
   -1
100
AcDbSpline
210
0
220
0
230
0
 70
    8
 71
    3
 72
    8
 73
    4
 74
    0
 42
1e-07
 43
1e-07
 40
0
 40
0
 40
0
 40
0
 40
1
 40
1
 40
1
 40
1
 10
25.21345
 20
58.655188
 30
0
 10
25.773811
 20
58.655188
 30
0
 10
26.185044
 20
58.538338
 30
0
 10
26.447149
 20
58.304639
 30
0
  0
SPLINE
  5
83
100
AcDbEntity
  8
TEXT
  6
ByLayer
 62
    7
370
   -1
100
AcDbSpline
210
0
220
0
230
0
 70
    8
 71
    3
 72
    8
 73
    4
 74
    0
 42
1e-07
 43
1e-07
 40
0
 40
0
 40
0
 40
0
 40
1
 40
1
 40
1
 40
1
 10
26.447149
 20
58.304639
 30
0
 10
26.709254
 20
58.072231
 30
0
 10
26.840306
 20
57.708125
 30
0
 10
26.840306
 20
57.212321
 30
0
  0
SPLINE
  5
84
100
AcDbEntity
  8
TEXT
  6
ByLayer
 62
    7
370
   -1
100
AcDbSpline
210
0
220
0
230
0
 70
    8
 71
    3
 72
    8
 73
    4
 74
    0
 42
1e-07
 43
1e-07
 40
0
 40
0
 40
0
 40
0
 40
1
 40
1
 40
1
 40
1
 10
26.840306
 20
57.212321
 30
0
 10
26.840306
 20
56.713935
 30
0
 10
26.708608
 20
56.347893
 30
0
 10
26.445212
 20
56.114194
 30
0
  0
SPLINE
  5
85
100
AcDbEntity
  8
TEXT
  6
ByLayer
 62
    7
370
   -1
100
AcDbSpline
210
0
220
0
230
0
 70
    8
 71
    3
 72
    8
 73
    4
 74
    0
 42
1e-07
 43
1e-07
 40
0
 40
0
 40
0
 40
0
 40
1
 40
1
 40
1
 40
1
 10
26.445212
 20
56.114194
 30
0
 10
26.181816
 20
55.880495
 30
0
 10
25.771229
 20
55.763645
 30
0
 10
25.21345
 20
55.763645
 30
0
  0
LWPOLYLINE
  5
86
100
AcDbEntity
  8
TEXT
  6
ByLayer
 62
    7
370
   -1
100
AcDbPolyline
 90
    2
 70
    0
 43
0
 10
24.409705
 20
58.655188
 10
25.21345
 20
58.655188
  0
LWPOLYLINE
  5
87
100
AcDbEntity
  8
TEXT
  6
ByLayer
 62
    7
370
   -1
100
AcDbPolyline
 90
    3
 70
    0
 43
0
 10
25.21345
 20
55.763645
 10
24.409705
 20
55.763645
 10
24.409705
 20
58.655188
  0
SPLINE
  5
88
100
AcDbEntity
  8
TEXT
  6
ByLayer
 62
    7
370
   -1
100
AcDbSpline
210
0
220
0
230
0
 70
    8
 71
    3
 72
    8
 73
    4
 74
    0
 42
1e-07
 43
1e-07
 40
0
 40
0
 40
0
 40
0
 40
1
 40
1
 40
1
 40
1
 10
173.689126
 20
57.247183
 30
0
 10
173.871179
 20
57.247183
 30
0
 10
174.011915
 20
57.29431
 30
0
 10
174.111334
 20
57.388564
 30
0
  0
SPLINE
  5
89
100
AcDbEntity
  8
TEXT
  6
ByLayer
 62
    7
370
   -1
100
AcDbSpline
210
0
220
0
230
0
 70
    8
 71
    3
 72
    8
 73
    4
 74
    0
 42
1e-07
 43
1e-07
 40
0
 40
0
 40
0
 40
0
 40
1
 40
1
 40
1
 40
1
 10
174.111334
 20
57.388564
 30
0
 10
174.210753
 20
57.482819
 30
0
 10
174.260463
 20
57.617099
 30
0
 10
174.260463
 20
57.791405
 30
0
  0
SPLINE
  5
8A
100
AcDbEntity
  8
TEXT
  6
ByLayer
 62
    7
370
   -1
100
AcDbSpline
210
0
220
0
230
0
 70
    8
 71
    3
 72
    8
 73
    4
 74
    0
 42
1e-07
 43
1e-07
 40
0
 40
0
 40
0
 40
0
 40
1
 40
1
 40
1
 40
1
 10
174.260463
 20
57.791405
 30
0
 10
174.260463
 20
57.96442
 30
0
 10
174.210753
 20
58.098054
 30
0
 10
174.111334
 20
58.192308
 30
0
  0
SPLINE
  5
8B
100
AcDbEntity
  8
TEXT
  6
ByLayer
 62
    7
370
   -1
100
AcDbSpline
210
0
220
0
230
0
 70
    8
 71
    3
 72
    8
 73
    4
 74
    0
 42
1e-07
 43
1e-07
 40
0
 40
0
 40
0
 40
0
 40
1
 40
1
 40
1
 40
1
 10
174.111334
 20
58.192308
 30
0
 10
174.011915
 20
58.286563
 30
0
 10
173.871179
 20
58.33369
 30
0
 10
173.689126
 20
58.33369
 30
0
  0
LWPOLYLINE
  5
8C
100
AcDbEntity
  8
TEXT
  6
ByLayer
 62
    7
370
   -1
100
AcDbPolyline
 90
    3
 70
    0
 43
0
 10
173.197196
 20
58.33369
 10
173.197196
 20
57.247183
 10
173.689126
 20
57.247183
  0
LWPOLYLINE
  5
8D
100
AcDbEntity
  8
TEXT
  6
ByLayer
 62
    7
370
   -1
100
AcDbPolyline
 90
    2
 70
    0
 43
0
 10
173.689126
 20
58.33369
 10
173.197196
 20
58.33369
  0
SPLINE
  5
8E
100
AcDbEntity
  8
TEXT
  6
ByLayer
 62
    7
370
   -1
100
AcDbSpline
210
0
220
0
230
0
 70
    8
 71
    3
 72
    8
 73
    4
 74
    0
 42
1e-07
 43
1e-07
 40
0
 40
0
 40
0
 40
0
 40
1
 40
1
 40
1
 40
1
 10
173.689126
 20
58.655188
 30
0
 10
174.013206
 20
58.655188
 30
0
 10
174.25788
 20
58.581592
 30
0
 10
174.423148
 20
58.4344
 30
0
  0
SPLINE
  5
8F
100
AcDbEntity
  8
TEXT
  6
ByLayer
 62
    7
370
   -1
100
AcDbSpline
210
0
220
0
230
0
 70
    8
 71
    3
 72
    8
 73
    4
 74
    0
 42
1e-07
 43
1e-07
 40
0
 40
0
 40
0
 40
0
 40
1
 40
1
 40
1
 40
1
 10
174.423148
 20
58.4344
 30
0
 10
174.589707
 20
58.288499
 30
0
 10
174.672987
 20
58.074168
 30
0
 10
174.672987
 20
57.791405
 30
0
  0
SPLINE
  5
90
100
AcDbEntity
  8
TEXT
  6
ByLayer
 62
    7
370
   -1
100
AcDbSpline
210
0
220
0
230
0
 70
    8
 71
    3
 72
    8
 73
    4
 74
    0
 42
1e-07
 43
1e-07
 40
0
 40
0
 40
0
 40
0
 40
1
 40
1
 40
1
 40
1
 10
174.672987
 20
57.791405
 30
0
 10
174.672987
 20
57.50606
 30
0
 10
174.589707
 20
57.290437
 30
0
 10
174.423148
 20
57.144536
 30
0
  0
SPLINE
  5
91
100
AcDbEntity
  8
TEXT
  6
ByLayer
 62
    7
370
   -1
100
AcDbSpline
210
0
220
0
230
0
 70
    8
 71
    3
 72
    8
 73
    4
 74
    0
 42
1e-07
 43
1e-07
 40
0
 40
0
 40
0
 40
0
 40
1
 40
1
 40
1
 40
1
 10
174.423148
 20
57.144536
 30
0
 10
174.25788
 20
56.998635
 30
0
 10
174.013206
 20
56.925685
 30
0
 10
173.689126
 20
56.925685
 30
0
  0
LWPOLYLINE
  5
92
100
AcDbEntity
  8
TEXT
  6
ByLayer
 62
    7
370
   -1
100
AcDbPolyline
 90
    2
 70
    0
 43
0
 10
172.805976
 20
58.655188
 10
173.689126
 20
58.655188
  0
SPLINE
  5
93
100
AcDbEntity
  8
TEXT
  6
ByLayer
 62
    7
370
   -1
100
AcDbSpline
210
0
220
0
230
0
 70
    8
 71
    3
 72
    8
 73
    4
 74
    0
 42
1e-07
 43
1e-07
 40
0
 40
0
 40
0
 40
0
 40
1
 40
1
 40
1
 40
1
 10
175.881509
 20
57.682948
 30
0
 10
175.690418
 20
57.682948
 30
0
 10
175.539352
 20
57.608061
 30
0
 10
175.428313
 20
57.458286
 30
0
  0
SPLINE
  5
94
100
AcDbEntity
  8
TEXT
  6
ByLayer
 62
    7
370
   -1
100
AcDbSpline
210
0
220
0
230
0
 70
    8
 71
    3
 72
    8
 73
    4
 74
    0
 42
1e-07
 43
1e-07
 40
0
 40
0
 40
0
 40
0
 40
1
 40
1
 40
1
 40
1
 10
175.428313
 20
57.458286
 30
0
 10
175.317274
 20
57.309803
 30
0
 10
175.261754
 20
57.105801
 30
0
 10
175.261754
 20
56.846279
 30
0
  0
SPLINE
  5
95
100
AcDbEntity
  8
TEXT
  6
ByLayer
 62
    7
370
   -1
100
AcDbSpline
210
0
220
0
230
0
 70
    8
 71
    3
 72
    8
 73
    4
 74
    0
 42
1e-07
 43
1e-07
 40
0
 40
0
 40
0
 40
0
 40
1
 40
1
 40
1
 40
1
 10
175.261754
 20
56.846279
 30
0
 10
175.261754
 20
56.586756
 30
0
 10
175.316628
 20
56.382108
 30
0
 10
175.426376
 20
56.232334
 30
0
  0
SPLINE
  5
96
100
AcDbEntity
  8
TEXT
  6
ByLayer
 62
    7
370
   -1
100
AcDbSpline
210
0
220
0
230
0
 70
    8
 71
    3
 72
    8
 73
    4
 74
    0
 42
1e-07
 43
1e-07
 40
0
 40
0
 40
0
 40
0
 40
1
 40
1
 40
1
 40
1
 10
175.426376
 20
56.232334
 30
0
 10
175.537415
 20
56.083851
 30
0
 10
175.689126
 20
56.00961
 30
0
 10
175.881509
 20
56.00961
 30
0
  0
SPLINE
  5
97
100
AcDbEntity
  8
TEXT
  6
ByLayer
 62
    7
370
   -1
100
AcDbSpline
210
0
220
0
230
0
 70
    8
 71
    3
 72
    8
 73
    4
 74
    0
 42
1e-07
 43
1e-07
 40
0
 40
0
 40
0
 40
0
 40
1
 40
1
 40
1
 40
1
 10
175.881509
 20
56.00961
 30
0
 10
176.071308
 20
56.00961
 30
0
 10
176.221728
 20
56.084497
 30
0
 10
176.332767
 20
56.234271
 30
0
  0
SPLINE
  5
98
100
AcDbEntity
  8
TEXT
  6
ByLayer
 62
    7
370
   -1
100
AcDbSpline
210
0
220
0
230
0
 70
    8
 71
    3
 72
    8
 73
    4
 74
    0
 42
1e-07
 43
1e-07
 40
0
 40
0
 40
0
 40
0
 40
1
 40
1
 40
1
 40
1
 10
176.332767
 20
56.234271
 30
0
 10
176.443807
 20
56.384045
 30
0
 10
176.499327
 20
56.588048
 30
0
 10
176.499327
 20
56.846279
 30
0
  0
SPLINE
  5
99
100
AcDbEntity
  8
TEXT
  6
ByLayer
 62
    7
370
   -1
100
AcDbSpline
210
0
220
0
230
0
 70
    8
 71
    3
 72
    8
 73
    4
 74
    0
 42
1e-07
 43
1e-07
 40
0
 40
0
 40
0
 40
0
 40
1
 40
1
 40
1
 40
1
 10
176.499327
 20
56.846279
 30
0
 10
176.499327
 20
57.103219
 30
0
 10
176.443807
 20
57.306576
 30
0
 10
176.332767
 20
57.45635
 30
0
  0
SPLINE
  5
9A
100
AcDbEntity
  8
TEXT
  6
ByLayer
 62
    7
370
   -1
100
AcDbSpline
210
0
220
0
230
0
 70
    8
 71
    3
 72
    8
 73
    4
 74
    0
 42
1e-07
 43
1e-07
 40
0
 40
0
 40
0
 40
0
 40
1
 40
1
 40
1
 40
1
 10
176.332767
 20
57.45635
 30
0
 10
176.221728
 20
57.607415
 30
0
 10
176.071308
 20
57.682948
 30
0
 10
175.881509
 20
57.682948
 30
0
  0
LWPOLYLINE
  5
9B
100
AcDbEntity
  8
TEXT
  6
ByLayer
 62
    7
370
   -1
100
AcDbPolyline
 90
    5
 70
    0
 43
0
 10
173.689126
 20
56.925685
 10
173.197196
 20
56.925685
 10
173.197196
 20
55.763645
 10
172.805976
 20
55.763645
 10
172.805976
 20
58.655188
  0
SPLINE
  5
9C
100
AcDbEntity
  8
TEXT
  6
ByLayer
 62
    7
370
   -1
100
AcDbSpline
210
0
220
0
230
0
 70
    8
 71
    3
 72
    8
 73
    4
 74
    0
 42
1e-07
 43
1e-07
 40
0
 40
0
 40
0
 40
0
 40
1
 40
1
 40
1
 40
1
 10
175.881509
 20
57.985078
 30
0
 10
176.191386
 20
57.985078
 30
0
 10
176.434769
 20
57.884368
 30
0
 10
176.611657
 20
57.682948
 30
0
  0
SPLINE
  5
9D
100
AcDbEntity
  8
TEXT
  6
ByLayer
 62
    7
370
   -1
100
AcDbSpline
210
0
220
0
230
0
 70
    8
 71
    3
 72
    8
 73
    4
 74
    0
 42
1e-07
 43
1e-07
 40
0
 40
0
 40
0
 40
0
 40
1
 40
1
 40
1
 40
1
 10
176.611657
 20
57.682948
 30
0
 10
176.788546
 20
57.481527
 30
0
 10
176.87699
 20
57.202638
 30
0
 10
176.87699
 20
56.846279
 30
0
  0
SPLINE
  5
9E
100
AcDbEntity
  8
TEXT
  6
ByLayer
 62
    7
370
   -1
100
AcDbSpline
210
0
220
0
230
0
 70
    8
 71
    3
 72
    8
 73
    4
 74
    0
 42
1e-07
 43
1e-07
 40
0
 40
0
 40
0
 40
0
 40
1
 40
1
 40
1
 40
1
 10
176.87699
 20
56.846279
 30
0
 10
176.87699
 20
56.491211
 30
0
 10
176.788546
 20
56.212321
 30
0
 10
176.611657
 20
56.00961
 30
0
  0
SPLINE
  5
9F
100
AcDbEntity
  8
TEXT
  6
ByLayer
 62
    7
370
   -1
100
AcDbSpline
210
0
220
0
230
0
 70
    8
 71
    3
 72
    8
 73
    4
 74
    0
 42
1e-07
 43
1e-07
 40
0
 40
0
 40
0
 40
0
 40
1
 40
1
 40
1
 40
1
 10
176.611657
 20
56.00961
 30
0
 10
176.434769
 20
55.80819
 30
0
 10
176.191386
 20
55.70748
 30
0
 10
175.881509
 20
55.70748
 30
0
  0
SPLINE
  5
A0
100
AcDbEntity
  8
TEXT
  6
ByLayer
 62
    7
370
   -1
100
AcDbSpline
210
0
220
0
230
0
 70
    8
 71
    3
 72
    8
 73
    4
 74
    0
 42
1e-07
 43
1e-07
 40
0
 40
0
 40
0
 40
0
 40
1
 40
1
 40
1
 40
1
 10
175.881509
 20
55.70748
 30
0
 10
175.57034
 20
55.70748
 30
0
 10
175.326312
 20
55.80819
 30
0
 10
175.149423
 20
56.00961
 30
0
  0
SPLINE
  5
A1
100
AcDbEntity
  8
TEXT
  6
ByLayer
 62
    7
370
   -1
100
AcDbSpline
210
0
220
0
230
0
 70
    8
 71
    3
 72
    8
 73
    4
 74
    0
 42
1e-07
 43
1e-07
 40
0
 40
0
 40
0
 40
0
 40
1
 40
1
 40
1
 40
1
 10
175.149423
 20
56.00961
 30
0
 10
174.973826
 20
56.212321
 30
0
 10
174.886028
 20
56.491211
 30
0
 10
174.886028
 20
56.846279
 30
0
  0
SPLINE
  5
A2
100
AcDbEntity
  8
TEXT
  6
ByLayer
 62
    7
370
   -1
100
AcDbSpline
210
0
220
0
230
0
 70
    8
 71
    3
 72
    8
 73
    4
 74
    0
 42
1e-07
 43
1e-07
 40
0
 40
0
 40
0
 40
0
 40
1
 40
1
 40
1
 40
1
 10
174.886028
 20
56.846279
 30
0
 10
174.886028
 20
57.202638
 30
0
 10
174.973826
 20
57.481527
 30
0
 10
175.149423
 20
57.682948
 30
0
  0
SPLINE
  5
A3
100
AcDbEntity
  8
TEXT
  6
ByLayer
 62
    7
370
   -1
100
AcDbSpline
210
0
220
0
230
0
 70
    8
 71
    3
 72
    8
 73
    4
 74
    0
 42
1e-07
 43
1e-07
 40
0
 40
0
 40
0
 40
0
 40
1
 40
1
 40
1
 40
1
 10
175.149423
 20
57.682948
 30
0
 10
175.326312
 20
57.884368
 30
0
 10
175.57034
 20
57.985078
 30
0
 10
175.881509
 20
57.985078
 30
0
  0
LWPOLYLINE
  5
A4
100
AcDbEntity
  8
TEXT
  6
ByLayer
 62
    7
370
   -1
100
AcDbPolyline
 90
    1
 70
    1
 43
0
 10
175.881509
 20
57.682948
  0
LWPOLYLINE
  5
A5
100
AcDbEntity
  8
TEXT
  6
ByLayer
 62
    7
370
   -1
100
AcDbPolyline
 90
    1
 70
    1
 43
0
 10
175.881509
 20
57.985078
  0
LWPOLYLINE
  5
A6
100
AcDbEntity
  8
TEXT
  6
ByLayer
 62
    7
370
   -1
100
AcDbPolyline
 90
   13
 70
    1
 43
0
 10
177.260462
 20
57.932786
 10
177.616821
 20
57.932786
 10
178.06227
 20
56.240081
 10
178.505782
 20
57.932786
 10
178.926053
 20
57.932786
 10
179.371502
 20
56.240081
 10
179.815014
 20
57.932786
 10
180.171373
 20
57.932786
 10
179.60391
 20
55.763645
 10
179.183639
 20
55.763645
 10
178.716886
 20
57.541566
 10
178.248196
 20
55.763645
 10
177.827925
 20
55.763645
  0
SPLINE
  5
A7
100
AcDbEntity
  8
TEXT
  6
ByLayer
 62
    7
370
   -1
100
AcDbSpline
210
0
220
0
230
0
 70
    8
 71
    3
 72
    8
 73
    4
 74
    0
 42
1e-07
 43
1e-07
 40
0
 40
0
 40
0
 40
0
 40
1
 40
1
 40
1
 40
1
 10
180.928636
 20
56.762999
 30
0
 10
180.944129
 20
56.51768
 30
0
 10
181.017725
 20
56.330462
 30
0
 10
181.149423
 20
56.201347
 30
0
  0
SPLINE
  5
A8
100
AcDbEntity
  8
TEXT
  6
ByLayer
 62
    7
370
   -1
100
AcDbSpline
210
0
220
0
230
0
 70
    8
 71
    3
 72
    8
 73
    4
 74
    0
 42
1e-07
 43
1e-07
 40
0
 40
0
 40
0
 40
0
 40
1
 40
1
 40
1
 40
1
 10
181.149423
 20
56.201347
 30
0
 10
181.282412
 20
56.073522
 30
0
 10
181.467048
 20
56.00961
 30
0
 10
181.703329
 20
56.00961
 30
0
  0
SPLINE
  5
A9
100
AcDbEntity
  8
TEXT
  6
ByLayer
 62
    7
370
   -1
100
AcDbSpline
210
0
220
0
230
0
 70
    8
 71
    3
 72
    8
 73
    4
 74
    0
 42
1e-07
 43
1e-07
 40
0
 40
0
 40
0
 40
0
 40
1
 40
1
 40
1
 40
1
 10
181.703329
 20
56.00961
 30
0
 10
181.840192
 20
56.00961
 30
0
 10
181.972535
 20
56.026393
 30
0
 10
182.100359
 20
56.05996
 30
0
  0
SPLINE
  5
AA
100
AcDbEntity
  8
TEXT
  6
ByLayer
 62
    7
370
   -1
100
AcDbSpline
210
0
220
0
230
0
 70
    8
 71
    3
 72
    8
 73
    4
 74
    0
 42
1e-07
 43
1e-07
 40
0
 40
0
 40
0
 40
0
 40
1
 40
1
 40
1
 40
1
 10
182.100359
 20
56.05996
 30
0
 10
182.229475
 20
56.093527
 30
0
 10
182.3573
 20
56.143882
 30
0
 10
182.483833
 20
56.211025
 30
0
  0
LWPOLYLINE
  5
AB
100
AcDbEntity
  8
TEXT
  6
ByLayer
 62
    7
370
   -1
100
AcDbPolyline
 90
    3
 70
    0
 43
0
 10
182.567112
 20
56.937305
 10
182.567112
 20
56.762999
 10
180.928636
 20
56.762999
  0
SPLINE
  5
AC
100
AcDbEntity
  8
TEXT
  6
ByLayer
 62
    7
370
   -1
100
AcDbSpline
210
0
220
0
230
0
 70
    8
 71
    3
 72
    8
 73
    4
 74
    0
 42
1e-07
 43
1e-07
 40
0
 40
0
 40
0
 40
0
 40
1
 40
1
 40
1
 40
1
 10
182.483833
 20
55.874034
 30
0
 10
182.356008
 20
55.819807
 30
0
 10
182.224956
 20
55.77849
 30
0
 10
182.090676
 20
55.750083
 30
0
  0
SPLINE
  5
AD
100
AcDbEntity
  8
TEXT
  6
ByLayer
 62
    7
370
   -1
100
AcDbSpline
210
0
220
0
230
0
 70
    8
 71
    3
 72
    8
 73
    4
 74
    0
 42
1e-07
 43
1e-07
 40
0
 40
0
 40
0
 40
0
 40
1
 40
1
 40
1
 40
1
 10
182.090676
 20
55.750083
 30
0
 10
181.956395
 20
55.721676
 30
0
 10
181.820178
 20
55.707473
 30
0
 10
181.682025
 20
55.707473
 30
0
  0
SPLINE
  5
AE
100
AcDbEntity
  8
TEXT
  6
ByLayer
 62
    7
370
   -1
100
AcDbSpline
210
0
220
0
230
0
 70
    8
 71
    3
 72
    8
 73
    4
 74
    0
 42
1e-07
 43
1e-07
 40
0
 40
0
 40
0
 40
0
 40
1
 40
1
 40
1
 40
1
 10
181.682025
 20
55.707473
 30
0
 10
181.335995
 20
55.707473
 30
0
 10
181.061624
 20
55.808183
 30
0
 10
180.858913
 20
56.009603
 30
0
  0
SPLINE
  5
AF
100
AcDbEntity
  8
TEXT
  6
ByLayer
 62
    7
370
   -1
100
AcDbSpline
210
0
220
0
230
0
 70
    8
 71
    3
 72
    8
 73
    4
 74
    0
 42
1e-07
 43
1e-07
 40
0
 40
0
 40
0
 40
0
 40
1
 40
1
 40
1
 40
1
 10
180.858913
 20
56.009603
 30
0
 10
180.657493
 20
56.211023
 30
0
 10
180.556783
 20
56.483457
 30
0
 10
180.556783
 20
56.826904
 30
0
  0
SPLINE
  5
B0
100
AcDbEntity
  8
TEXT
  6
ByLayer
 62
    7
370
   -1
100
AcDbSpline
210
0
220
0
230
0
 70
    8
 71
    3
 72
    8
 73
    4
 74
    0
 42
1e-07
 43
1e-07
 40
0
 40
0
 40
0
 40
0
 40
1
 40
1
 40
1
 40
1
 10
180.556783
 20
56.826904
 30
0
 10
180.556783
 20
57.181972
 30
0
 10
180.652328
 20
57.463444
 30
0
 10
180.843419
 20
57.67132
 30
0
  0
SPLINE
  5
B1
100
AcDbEntity
  8
TEXT
  6
ByLayer
 62
    7
370
   -1
100
AcDbSpline
210
0
220
0
230
0
 70
    8
 71
    3
 72
    8
 73
    4
 74
    0
 42
1e-07
 43
1e-07
 40
0
 40
0
 40
0
 40
0
 40
1
 40
1
 40
1
 40
1
 10
180.843419
 20
57.67132
 30
0
 10
181.035802
 20
57.880487
 30
0
 10
181.294678
 20
57.985071
 30
0
 10
181.620049
 20
57.985071
 30
0
  0
SPLINE
  5
B2
100
AcDbEntity
  8
TEXT
  6
ByLayer
 62
    7
370
   -1
100
AcDbSpline
210
0
220
0
230
0
 70
    8
 71
    3
 72
    8
 73
    4
 74
    0
 42
1e-07
 43
1e-07
 40
0
 40
0
 40
0
 40
0
 40
1
 40
1
 40
1
 40
1
 10
181.620049
 20
57.985071
 30
0
 10
181.91185
 20
57.985071
 30
0
 10
182.142322
 20
57.890817
 30
0
 10
182.311463
 20
57.702308
 30
0
  0
SPLINE
  5
B3
100
AcDbEntity
  8
TEXT
  6
ByLayer
 62
    7
370
   -1
100
AcDbSpline
210
0
220
0
230
0
 70
    8
 71
    3
 72
    8
 73
    4
 74
    0
 42
1e-07
 43
1e-07
 40
0
 40
0
 40
0
 40
0
 40
1
 40
1
 40
1
 40
1
 10
182.311463
 20
57.702308
 30
0
 10
182.481896
 20
57.515091
 30
0
 10
182.567112
 20
57.260087
 30
0
 10
182.567112
 20
56.937298
 30
0
  0
LWPOLYLINE
  5
B4
100
AcDbEntity
  8
TEXT
  6
ByLayer
 62
    7
370
   -1
100
AcDbPolyline
 90
    2
 70
    0
 43
0
 10
182.483833
 20
56.211025
 10
182.483833
 20
55.874034
  0
SPLINE
  5
B5
100
AcDbEntity
  8
TEXT
  6
ByLayer
 62
    7
370
   -1
100
AcDbSpline
210
0
220
0
230
0
 70
    8
 71
    3
 72
    8
 73
    4
 74
    0
 42
1e-07
 43
1e-07
 40
0
 40
0
 40
0
 40
0
 40
1
 40
1
 40
1
 40
1
 10
182.210753
 20
57.041889
 30
0
 10
182.208153
 20
57.236854
 30
0
 10
182.153279
 20
57.392438
 30
0
 10
182.046131
 20
57.508642
 30
0
  0
SPLINE
  5
B6
100
AcDbEntity
  8
TEXT
  6
ByLayer
 62
    7
370
   -1
100
AcDbSpline
210
0
220
0
230
0
 70
    8
 71
    3
 72
    8
 73
    4
 74
    0
 42
1e-07
 43
1e-07
 40
0
 40
0
 40
0
 40
0
 40
1
 40
1
 40
1
 40
1
 10
182.046131
 20
57.508642
 30
0
 10
181.940256
 20
57.624846
 30
0
 10
181.79952
 20
57.682948
 30
0
 10
181.623923
 20
57.682948
 30
0
  0
SPLINE
  5
B7
100
AcDbEntity
  8
TEXT
  6
ByLayer
 62
    7
370
   -1
100
AcDbSpline
210
0
220
0
230
0
 70
    8
 71
    3
 72
    8
 73
    4
 74
    0
 42
1e-07
 43
1e-07
 40
0
 40
0
 40
0
 40
0
 40
1
 40
1
 40
1
 40
1
 10
181.623923
 20
57.682948
 30
0
 10
181.425085
 20
57.682948
 30
0
 10
181.265627
 20
57.626783
 30
0
 10
181.14555
 20
57.514452
 30
0
  0
SPLINE
  5
B8
100
AcDbEntity
  8
TEXT
  6
ByLayer
 62
    7
370
   -1
100
AcDbSpline
210
0
220
0
230
0
 70
    8
 71
    3
 72
    8
 73
    4
 74
    0
 42
1e-07
 43
1e-07
 40
0
 40
0
 40
0
 40
0
 40
1
 40
1
 40
1
 40
1
 10
181.14555
 20
57.514452
 30
0
 10
181.026763
 20
57.402121
 30
0
 10
180.958332
 20
57.243955
 30
0
 10
180.940256
 20
57.039952
 30
0
  0
LWPOLYLINE
  5
B9
100
AcDbEntity
  8
TEXT
  6
ByLayer
 62
    7
370
   -1
100
AcDbPolyline
 90
    1
 70
    1
 43
0
 10
182.567112
 20
56.937298
  0
SPLINE
  5
BA
100
AcDbEntity
  8
TEXT
  6
ByLayer
 62
    7
370
   -1
100
AcDbSpline
210
0
220
0
230
0
 70
    8
 71
    3
 72
    8
 73
    4
 74
    0
 42
1e-07
 43
1e-07
 40
0
 40
0
 40
0
 40
0
 40
1
 40
1
 40
1
 40
1
 10
184.408946
 20
57.599668
 30
0
 10
184.368919
 20
57.622908
 30
0
 10
184.32502
 20
57.639691
 30
0
 10
184.277248
 20
57.650018
 30
0
  0
SPLINE
  5
BB
100
AcDbEntity
  8
TEXT
  6
ByLayer
 62
    7
370
   -1
100
AcDbSpline
210
0
220
0
230
0
 70
    8
 71
    3
 72
    8
 73
    4
 74
    0
 42
1e-07
 43
1e-07
 40
0
 40
0
 40
0
 40
0
 40
1
 40
1
 40
1
 40
1
 10
184.277248
 20
57.650018
 30
0
 10
184.230768
 20
57.661638
 30
0
 10
184.179122
 20
57.667448
 30
0
 10
184.122309
 20
57.667448
 30
0
  0
SPLINE
  5
BC
100
AcDbEntity
  8
TEXT
  6
ByLayer
 62
    7
370
   -1
100
AcDbSpline
210
0
220
0
230
0
 70
    8
 71
    3
 72
    8
 73
    4
 74
    0
 42
1e-07
 43
1e-07
 40
0
 40
0
 40
0
 40
0
 40
1
 40
1
 40
1
 40
1
 10
184.122309
 20
57.667448
 30
0
 10
183.920889
 20
57.667448
 30
0
 10
183.76595
 20
57.601599
 30
0
 10
183.657493
 20
57.469901
 30
0
  0
SPLINE
  5
BD
100
AcDbEntity
  8
TEXT
  6
ByLayer
 62
    7
370
   -1
100
AcDbSpline
210
0
220
0
230
0
 70
    8
 71
    3
 72
    8
 73
    4
 74
    0
 42
1e-07
 43
1e-07
 40
0
 40
0
 40
0
 40
0
 40
1
 40
1
 40
1
 40
1
 10
183.657493
 20
57.469901
 30
0
 10
183.550327
 20
57.339494
 30
0
 10
183.496744
 20
57.151631
 30
0
 10
183.496744
 20
56.906311
 30
0
  0
LWPOLYLINE
  5
BE
100
AcDbEntity
  8
TEXT
  6
ByLayer
 62
    7
370
   -1
100
AcDbPolyline
 90
    2
 70
    0
 43
0
 10
180.940256
 20
57.039952
 10
182.210753
 20
57.041889
  0
SPLINE
  5
BF
100
AcDbEntity
  8
TEXT
  6
ByLayer
 62
    7
370
   -1
100
AcDbSpline
210
0
220
0
230
0
 70
    8
 71
    3
 72
    8
 73
    4
 74
    0
 42
1e-07
 43
1e-07
 40
0
 40
0
 40
0
 40
0
 40
1
 40
1
 40
1
 40
1
 10
183.496744
 20
57.595789
 30
0
 10
183.571631
 20
57.727486
 30
0
 10
183.669114
 20
57.824968
 30
0
 10
183.789191
 20
57.888235
 30
0
  0
SPLINE
  5
C0
100
AcDbEntity
  8
TEXT
  6
ByLayer
 62
    7
370
   -1
100
AcDbSpline
210
0
220
0
230
0
 70
    8
 71
    3
 72
    8
 73
    4
 74
    0
 42
1e-07
 43
1e-07
 40
0
 40
0
 40
0
 40
0
 40
1
 40
1
 40
1
 40
1
 10
183.789191
 20
57.888235
 30
0
 10
183.909268
 20
57.952795
 30
0
 10
184.055169
 20
57.985075
 30
0
 10
184.226893
 20
57.985075
 30
0
  0
SPLINE
  5
C1
100
AcDbEntity
  8
TEXT
  6
ByLayer
 62
    7
370
   -1
100
AcDbSpline
210
0
220
0
230
0
 70
    8
 71
    3
 72
    8
 73
    4
 74
    0
 42
1e-07
 43
1e-07
 40
0
 40
0
 40
0
 40
0
 40
1
 40
1
 40
1
 40
1
 10
184.226893
 20
57.985075
 30
0
 10
184.251426
 20
57.985075
 30
0
 10
184.27854
 20
57.983142
 30
0
 10
184.308233
 20
57.979275
 30
0
  0
SPLINE
  5
C2
100
AcDbEntity
  8
TEXT
  6
ByLayer
 62
    7
370
   -1
100
AcDbSpline
210
0
220
0
230
0
 70
    8
 71
    3
 72
    8
 73
    4
 74
    0
 42
1e-07
 43
1e-07
 40
0
 40
0
 40
0
 40
0
 40
1
 40
1
 40
1
 40
1
 10
184.308233
 20
57.979275
 30
0
 10
184.337926
 20
57.976675
 30
0
 10
184.37085
 20
57.972155
 30
0
 10
184.407003
 20
57.965715
 30
0
  0
LWPOLYLINE
  5
C3
100
AcDbEntity
  8
TEXT
  6
ByLayer
 62
    7
370
   -1
100
AcDbPolyline
 90
    6
 70
    0
 43
0
 10
183.496744
 20
56.906311
 10
183.496744
 20
55.763639
 10
183.138449
 20
55.763639
 10
183.138449
 20
57.93278
 10
183.496744
 20
57.93278
 10
183.496744
 20
57.595789
  0
SPLINE
  5
C4
100
AcDbEntity
  8
CUTOUT
  6
ByLayer
 62
    7
370
   -1
100
AcDbSpline
210
0
220
0
230
0
 70
    8
 71
    3
 72
    8
 73
    4
 74
    0
 42
1e-07
 43
1e-07
 40
0
 40
0
 40
0
 40
0
 40
1
 40
1
 40
1
 40
1
 10
17.725007
 20
22.091545
 30
0
 10
17.725007
 20
22.66317
 30
0
 10
17.420049
 20
23.191374
 30
0
 10
16.925007
 20
23.477186
 30
0
  0
SPLINE
  5
C5
100
AcDbEntity
  8
CUTOUT
  6
ByLayer
 62
    7
370
   -1
100
AcDbSpline
210
0
220
0
230
0
 70
    8
 71
    3
 72
    8
 73
    4
 74
    0
 42
1e-07
 43
1e-07
 40
0
 40
0
 40
0
 40
0
 40
1
 40
1
 40
1
 40
1
 10
16.925007
 20
23.477186
 30
0
 10
16.429965
 20
23.762999
 30
0
 10
15.820048
 20
23.762999
 30
0
 10
15.325006
 20
23.477186
 30
0
  0
SPLINE
  5
C6
100
AcDbEntity
  8
CUTOUT
  6
ByLayer
 62
    7
370
   -1
100
AcDbSpline
210
0
220
0
230
0
 70
    8
 71
    3
 72
    8
 73
    4
 74
    0
 42
1e-07
 43
1e-07
 40
0
 40
0
 40
0
 40
0
 40
1
 40
1
 40
1
 40
1
 10
15.325006
 20
23.477186
 30
0
 10
14.829964
 20
23.191374
 30
0
 10
14.525006
 20
22.66317
 30
0
 10
14.525006
 20
22.091545
 30
0
  0
SPLINE
  5
C7
100
AcDbEntity
  8
CUTOUT
  6
ByLayer
 62
    7
370
   -1
100
AcDbSpline
210
0
220
0
230
0
 70
    8
 71
    3
 72
    8
 73
    4
 74
    0
 42
1e-07
 43
1e-07
 40
0
 40
0
 40
0
 40
0
 40
1
 40
1
 40
1
 40
1
 10
14.525006
 20
22.091545
 30
0
 10
14.525006
 20
21.51992
 30
0
 10
14.829964
 20
20.991716
 30
0
 10
15.325006
 20
20.705904
 30
0
  0
SPLINE
  5
C8
100
AcDbEntity
  8
CUTOUT
  6
ByLayer
 62
    7
370
   -1
100
AcDbSpline
210
0
220
0
230
0
 70
    8
 71
    3
 72
    8
 73
    4
 74
    0
 42
1e-07
 43
1e-07
 40
0
 40
0
 40
0
 40
0
 40
1
 40
1
 40
1
 40
1
 10
15.325006
 20
20.705904
 30
0
 10
15.820048
 20
20.420091
 30
0
 10
16.429965
 20
20.420091
 30
0
 10
16.925007
 20
20.705904
 30
0
  0
SPLINE
  5
C9
100
AcDbEntity
  8
CUTOUT
  6
ByLayer
 62
    7
370
   -1
100
AcDbSpline
210
0
220
0
230
0
 70
    8
 71
    3
 72
    8
 73
    4
 74
    0
 42
1e-07
 43
1e-07
 40
0
 40
0
 40
0
 40
0
 40
1
 40
1
 40
1
 40
1
 10
16.925007
 20
20.705904
 30
0
 10
17.420049
 20
20.991716
 30
0
 10
17.725007
 20
21.51992
 30
0
 10
17.725007
 20
22.091545
 30
0
  0
LWPOLYLINE
  5
CA
100
AcDbEntity
  8
TEXT
  6
ByLayer
 62
    7
370
   -1
100
AcDbPolyline
 90
    2
 70
    0
 43
0
 10
184.407003
 20
57.965715
 10
184.408946
 20
57.599668
  0
SPLINE
  5
CB
100
AcDbEntity
  8
CUTOUT
  6
ByLayer
 62
    7
370
   -1
100
AcDbSpline
210
0
220
0
230
0
 70
    8
 71
    3
 72
    8
 73
    4
 74
    0
 42
1e-07
 43
1e-07
 40
0
 40
0
 40
0
 40
0
 40
1
 40
1
 40
1
 40
1
 10
37.750007
 20
34.091544
 30
0
 10
37.750007
 20
38.42339
 30
0
 10
35.438995
 20
42.42618
 30
0
 10
31.687506
 20
44.592103
 30
0
  0
SPLINE
  5
CC
100
AcDbEntity
  8
CUTOUT
  6
ByLayer
 62
    7
370
   -1
100
AcDbSpline
210
0
220
0
230
0
 70
    8
 71
    3
 72
    8
 73
    4
 74
    0
 42
1e-07
 43
1e-07
 40
0
 40
0
 40
0
 40
0
 40
1
 40
1
 40
1
 40
1
 10
31.687506
 20
44.592103
 30
0
 10
27.936018
 20
46.758026
 30
0
 10
23.313994
 20
46.758026
 30
0
 10
19.562506
 20
44.592103
 30
0
  0
SPLINE
  5
CD
100
AcDbEntity
  8
CUTOUT
  6
ByLayer
 62
    7
370
   -1
100
AcDbSpline
210
0
220
0
230
0
 70
    8
 71
    3
 72
    8
 73
    4
 74
    0
 42
1e-07
 43
1e-07
 40
0
 40
0
 40
0
 40
0
 40
1
 40
1
 40
1
 40
1
 10
19.562506
 20
44.592103
 30
0
 10
15.811017
 20
42.42618
 30
0
 10
13.500005
 20
38.42339
 30
0
 10
13.500005
 20
34.091544
 30
0
  0
SPLINE
  5
CE
100
AcDbEntity
  8
CUTOUT
  6
ByLayer
 62
    7
370
   -1
100
AcDbSpline
210
0
220
0
230
0
 70
    8
 71
    3
 72
    8
 73
    4
 74
    0
 42
1e-07
 43
1e-07
 40
0
 40
0
 40
0
 40
0
 40
1
 40
1
 40
1
 40
1
 10
13.500005
 20
34.091544
 30
0
 10
13.500005
 20
29.759698
 30
0
 10
15.811017
 20
25.756908
 30
0
 10
19.562506
 20
23.590985
 30
0
  0
SPLINE
  5
CF
100
AcDbEntity
  8
CUTOUT
  6
ByLayer
 62
    7
370
   -1
100
AcDbSpline
210
0
220
0
230
0
 70
    8
 71
    3
 72
    8
 73
    4
 74
    0
 42
1e-07
 43
1e-07
 40
0
 40
0
 40
0
 40
0
 40
1
 40
1
 40
1
 40
1
 10
19.562506
 20
23.590985
 30
0
 10
23.313994
 20
21.425062
 30
0
 10
27.936018
 20
21.425062
 30
0
 10
31.687506
 20
23.590985
 30
0
  0
SPLINE
  5
D0
100
AcDbEntity
  8
CUTOUT
  6
ByLayer
 62
    7
370
   -1
100
AcDbSpline
210
0
220
0
230
0
 70
    8
 71
    3
 72
    8
 73
    4
 74
    0
 42
1e-07
 43
1e-07
 40
0
 40
0
 40
0
 40
0
 40
1
 40
1
 40
1
 40
1
 10
31.687506
 20
23.590985
 30
0
 10
35.438995
 20
25.756908
 30
0
 10
37.750007
 20
29.759698
 30
0
 10
37.750007
 20
34.091544
 30
0
  0
LWPOLYLINE
  5
D1
100
AcDbEntity
  8
CUTOUT
  6
ByLayer
 62
    7
370
   -1
100
AcDbPolyline
 90
    1
 70
    1
 43
0
 10
17.725007
 20
22.091545
  0
SPLINE
  5
D2
100
AcDbEntity
  8
CUTOUT
  6
ByLayer
 62
    7
370
   -1
100
AcDbSpline
210
0
220
0
230
0
 70
    8
 71
    3
 72
    8
 73
    4
 74
    0
 42
1e-07
 43
1e-07
 40
0
 40
0
 40
0
 40
0
 40
1
 40
1
 40
1
 40
1
 10
36.725006
 20
46.091546
 30
0
 10
36.725006
 20
46.663171
 30
0
 10
36.420048
 20
47.191375
 30
0
 10
35.925006
 20
47.477187
 30
0
  0
SPLINE
  5
D3
100
AcDbEntity
  8
CUTOUT
  6
ByLayer
 62
    7
370
   -1
100
AcDbSpline
210
0
220
0
230
0
 70
    8
 71
    3
 72
    8
 73
    4
 74
    0
 42
1e-07
 43
1e-07
 40
0
 40
0
 40
0
 40
0
 40
1
 40
1
 40
1
 40
1
 10
35.925006
 20
47.477187
 30
0
 10
35.429964
 20
47.763
 30
0
 10
34.820047
 20
47.763
 30
0
 10
34.325005
 20
47.477187
 30
0
  0
SPLINE
  5
D4
100
AcDbEntity
  8
CUTOUT
  6
ByLayer
 62
    7
370
   -1
100
AcDbSpline
210
0
220
0
230
0
 70
    8
 71
    3
 72
    8
 73
    4
 74
    0
 42
1e-07
 43
1e-07
 40
0
 40
0
 40
0
 40
0
 40
1
 40
1
 40
1
 40
1
 10
34.325005
 20
47.477187
 30
0
 10
33.829963
 20
47.191375
 30
0
 10
33.525005
 20
46.663171
 30
0
 10
33.525005
 20
46.091546
 30
0
  0
SPLINE
  5
D5
100
AcDbEntity
  8
CUTOUT
  6
ByLayer
 62
    7
370
   -1
100
AcDbSpline
210
0
220
0
230
0
 70
    8
 71
    3
 72
    8
 73
    4
 74
    0
 42
1e-07
 43
1e-07
 40
0
 40
0
 40
0
 40
0
 40
1
 40
1
 40
1
 40
1
 10
33.525005
 20
46.091546
 30
0
 10
33.525005
 20
45.519921
 30
0
 10
33.829963
 20
44.991717
 30
0
 10
34.325005
 20
44.705905
 30
0
  0
SPLINE
  5
D6
100
AcDbEntity
  8
CUTOUT
  6
ByLayer
 62
    7
370
   -1
100
AcDbSpline
210
0
220
0
230
0
 70
    8
 71
    3
 72
    8
 73
    4
 74
    0
 42
1e-07
 43
1e-07
 40
0
 40
0
 40
0
 40
0
 40
1
 40
1
 40
1
 40
1
 10
34.325005
 20
44.705905
 30
0
 10
34.820047
 20
44.420092
 30
0
 10
35.429964
 20
44.420092
 30
0
 10
35.925006
 20
44.705905
 30
0
  0
SPLINE
  5
D7
100
AcDbEntity
  8
CUTOUT
  6
ByLayer
 62
    7
370
   -1
100
AcDbSpline
210
0
220
0
230
0
 70
    8
 71
    3
 72
    8
 73
    4
 74
    0
 42
1e-07
 43
1e-07
 40
0
 40
0
 40
0
 40
0
 40
1
 40
1
 40
1
 40
1
 10
35.925006
 20
44.705905
 30
0
 10
36.420048
 20
44.991717
 30
0
 10
36.725006
 20
45.519921
 30
0
 10
36.725006
 20
46.091546
 30
0
  0
LWPOLYLINE
  5
D8
100
AcDbEntity
  8
CUTOUT
  6
ByLayer
 62
    7
370
   -1
100
AcDbPolyline
 90
    1
 70
    1
 43
0
 10
37.750007
 20
34.091544
  0
SPLINE
  5
D9
100
AcDbEntity
  8
CUTOUT
  6
ByLayer
 62
    7
370
   -1
100
AcDbSpline
210
0
220
0
230
0
 70
    8
 71
    3
 72
    8
 73
    4
 74
    0
 42
1e-07
 43
1e-07
 40
0
 40
0
 40
0
 40
0
 40
1
 40
1
 40
1
 40
1
 10
56.725005
 20
22.091545
 30
0
 10
56.725291
 20
22.66336
 30
0
 10
56.420395
 20
23.191862
 30
0
 10
55.925236
 20
23.477852
 30
0
  0
SPLINE
  5
DA
100
AcDbEntity
  8
CUTOUT
  6
ByLayer
 62
    7
370
   -1
100
AcDbSpline
210
0
220
0
230
0
 70
    8
 71
    3
 72
    8
 73
    4
 74
    0
 42
1e-07
 43
1e-07
 40
0
 40
0
 40
0
 40
0
 40
1
 40
1
 40
1
 40
1
 10
55.925236
 20
23.477852
 30
0
 10
55.430077
 20
23.763843
 30
0
 10
54.819933
 20
23.763843
 30
0
 10
54.324774
 20
23.477852
 30
0
  0
SPLINE
  5
DB
100
AcDbEntity
  8
CUTOUT
  6
ByLayer
 62
    7
370
   -1
100
AcDbSpline
210
0
220
0
230
0
 70
    8
 71
    3
 72
    8
 73
    4
 74
    0
 42
1e-07
 43
1e-07
 40
0
 40
0
 40
0
 40
0
 40
1
 40
1
 40
1
 40
1
 10
54.324774
 20
23.477852
 30
0
 10
53.829615
 20
23.191862
 30
0
 10
53.524719
 20
22.66336
 30
0
 10
53.525005
 20
22.091545
 30
0
  0
SPLINE
  5
DC
100
AcDbEntity
  8
CUTOUT
  6
ByLayer
 62
    7
370
   -1
100
AcDbSpline
210
0
220
0
230
0
 70
    8
 71
    3
 72
    8
 73
    4
 74
    0
 42
1e-07
 43
1e-07
 40
0
 40
0
 40
0
 40
0
 40
1
 40
1
 40
1
 40
1
 10
53.525005
 20
22.091545
 30
0
 10
53.524719
 20
21.51973
 30
0
 10
53.829615
 20
20.991228
 30
0
 10
54.324774
 20
20.705238
 30
0
  0
SPLINE
  5
DD
100
AcDbEntity
  8
CUTOUT
  6
ByLayer
 62
    7
370
   -1
100
AcDbSpline
210
0
220
0
230
0
 70
    8
 71
    3
 72
    8
 73
    4
 74
    0
 42
1e-07
 43
1e-07
 40
0
 40
0
 40
0
 40
0
 40
1
 40
1
 40
1
 40
1
 10
54.324774
 20
20.705238
 30
0
 10
54.819933
 20
20.419247
 30
0
 10
55.430077
 20
20.419247
 30
0
 10
55.925236
 20
20.705238
 30
0
  0
SPLINE
  5
DE
100
AcDbEntity
  8
CUTOUT
  6
ByLayer
 62
    7
370
   -1
100
AcDbSpline
210
0
220
0
230
0
 70
    8
 71
    3
 72
    8
 73
    4
 74
    0
 42
1e-07
 43
1e-07
 40
0
 40
0
 40
0
 40
0
 40
1
 40
1
 40
1
 40
1
 10
55.925236
 20
20.705238
 30
0
 10
56.420395
 20
20.991228
 30
0
 10
56.725291
 20
21.51973
 30
0
 10
56.725005
 20
22.091545
 30
0
  0
LWPOLYLINE
  5
DF
100
AcDbEntity
  8
CUTOUT
  6
ByLayer
 62
    7
370
   -1
100
AcDbPolyline
 90
    1
 70
    1
 43
0
 10
36.725006
 20
46.091546
  0
SPLINE
  5
E0
100
AcDbEntity
  8
CUTOUT
  6
ByLayer
 62
    7
370
   -1
100
AcDbSpline
210
0
220
0
230
0
 70
    8
 71
    3
 72
    8
 73
    4
 74
    0
 42
1e-07
 43
1e-07
 40
0
 40
0
 40
0
 40
0
 40
1
 40
1
 40
1
 40
1
 10
76.750005
 20
34.091544
 30
0
 10
76.751249
 20
38.424218
 30
0
 10
74.44051
 20
42.428307
 30
0
 10
70.68851100000001
 20
44.595004
 30
0
  0
SPLINE
  5
E1
100
AcDbEntity
  8
CUTOUT
  6
ByLayer
 62
    7
370
   -1
100
AcDbSpline
210
0
220
0
230
0
 70
    8
 71
    3
 72
    8
 73
    4
 74
    0
 42
1e-07
 43
1e-07
 40
0
 40
0
 40
0
 40
0
 40
1
 40
1
 40
1
 40
1
 10
70.68851100000001
 20
44.595004
 30
0
 10
66.93651199999999
 20
46.7617
 30
0
 10
62.313499
 20
46.7617
 30
0
 10
58.5615
 20
44.595004
 30
0
  0
SPLINE
  5
E2
100
AcDbEntity
  8
CUTOUT
  6
ByLayer
 62
    7
370
   -1
100
AcDbSpline
210
0
220
0
230
0
 70
    8
 71
    3
 72
    8
 73
    4
 74
    0
 42
1e-07
 43
1e-07
 40
0
 40
0
 40
0
 40
0
 40
1
 40
1
 40
1
 40
1
 10
58.5615
 20
44.595004
 30
0
 10
54.809501
 20
42.428307
 30
0
 10
52.498762
 20
38.424218
 30
0
 10
52.500006
 20
34.091544
 30
0
  0
SPLINE
  5
E3
100
AcDbEntity
  8
CUTOUT
  6
ByLayer
 62
    7
370
   -1
100
AcDbSpline
210
0
220
0
230
0
 70
    8
 71
    3
 72
    8
 73
    4
 74
    0
 42
1e-07
 43
1e-07
 40
0
 40
0
 40
0
 40
0
 40
1
 40
1
 40
1
 40
1
 10
52.500006
 20
34.091544
 30
0
 10
52.498762
 20
29.75887
 30
0
 10
54.809501
 20
25.754781
 30
0
 10
58.5615
 20
23.588084
 30
0
  0
SPLINE
  5
E4
100
AcDbEntity
  8
CUTOUT
  6
ByLayer
 62
    7
370
   -1
100
AcDbSpline
210
0
220
0
230
0
 70
    8
 71
    3
 72
    8
 73
    4
 74
    0
 42
1e-07
 43
1e-07
 40
0
 40
0
 40
0
 40
0
 40
1
 40
1
 40
1
 40
1
 10
58.5615
 20
23.588084
 30
0
 10
62.313499
 20
21.421388
 30
0
 10
66.93651199999999
 20
21.421388
 30
0
 10
70.68851100000001
 20
23.588084
 30
0
  0
SPLINE
  5
E5
100
AcDbEntity
  8
CUTOUT
  6
ByLayer
 62
    7
370
   -1
100
AcDbSpline
210
0
220
0
230
0
 70
    8
 71
    3
 72
    8
 73
    4
 74
    0
 42
1e-07
 43
1e-07
 40
0
 40
0
 40
0
 40
0
 40
1
 40
1
 40
1
 40
1
 10
70.68851100000001
 20
23.588084
 30
0
 10
74.44051
 20
25.754781
 30
0
 10
76.751249
 20
29.75887
 30
0
 10
76.750005
 20
34.091544
 30
0
  0
LWPOLYLINE
  5
E6
100
AcDbEntity
  8
CUTOUT
  6
ByLayer
 62
    7
370
   -1
100
AcDbPolyline
 90
    1
 70
    1
 43
0
 10
56.725005
 20
22.091545
  0
SPLINE
  5
E7
100
AcDbEntity
  8
CUTOUT
  6
ByLayer
 62
    7
370
   -1
100
AcDbSpline
210
0
220
0
230
0
 70
    8
 71
    3
 72
    8
 73
    4
 74
    0
 42
1e-07
 43
1e-07
 40
0
 40
0
 40
0
 40
0
 40
1
 40
1
 40
1
 40
1
 10
75.72500700000001
 20
46.091546
 30
0
 10
75.72500700000001
 20
46.663171
 30
0
 10
75.42004900000001
 20
47.191375
 30
0
 10
74.92500699999999
 20
47.477187
 30
0
  0
SPLINE
  5
E8
100
AcDbEntity
  8
CUTOUT
  6
ByLayer
 62
    7
370
   -1
100
AcDbSpline
210
0
220
0
230
0
 70
    8
 71
    3
 72
    8
 73
    4
 74
    0
 42
1e-07
 43
1e-07
 40
0
 40
0
 40
0
 40
0
 40
1
 40
1
 40
1
 40
1
 10
74.92500699999999
 20
47.477187
 30
0
 10
74.429965
 20
47.763
 30
0
 10
73.820048
 20
47.763
 30
0
 10
73.325006
 20
47.477187
 30
0
  0
SPLINE
  5
E9
100
AcDbEntity
  8
CUTOUT
  6
ByLayer
 62
    7
370
   -1
100
AcDbSpline
210
0
220
0
230
0
 70
    8
 71
    3
 72
    8
 73
    4
 74
    0
 42
1e-07
 43
1e-07
 40
0
 40
0
 40
0
 40
0
 40
1
 40
1
 40
1
 40
1
 10
73.325006
 20
47.477187
 30
0
 10
72.829964
 20
47.191375
 30
0
 10
72.525006
 20
46.663171
 30
0
 10
72.525006
 20
46.091546
 30
0
  0
SPLINE
  5
EA
100
AcDbEntity
  8
CUTOUT
  6
ByLayer
 62
    7
370
   -1
100
AcDbSpline
210
0
220
0
230
0
 70
    8
 71
    3
 72
    8
 73
    4
 74
    0
 42
1e-07
 43
1e-07
 40
0
 40
0
 40
0
 40
0
 40
1
 40
1
 40
1
 40
1
 10
72.525006
 20
46.091546
 30
0
 10
72.525006
 20
45.519921
 30
0
 10
72.829964
 20
44.991717
 30
0
 10
73.325006
 20
44.705905
 30
0
  0
SPLINE
  5
EB
100
AcDbEntity
  8
CUTOUT
  6
ByLayer
 62
    7
370
   -1
100
AcDbSpline
210
0
220
0
230
0
 70
    8
 71
    3
 72
    8
 73
    4
 74
    0
 42
1e-07
 43
1e-07
 40
0
 40
0
 40
0
 40
0
 40
1
 40
1
 40
1
 40
1
 10
73.325006
 20
44.705905
 30
0
 10
73.820048
 20
44.420092
 30
0
 10
74.429965
 20
44.420092
 30
0
 10
74.92500699999999
 20
44.705905
 30
0
  0
SPLINE
  5
EC
100
AcDbEntity
  8
CUTOUT
  6
ByLayer
 62
    7
370
   -1
100
AcDbSpline
210
0
220
0
230
0
 70
    8
 71
    3
 72
    8
 73
    4
 74
    0
 42
1e-07
 43
1e-07
 40
0
 40
0
 40
0
 40
0
 40
1
 40
1
 40
1
 40
1
 10
74.92500699999999
 20
44.705905
 30
0
 10
75.42004900000001
 20
44.991717
 30
0
 10
75.72500700000001
 20
45.519921
 30
0
 10
75.72500700000001
 20
46.091546
 30
0
  0
LWPOLYLINE
  5
ED
100
AcDbEntity
  8
CUTOUT
  6
ByLayer
 62
    7
370
   -1
100
AcDbPolyline
 90
    1
 70
    1
 43
0
 10
76.750005
 20
34.091544
  0
SPLINE
  5
EE
100
AcDbEntity
  8
CUTOUT
  6
ByLayer
 62
    7
370
   -1
100
AcDbSpline
210
0
220
0
230
0
 70
    8
 71
    3
 72
    8
 73
    4
 74
    0
 42
1e-07
 43
1e-07
 40
0
 40
0
 40
0
 40
0
 40
1
 40
1
 40
1
 40
1
 10
95.72500700000001
 20
22.091545
 30
0
 10
95.72528200000001
 20
22.663353
 30
0
 10
95.420383
 20
23.191844
 30
0
 10
94.925229
 20
23.477827
 30
0
  0
SPLINE
  5
EF
100
AcDbEntity
  8
CUTOUT
  6
ByLayer
 62
    7
370
   -1
100
AcDbSpline
210
0
220
0
230
0
 70
    8
 71
    3
 72
    8
 73
    4
 74
    0
 42
1e-07
 43
1e-07
 40
0
 40
0
 40
0
 40
0
 40
1
 40
1
 40
1
 40
1
 10
94.925229
 20
23.477827
 30
0
 10
94.430074
 20
23.763811
 30
0
 10
93.81993900000001
 20
23.763811
 30
0
 10
93.32478399999999
 20
23.477827
 30
0
  0
SPLINE
  5
F0
100
AcDbEntity
  8
CUTOUT
  6
ByLayer
 62
    7
370
   -1
100
AcDbSpline
210
0
220
0
230
0
 70
    8
 71
    3
 72
    8
 73
    4
 74
    0
 42
1e-07
 43
1e-07
 40
0
 40
0
 40
0
 40
0
 40
1
 40
1
 40
1
 40
1
 10
93.32478399999999
 20
23.477827
 30
0
 10
92.829629
 20
23.191844
 30
0
 10
92.524731
 20
22.663353
 30
0
 10
92.525006
 20
22.091545
 30
0
  0
SPLINE
  5
F1
100
AcDbEntity
  8
CUTOUT
  6
ByLayer
 62
    7
370
   -1
100
AcDbSpline
210
0
220
0
230
0
 70
    8
 71
    3
 72
    8
 73
    4
 74
    0
 42
1e-07
 43
1e-07
 40
0
 40
0
 40
0
 40
0
 40
1
 40
1
 40
1
 40
1
 10
92.525006
 20
22.091545
 30
0
 10
92.524731
 20
21.519737
 30
0
 10
92.829629
 20
20.991246
 30
0
 10
93.32478399999999
 20
20.705263
 30
0
  0
SPLINE
  5
F2
100
AcDbEntity
  8
CUTOUT
  6
ByLayer
 62
    7
370
   -1
100
AcDbSpline
210
0
220
0
230
0
 70
    8
 71
    3
 72
    8
 73
    4
 74
    0
 42
1e-07
 43
1e-07
 40
0
 40
0
 40
0
 40
0
 40
1
 40
1
 40
1
 40
1
 10
93.32478399999999
 20
20.705263
 30
0
 10
93.81993900000001
 20
20.419279
 30
0
 10
94.430074
 20
20.419279
 30
0
 10
94.925229
 20
20.705263
 30
0
  0
SPLINE
  5
F3
100
AcDbEntity
  8
CUTOUT
  6
ByLayer
 62
    7
370
   -1
100
AcDbSpline
210
0
220
0
230
0
 70
    8
 71
    3
 72
    8
 73
    4
 74
    0
 42
1e-07
 43
1e-07
 40
0
 40
0
 40
0
 40
0
 40
1
 40
1
 40
1
 40
1
 10
94.925229
 20
20.705263
 30
0
 10
95.420383
 20
20.991246
 30
0
 10
95.72528200000001
 20
21.519737
 30
0
 10
95.72500700000001
 20
22.091545
 30
0
  0
LWPOLYLINE
  5
F4
100
AcDbEntity
  8
CUTOUT
  6
ByLayer
 62
    7
370
   -1
100
AcDbPolyline
 90
    1
 70
    1
 43
0
 10
75.72500700000001
 20
46.091546
  0
SPLINE
  5
F5
100
AcDbEntity
  8
CUTOUT
  6
ByLayer
 62
    7
370
   -1
100
AcDbSpline
210
0
220
0
230
0
 70
    8
 71
    3
 72
    8
 73
    4
 74
    0
 42
1e-07
 43
1e-07
 40
0
 40
0
 40
0
 40
0
 40
1
 40
1
 40
1
 40
1
 10
115.750006
 20
34.091544
 30
0
 10
115.751186
 20
38.424176
 30
0
 10
113.440433
 20
42.428199
 30
0
 10
109.68846
 20
44.594856
 30
0
  0
SPLINE
  5
F6
100
AcDbEntity
  8
CUTOUT
  6
ByLayer
 62
    7
370
   -1
100
AcDbSpline
210
0
220
0
230
0
 70
    8
 71
    3
 72
    8
 73
    4
 74
    0
 42
1e-07
 43
1e-07
 40
0
 40
0
 40
0
 40
0
 40
1
 40
1
 40
1
 40
1
 10
109.68846
 20
44.594856
 30
0
 10
105.936487
 20
46.761513
 30
0
 10
101.313524
 20
46.761513
 30
0
 10
97.56155099999999
 20
44.594856
 30
0
  0
SPLINE
  5
F7
100
AcDbEntity
  8
CUTOUT
  6
ByLayer
 62
    7
370
   -1
100
AcDbSpline
210
0
220
0
230
0
 70
    8
 71
    3
 72
    8
 73
    4
 74
    0
 42
1e-07
 43
1e-07
 40
0
 40
0
 40
0
 40
0
 40
1
 40
1
 40
1
 40
1
 10
97.56155099999999
 20
44.594856
 30
0
 10
93.809578
 20
42.428199
 30
0
 10
91.498824
 20
38.424176
 30
0
 10
91.500005
 20
34.091544
 30
0
  0
SPLINE
  5
F8
100
AcDbEntity
  8
CUTOUT
  6
ByLayer
 62
    7
370
   -1
100
AcDbSpline
210
0
220
0
230
0
 70
    8
 71
    3
 72
    8
 73
    4
 74
    0
 42
1e-07
 43
1e-07
 40
0
 40
0
 40
0
 40
0
 40
1
 40
1
 40
1
 40
1
 10
91.500005
 20
34.091544
 30
0
 10
91.498824
 20
29.758912
 30
0
 10
93.809578
 20
25.754889
 30
0
 10
97.56155099999999
 20
23.588232
 30
0
  0
SPLINE
  5
F9
100
AcDbEntity
  8
CUTOUT
  6
ByLayer
 62
    7
370
   -1
100
AcDbSpline
210
0
220
0
230
0
 70
    8
 71
    3
 72
    8
 73
    4
 74
    0
 42
1e-07
 43
1e-07
 40
0
 40
0
 40
0
 40
0
 40
1
 40
1
 40
1
 40
1
 10
97.56155099999999
 20
23.588232
 30
0
 10
101.313524
 20
21.421575
 30
0
 10
105.936487
 20
21.421575
 30
0
 10
109.68846
 20
23.588232
 30
0
  0
SPLINE
  5
FA
100
AcDbEntity
  8
CUTOUT
  6
ByLayer
 62
    7
370
   -1
100
AcDbSpline
210
0
220
0
230
0
 70
    8
 71
    3
 72
    8
 73
    4
 74
    0
 42
1e-07
 43
1e-07
 40
0
 40
0
 40
0
 40
0
 40
1
 40
1
 40
1
 40
1
 10
109.68846
 20
23.588232
 30
0
 10
113.440433
 20
25.754889
 30
0
 10
115.751186
 20
29.758912
 30
0
 10
115.750006
 20
34.091544
 30
0
  0
LWPOLYLINE
  5
FB
100
AcDbEntity
  8
CUTOUT
  6
ByLayer
 62
    7
370
   -1
100
AcDbPolyline
 90
    1
 70
    1
 43
0
 10
95.72500700000001
 20
22.091545
  0
SPLINE
  5
FC
100
AcDbEntity
  8
CUTOUT
  6
ByLayer
 62
    7
370
   -1
100
AcDbSpline
210
0
220
0
230
0
 70
    8
 71
    3
 72
    8
 73
    4
 74
    0
 42
1e-07
 43
1e-07
 40
0
 40
0
 40
0
 40
0
 40
1
 40
1
 40
1
 40
1
 10
114.725005
 20
46.091546
 30
0
 10
114.725005
 20
46.663171
 30
0
 10
114.420047
 20
47.191375
 30
0
 10
113.925005
 20
47.477187
 30
0
  0
SPLINE
  5
FD
100
AcDbEntity
  8
CUTOUT
  6
ByLayer
 62
    7
370
   -1
100
AcDbSpline
210
0
220
0
230
0
 70
    8
 71
    3
 72
    8
 73
    4
 74
    0
 42
1e-07
 43
1e-07
 40
0
 40
0
 40
0
 40
0
 40
1
 40
1
 40
1
 40
1
 10
113.925005
 20
47.477187
 30
0
 10
113.429963
 20
47.763
 30
0
 10
112.820046
 20
47.763
 30
0
 10
112.325004
 20
47.477187
 30
0
  0
SPLINE
  5
FE
100
AcDbEntity
  8
CUTOUT
  6
ByLayer
 62
    7
370
   -1
100
AcDbSpline
210
0
220
0
230
0
 70
    8
 71
    3
 72
    8
 73
    4
 74
    0
 42
1e-07
 43
1e-07
 40
0
 40
0
 40
0
 40
0
 40
1
 40
1
 40
1
 40
1
 10
112.325004
 20
47.477187
 30
0
 10
111.829962
 20
47.191375
 30
0
 10
111.525004
 20
46.663171
 30
0
 10
111.525004
 20
46.091546
 30
0
  0
SPLINE
  5
FF
100
AcDbEntity
  8
CUTOUT
  6
ByLayer
 62
    7
370
   -1
100
AcDbSpline
210
0
220
0
230
0
 70
    8
 71
    3
 72
    8
 73
    4
 74
    0
 42
1e-07
 43
1e-07
 40
0
 40
0
 40
0
 40
0
 40
1
 40
1
 40
1
 40
1
 10
111.525004
 20
46.091546
 30
0
 10
111.525004
 20
45.519921
 30
0
 10
111.829962
 20
44.991717
 30
0
 10
112.325004
 20
44.705905
 30
0
  0
SPLINE
  5
100
100
AcDbEntity
  8
CUTOUT
  6
ByLayer
 62
    7
370
   -1
100
AcDbSpline
210
0
220
0
230
0
 70
    8
 71
    3
 72
    8
 73
    4
 74
    0
 42
1e-07
 43
1e-07
 40
0
 40
0
 40
0
 40
0
 40
1
 40
1
 40
1
 40
1
 10
112.325004
 20
44.705905
 30
0
 10
112.820046
 20
44.420092
 30
0
 10
113.429963
 20
44.420092
 30
0
 10
113.925005
 20
44.705905
 30
0
  0
SPLINE
  5
101
100
AcDbEntity
  8
CUTOUT
  6
ByLayer
 62
    7
370
   -1
100
AcDbSpline
210
0
220
0
230
0
 70
    8
 71
    3
 72
    8
 73
    4
 74
    0
 42
1e-07
 43
1e-07
 40
0
 40
0
 40
0
 40
0
 40
1
 40
1
 40
1
 40
1
 10
113.925005
 20
44.705905
 30
0
 10
114.420047
 20
44.991717
 30
0
 10
114.725005
 20
45.519921
 30
0
 10
114.725005
 20
46.091546
 30
0
  0
LWPOLYLINE
  5
102
100
AcDbEntity
  8
CUTOUT
  6
ByLayer
 62
    7
370
   -1
100
AcDbPolyline
 90
    1
 70
    1
 43
0
 10
115.750006
 20
34.091544
  0
SPLINE
  5
103
100
AcDbEntity
  8
CUTOUT
  6
ByLayer
 62
    7
370
   -1
100
AcDbSpline
210
0
220
0
230
0
 70
    8
 71
    3
 72
    8
 73
    4
 74
    0
 42
1e-07
 43
1e-07
 40
0
 40
0
 40
0
 40
0
 40
1
 40
1
 40
1
 40
1
 10
134.725004
 20
22.091545
 30
0
 10
134.72529
 20
22.66336
 30
0
 10
134.420394
 20
23.191862
 30
0
 10
133.925235
 20
23.477852
 30
0
  0
SPLINE
  5
104
100
AcDbEntity
  8
CUTOUT
  6
ByLayer
 62
    7
370
   -1
100
AcDbSpline
210
0
220
0
230
0
 70
    8
 71
    3
 72
    8
 73
    4
 74
    0
 42
1e-07
 43
1e-07
 40
0
 40
0
 40
0
 40
0
 40
1
 40
1
 40
1
 40
1
 10
133.925235
 20
23.477852
 30
0
 10
133.430076
 20
23.763843
 30
0
 10
132.819932
 20
23.763843
 30
0
 10
132.324773
 20
23.477852
 30
0
  0
SPLINE
  5
105
100
AcDbEntity
  8
CUTOUT
  6
ByLayer
 62
    7
370
   -1
100
AcDbSpline
210
0
220
0
230
0
 70
    8
 71
    3
 72
    8
 73
    4
 74
    0
 42
1e-07
 43
1e-07
 40
0
 40
0
 40
0
 40
0
 40
1
 40
1
 40
1
 40
1
 10
132.324773
 20
23.477852
 30
0
 10
131.829614
 20
23.191862
 30
0
 10
131.524718
 20
22.66336
 30
0
 10
131.525004
 20
22.091545
 30
0
  0
SPLINE
  5
106
100
AcDbEntity
  8
CUTOUT
  6
ByLayer
 62
    7
370
   -1
100
AcDbSpline
210
0
220
0
230
0
 70
    8
 71
    3
 72
    8
 73
    4
 74
    0
 42
1e-07
 43
1e-07
 40
0
 40
0
 40
0
 40
0
 40
1
 40
1
 40
1
 40
1
 10
131.525004
 20
22.091545
 30
0
 10
131.524718
 20
21.51973
 30
0
 10
131.829614
 20
20.991228
 30
0
 10
132.324773
 20
20.705238
 30
0
  0
SPLINE
  5
107
100
AcDbEntity
  8
CUTOUT
  6
ByLayer
 62
    7
370
   -1
100
AcDbSpline
210
0
220
0
230
0
 70
    8
 71
    3
 72
    8
 73
    4
 74
    0
 42
1e-07
 43
1e-07
 40
0
 40
0
 40
0
 40
0
 40
1
 40
1
 40
1
 40
1
 10
132.324773
 20
20.705238
 30
0
 10
132.819932
 20
20.419247
 30
0
 10
133.430076
 20
20.419247
 30
0
 10
133.925235
 20
20.705238
 30
0
  0
SPLINE
  5
108
100
AcDbEntity
  8
CUTOUT
  6
ByLayer
 62
    7
370
   -1
100
AcDbSpline
210
0
220
0
230
0
 70
    8
 71
    3
 72
    8
 73
    4
 74
    0
 42
1e-07
 43
1e-07
 40
0
 40
0
 40
0
 40
0
 40
1
 40
1
 40
1
 40
1
 10
133.925235
 20
20.705238
 30
0
 10
134.420394
 20
20.991228
 30
0
 10
134.72529
 20
21.51973
 30
0
 10
134.725004
 20
22.091545
 30
0
  0
LWPOLYLINE
  5
109
100
AcDbEntity
  8
CUTOUT
  6
ByLayer
 62
    7
370
   -1
100
AcDbPolyline
 90
    1
 70
    1
 43
0
 10
114.725005
 20
46.091546
  0
SPLINE
  5
10A
100
AcDbEntity
  8
CUTOUT
  6
ByLayer
 62
    7
370
   -1
100
AcDbSpline
210
0
220
0
230
0
 70
    8
 71
    3
 72
    8
 73
    4
 74
    0
 42
1e-07
 43
1e-07
 40
0
 40
0
 40
0
 40
0
 40
1
 40
1
 40
1
 40
1
 10
154.750004
 20
34.091544
 30
0
 10
154.751248
 20
38.424218
 30
0
 10
152.440509
 20
42.428307
 30
0
 10
148.68851
 20
44.595004
 30
0
  0
SPLINE
  5
10B
100
AcDbEntity
  8
CUTOUT
  6
ByLayer
 62
    7
370
   -1
100
AcDbSpline
210
0
220
0
230
0
 70
    8
 71
    3
 72
    8
 73
    4
 74
    0
 42
1e-07
 43
1e-07
 40
0
 40
0
 40
0
 40
0
 40
1
 40
1
 40
1
 40
1
 10
148.68851
 20
44.595004
 30
0
 10
144.936511
 20
46.7617
 30
0
 10
140.313498
 20
46.7617
 30
0
 10
136.561499
 20
44.595004
 30
0
  0
SPLINE
  5
10C
100
AcDbEntity
  8
CUTOUT
  6
ByLayer
 62
    7
370
   -1
100
AcDbSpline
210
0
220
0
230
0
 70
    8
 71
    3
 72
    8
 73
    4
 74
    0
 42
1e-07
 43
1e-07
 40
0
 40
0
 40
0
 40
0
 40
1
 40
1
 40
1
 40
1
 10
136.561499
 20
44.595004
 30
0
 10
132.8095
 20
42.428307
 30
0
 10
130.498761
 20
38.424218
 30
0
 10
130.500005
 20
34.091544
 30
0
  0
SPLINE
  5
10D
100
AcDbEntity
  8
CUTOUT
  6
ByLayer
 62
    7
370
   -1
100
AcDbSpline
210
0
220
0
230
0
 70
    8
 71
    3
 72
    8
 73
    4
 74
    0
 42
1e-07
 43
1e-07
 40
0
 40
0
 40
0
 40
0
 40
1
 40
1
 40
1
 40
1
 10
130.500005
 20
34.091544
 30
0
 10
130.498761
 20
29.75887
 30
0
 10
132.8095
 20
25.754781
 30
0
 10
136.561499
 20
23.588084
 30
0
  0
SPLINE
  5
10E
100
AcDbEntity
  8
CUTOUT
  6
ByLayer
 62
    7
370
   -1
100
AcDbSpline
210
0
220
0
230
0
 70
    8
 71
    3
 72
    8
 73
    4
 74
    0
 42
1e-07
 43
1e-07
 40
0
 40
0
 40
0
 40
0
 40
1
 40
1
 40
1
 40
1
 10
136.561499
 20
23.588084
 30
0
 10
140.313498
 20
21.421388
 30
0
 10
144.936511
 20
21.421388
 30
0
 10
148.68851
 20
23.588084
 30
0
  0
SPLINE
  5
10F
100
AcDbEntity
  8
CUTOUT
  6
ByLayer
 62
    7
370
   -1
100
AcDbSpline
210
0
220
0
230
0
 70
    8
 71
    3
 72
    8
 73
    4
 74
    0
 42
1e-07
 43
1e-07
 40
0
 40
0
 40
0
 40
0
 40
1
 40
1
 40
1
 40
1
 10
148.68851
 20
23.588084
 30
0
 10
152.440509
 20
25.754781
 30
0
 10
154.751248
 20
29.75887
 30
0
 10
154.750004
 20
34.091544
 30
0
  0
LWPOLYLINE
  5
110
100
AcDbEntity
  8
CUTOUT
  6
ByLayer
 62
    7
370
   -1
100
AcDbPolyline
 90
    1
 70
    1
 43
0
 10
134.725004
 20
22.091545
  0
SPLINE
  5
111
100
AcDbEntity
  8
CUTOUT
  6
ByLayer
 62
    7
370
   -1
100
AcDbSpline
210
0
220
0
230
0
 70
    8
 71
    3
 72
    8
 73
    4
 74
    0
 42
1e-07
 43
1e-07
 40
0
 40
0
 40
0
 40
0
 40
1
 40
1
 40
1
 40
1
 10
153.725006
 20
46.091546
 30
0
 10
153.725006
 20
46.663171
 30
0
 10
153.420048
 20
47.191375
 30
0
 10
152.925006
 20
47.477187
 30
0
  0
SPLINE
  5
112
100
AcDbEntity
  8
CUTOUT
  6
ByLayer
 62
    7
370
   -1
100
AcDbSpline
210
0
220
0
230
0
 70
    8
 71
    3
 72
    8
 73
    4
 74
    0
 42
1e-07
 43
1e-07
 40
0
 40
0
 40
0
 40
0
 40
1
 40
1
 40
1
 40
1
 10
152.925006
 20
47.477187
 30
0
 10
152.429964
 20
47.763
 30
0
 10
151.820047
 20
47.763
 30
0
 10
151.325005
 20
47.477187
 30
0
  0
SPLINE
  5
113
100
AcDbEntity
  8
CUTOUT
  6
ByLayer
 62
    7
370
   -1
100
AcDbSpline
210
0
220
0
230
0
 70
    8
 71
    3
 72
    8
 73
    4
 74
    0
 42
1e-07
 43
1e-07
 40
0
 40
0
 40
0
 40
0
 40
1
 40
1
 40
1
 40
1
 10
151.325005
 20
47.477187
 30
0
 10
150.829963
 20
47.191375
 30
0
 10
150.525005
 20
46.663171
 30
0
 10
150.525005
 20
46.091546
 30
0
  0
SPLINE
  5
114
100
AcDbEntity
  8
CUTOUT
  6
ByLayer
 62
    7
370
   -1
100
AcDbSpline
210
0
220
0
230
0
 70
    8
 71
    3
 72
    8
 73
    4
 74
    0
 42
1e-07
 43
1e-07
 40
0
 40
0
 40
0
 40
0
 40
1
 40
1
 40
1
 40
1
 10
150.525005
 20
46.091546
 30
0
 10
150.525005
 20
45.519921
 30
0
 10
150.829963
 20
44.991717
 30
0
 10
151.325005
 20
44.705905
 30
0
  0
SPLINE
  5
115
100
AcDbEntity
  8
CUTOUT
  6
ByLayer
 62
    7
370
   -1
100
AcDbSpline
210
0
220
0
230
0
 70
    8
 71
    3
 72
    8
 73
    4
 74
    0
 42
1e-07
 43
1e-07
 40
0
 40
0
 40
0
 40
0
 40
1
 40
1
 40
1
 40
1
 10
151.325005
 20
44.705905
 30
0
 10
151.820047
 20
44.420092
 30
0
 10
152.429964
 20
44.420092
 30
0
 10
152.925006
 20
44.705905
 30
0
  0
SPLINE
  5
116
100
AcDbEntity
  8
CUTOUT
  6
ByLayer
 62
    7
370
   -1
100
AcDbSpline
210
0
220
0
230
0
 70
    8
 71
    3
 72
    8
 73
    4
 74
    0
 42
1e-07
 43
1e-07
 40
0
 40
0
 40
0
 40
0
 40
1
 40
1
 40
1
 40
1
 10
152.925006
 20
44.705905
 30
0
 10
153.420048
 20
44.991717
 30
0
 10
153.725006
 20
45.519921
 30
0
 10
153.725006
 20
46.091546
 30
0
  0
LWPOLYLINE
  5
117
100
AcDbEntity
  8
CUTOUT
  6
ByLayer
 62
    7
370
   -1
100
AcDbPolyline
 90
    1
 70
    1
 43
0
 10
154.750004
 20
34.091544
  0
SPLINE
  5
118
100
AcDbEntity
  8
CUTOUT
  6
ByLayer
 62
    7
370
   -1
100
AcDbSpline
210
0
220
0
230
0
 70
    8
 71
    3
 72
    8
 73
    4
 74
    0
 42
1e-07
 43
1e-07
 40
0
 40
0
 40
0
 40
0
 40
1
 40
1
 40
1
 40
1
 10
169.857594
 20
46.30536
 30
0
 10
169.857594
 20
45.907535
 30
0
 10
169.699559
 20
45.526004
 30
0
 10
169.418254
 20
45.2447
 30
0
  0
SPLINE
  5
119
100
AcDbEntity
  8
CUTOUT
  6
ByLayer
 62
    7
370
   -1
100
AcDbSpline
210
0
220
0
230
0
 70
    8
 71
    3
 72
    8
 73
    4
 74
    0
 42
1e-07
 43
1e-07
 40
0
 40
0
 40
0
 40
0
 40
1
 40
1
 40
1
 40
1
 10
169.418254
 20
45.2447
 30
0
 10
169.13695
 20
44.963395
 30
0
 10
168.755419
 20
44.80536
 30
0
 10
168.357594
 20
44.80536
 30
0
  0
SPLINE
  5
11A
100
AcDbEntity
  8
CUTOUT
  6
ByLayer
 62
    7
370
   -1
100
AcDbSpline
210
0
220
0
230
0
 70
    8
 71
    3
 72
    8
 73
    4
 74
    0
 42
1e-07
 43
1e-07
 40
0
 40
0
 40
0
 40
0
 40
1
 40
1
 40
1
 40
1
 10
168.357594
 20
44.80536
 30
0
 10
167.959769
 20
44.80536
 30
0
 10
167.578238
 20
44.963395
 30
0
 10
167.296934
 20
45.2447
 30
0
  0
SPLINE
  5
11B
100
AcDbEntity
  8
CUTOUT
  6
ByLayer
 62
    7
370
   -1
100
AcDbSpline
210
0
220
0
230
0
 70
    8
 71
    3
 72
    8
 73
    4
 74
    0
 42
1e-07
 43
1e-07
 40
0
 40
0
 40
0
 40
0
 40
1
 40
1
 40
1
 40
1
 10
167.296934
 20
45.2447
 30
0
 10
167.015629
 20
45.526004
 30
0
 10
166.857594
 20
45.907535
 30
0
 10
166.857594
 20
46.30536
 30
0
  0
SPLINE
  5
11C
100
AcDbEntity
  8
CUTOUT
  6
ByLayer
 62
    7
370
   -1
100
AcDbSpline
210
0
220
0
230
0
 70
    8
 71
    3
 72
    8
 73
    4
 74
    0
 42
1e-07
 43
1e-07
 40
0
 40
0
 40
0
 40
0
 40
1
 40
1
 40
1
 40
1
 10
166.857594
 20
46.30536
 30
0
 10
166.857594
 20
46.703185
 30
0
 10
167.015629
 20
47.084716
 30
0
 10
167.296934
 20
47.36602
 30
0
  0
SPLINE
  5
11D
100
AcDbEntity
  8
CUTOUT
  6
ByLayer
 62
    7
370
   -1
100
AcDbSpline
210
0
220
0
230
0
 70
    8
 71
    3
 72
    8
 73
    4
 74
    0
 42
1e-07
 43
1e-07
 40
0
 40
0
 40
0
 40
0
 40
1
 40
1
 40
1
 40
1
 10
167.296934
 20
47.36602
 30
0
 10
167.578238
 20
47.647325
 30
0
 10
167.959769
 20
47.80536
 30
0
 10
168.357594
 20
47.80536
 30
0
  0
SPLINE
  5
11E
100
AcDbEntity
  8
CUTOUT
  6
ByLayer
 62
    7
370
   -1
100
AcDbSpline
210
0
220
0
230
0
 70
    8
 71
    3
 72
    8
 73
    4
 74
    0
 42
1e-07
 43
1e-07
 40
0
 40
0
 40
0
 40
0
 40
1
 40
1
 40
1
 40
1
 10
168.357594
 20
47.80536
 30
0
 10
168.755419
 20
47.80536
 30
0
 10
169.13695
 20
47.647325
 30
0
 10
169.418254
 20
47.36602
 30
0
  0
SPLINE
  5
11F
100
AcDbEntity
  8
CUTOUT
  6
ByLayer
 62
    7
370
   -1
100
AcDbSpline
210
0
220
0
230
0
 70
    8
 71
    3
 72
    8
 73
    4
 74
    0
 42
1e-07
 43
1e-07
 40
0
 40
0
 40
0
 40
0
 40
1
 40
1
 40
1
 40
1
 10
169.418254
 20
47.36602
 30
0
 10
169.699559
 20
47.084716
 30
0
 10
169.857594
 20
46.703185
 30
0
 10
169.857594
 20
46.30536
 30
0
  0
LWPOLYLINE
  5
120
100
AcDbEntity
  8
CUTOUT
  6
ByLayer
 62
    7
370
   -1
100
AcDbPolyline
 90
    1
 70
    1
 43
0
 10
153.725006
 20
46.091546
  0
SPLINE
  5
121
100
AcDbEntity
  8
CUTOUT
  6
ByLayer
 62
    7
370
   -1
100
AcDbSpline
210
0
220
0
230
0
 70
    8
 71
    3
 72
    8
 73
    4
 74
    0
 42
1e-07
 43
1e-07
 40
0
 40
0
 40
0
 40
0
 40
1
 40
1
 40
1
 40
1
 10
190.357334
 20
46.30536
 30
0
 10
190.357334
 20
45.907535
 30
0
 10
190.199299
 20
45.526004
 30
0
 10
189.917994
 20
45.2447
 30
0
  0
SPLINE
  5
122
100
AcDbEntity
  8
CUTOUT
  6
ByLayer
 62
    7
370
   -1
100
AcDbSpline
210
0
220
0
230
0
 70
    8
 71
    3
 72
    8
 73
    4
 74
    0
 42
1e-07
 43
1e-07
 40
0
 40
0
 40
0
 40
0
 40
1
 40
1
 40
1
 40
1
 10
189.917994
 20
45.2447
 30
0
 10
189.63669
 20
44.963395
 30
0
 10
189.255159
 20
44.80536
 30
0
 10
188.857334
 20
44.80536
 30
0
  0
SPLINE
  5
123
100
AcDbEntity
  8
CUTOUT
  6
ByLayer
 62
    7
370
   -1
100
AcDbSpline
210
0
220
0
230
0
 70
    8
 71
    3
 72
    8
 73
    4
 74
    0
 42
1e-07
 43
1e-07
 40
0
 40
0
 40
0
 40
0
 40
1
 40
1
 40
1
 40
1
 10
188.857334
 20
44.80536
 30
0
 10
188.459509
 20
44.80536
 30
0
 10
188.077978
 20
44.963395
 30
0
 10
187.796674
 20
45.2447
 30
0
  0
SPLINE
  5
124
100
AcDbEntity
  8
CUTOUT
  6
ByLayer
 62
    7
370
   -1
100
AcDbSpline
210
0
220
0
230
0
 70
    8
 71
    3
 72
    8
 73
    4
 74
    0
 42
1e-07
 43
1e-07
 40
0
 40
0
 40
0
 40
0
 40
1
 40
1
 40
1
 40
1
 10
187.796674
 20
45.2447
 30
0
 10
187.515369
 20
45.526004
 30
0
 10
187.357334
 20
45.907535
 30
0
 10
187.357334
 20
46.30536
 30
0
  0
SPLINE
  5
125
100
AcDbEntity
  8
CUTOUT
  6
ByLayer
 62
    7
370
   -1
100
AcDbSpline
210
0
220
0
230
0
 70
    8
 71
    3
 72
    8
 73
    4
 74
    0
 42
1e-07
 43
1e-07
 40
0
 40
0
 40
0
 40
0
 40
1
 40
1
 40
1
 40
1
 10
187.357334
 20
46.30536
 30
0
 10
187.357334
 20
46.703185
 30
0
 10
187.515369
 20
47.084716
 30
0
 10
187.796674
 20
47.36602
 30
0
  0
SPLINE
  5
126
100
AcDbEntity
  8
CUTOUT
  6
ByLayer
 62
    7
370
   -1
100
AcDbSpline
210
0
220
0
230
0
 70
    8
 71
    3
 72
    8
 73
    4
 74
    0
 42
1e-07
 43
1e-07
 40
0
 40
0
 40
0
 40
0
 40
1
 40
1
 40
1
 40
1
 10
187.796674
 20
47.36602
 30
0
 10
188.077978
 20
47.647325
 30
0
 10
188.459509
 20
47.80536
 30
0
 10
188.857334
 20
47.80536
 30
0
  0
SPLINE
  5
127
100
AcDbEntity
  8
CUTOUT
  6
ByLayer
 62
    7
370
   -1
100
AcDbSpline
210
0
220
0
230
0
 70
    8
 71
    3
 72
    8
 73
    4
 74
    0
 42
1e-07
 43
1e-07
 40
0
 40
0
 40
0
 40
0
 40
1
 40
1
 40
1
 40
1
 10
188.857334
 20
47.80536
 30
0
 10
189.255159
 20
47.80536
 30
0
 10
189.63669
 20
47.647325
 30
0
 10
189.917994
 20
47.36602
 30
0
  0
SPLINE
  5
128
100
AcDbEntity
  8
CUTOUT
  6
ByLayer
 62
    7
370
   -1
100
AcDbSpline
210
0
220
0
230
0
 70
    8
 71
    3
 72
    8
 73
    4
 74
    0
 42
1e-07
 43
1e-07
 40
0
 40
0
 40
0
 40
0
 40
1
 40
1
 40
1
 40
1
 10
189.917994
 20
47.36602
 30
0
 10
190.199299
 20
47.084716
 30
0
 10
190.357334
 20
46.703185
 30
0
 10
190.357334
 20
46.30536
 30
0
  0
LWPOLYLINE
  5
129
100
AcDbEntity
  8
CUTOUT
  6
ByLayer
 62
    7
370
   -1
100
AcDbPolyline
 90
    1
 70
    1
 43
0
 10
169.857594
 20
46.30536
  0
LWPOLYLINE
  5
12A
100
AcDbEntity
  8
CUTOUT
  6
ByLayer
 62
    7
370
   -1
100
AcDbPolyline
 90
    1
 70
    1
 43
0
 10
190.357334
 20
46.30536
  0
LWPOLYLINE
  5
12B
100
AcDbEntity
  8
CUTOUT
  6
ByLayer
 62
    7
370
   -1
100
AcDbPolyline
 90
    4
 70
    1
 43
0
 10
170.857464
 20
49.591545
 10
186.357464
 20
49.591545
 10
186.357464
 20
42.591545
 10
170.857464
 20
42.591545
  0
ENDSEC
  0
SECTION
  2
OBJECTS
  0
DICTIONARY
  5
C
330
0
100
AcDbDictionary
281
    1
  3
ACAD_GROUP
350
D
  0
DICTIONARY
  5
D
330
C
100
AcDbDictionary
281
    1
  0
ENDSEC
  0
EOF
