  0
SECTION
  2
BLOCKS
  0
ENDSEC
  0
SECTION
  2
ENTITIES
  0
LINE
  8
0
 10
155.5
 20
0
 11
155.5
 21
8
  0
LINE
  8
0
 10
155.5
 20
8
 11
126
 21
8
  0
LINE
  8
0
 10
126
 20
8
 11
126
 21
44
  0
LINE
  8
0
 10
126
 20
44
 11
155.5
 21
44
  0
LINE
  8
0
 10
155.5
 20
44
 11
155.5
 21
52
  0
LINE
  8
0
 10
155.5
 20
52
 11
0
 21
52
  0
LINE
  8
0
 10
0
 20
52
 11
0
 21
44
  0
LINE
  8
0
 10
0
 20
44
 11
28
 21
44
  0
LINE
  8
0
 10
28
 20
44
 11
28
 21
8
  0
LINE
  8
0
 10
28
 20
8
 11
0
 21
8
  0
LINE
  8
0
 10
0
 20
8
 11
0
 21
0
  0
LINE
  8
0
 10
0
 20
0
 11
155.5
 21
0
  0
LINE
  8
0
 10
151.338
 20
46.4585
 11
151.178
 21
46.4839
  0
LINE
  8
0
 10
151.178
 20
46.4839
 11
151.021
 21
46.5258
  0
LINE
  8
0
 10
151.021
 20
46.5258
 11
150.87
 21
46.584
  0
LINE
  8
0
 10
150.87
 20
46.584
 11
150.725
 21
46.6577
  0
LINE
  8
0
 10
150.725
 20
46.6577
 11
150.589
 21
46.746
  0
LINE
  8
0
 10
150.589
 20
46.746
 11
150.463
 21
46.8481
  0
LINE
  8
0
 10
150.463
 20
46.8481
 11
150.348
 21
46.9628
  0
LINE
  8
0
 10
150.348
 20
46.9628
 11
150.246
 21
47.0889
  0
LINE
  8
0
 10
150.246
 20
47.0889
 11
150.158
 21
47.225
  0
LINE
  8
0
 10
150.158
 20
47.225
 11
150.084
 21
47.3696
  0
LINE
  8
0
 10
150.084
 20
47.3696
 11
150.026
 21
47.521
  0
LINE
  8
0
 10
150.026
 20
47.521
 11
149.984
 21
47.6777
  0
LINE
  8
0
 10
149.984
 20
47.6777
 11
149.958
 21
47.838
  0
LINE
  8
0
 10
149.958
 20
47.838
 11
149.95
 21
48
  0
LINE
  8
0
 10
149.95
 20
48
 11
149.958
 21
48.162
  0
LINE
  8
0
 10
149.958
 20
48.162
 11
149.984
 21
48.3223
  0
LINE
  8
0
 10
149.984
 20
48.3223
 11
150.026
 21
48.479
  0
LINE
  8
0
 10
150.026
 20
48.479
 11
150.084
 21
48.6304
  0
LINE
  8
0
 10
150.084
 20
48.6304
 11
150.158
 21
48.775
  0
LINE
  8
0
 10
150.158
 20
48.775
 11
150.246
 21
48.9111
  0
LINE
  8
0
 10
150.246
 20
48.9111
 11
150.348
 21
49.0371
  0
LINE
  8
0
 10
150.348
 20
49.0371
 11
150.463
 21
49.1519
  0
LINE
  8
0
 10
150.463
 20
49.1519
 11
150.589
 21
49.254
  0
LINE
  8
0
 10
150.589
 20
49.254
 11
150.725
 21
49.3423
  0
LINE
  8
0
 10
150.725
 20
49.3423
 11
150.87
 21
49.416
  0
LINE
  8
0
 10
150.87
 20
49.416
 11
151.021
 21
49.4741
  0
LINE
  8
0
 10
151.021
 20
49.4741
 11
151.178
 21
49.5161
  0
LINE
  8
0
 10
151.178
 20
49.5161
 11
151.338
 21
49.5415
  0
LINE
  8
0
 10
151.338
 20
49.5415
 11
151.5
 21
49.55
  0
LINE
  8
0
 10
151.5
 20
49.55
 11
151.662
 21
49.5415
  0
LINE
  8
0
 10
151.662
 20
49.5415
 11
151.822
 21
49.5161
  0
LINE
  8
0
 10
151.822
 20
49.5161
 11
151.979
 21
49.4741
  0
LINE
  8
0
 10
151.979
 20
49.4741
 11
152.13
 21
49.416
  0
LINE
  8
0
 10
152.13
 20
49.416
 11
152.275
 21
49.3423
  0
LINE
  8
0
 10
152.275
 20
49.3423
 11
152.411
 21
49.254
  0
LINE
  8
0
 10
152.411
 20
49.254
 11
152.537
 21
49.1519
  0
LINE
  8
0
 10
152.537
 20
49.1519
 11
152.652
 21
49.0371
  0
LINE
  8
0
 10
152.652
 20
49.0371
 11
152.754
 21
48.9111
  0
LINE
  8
0
 10
152.754
 20
48.9111
 11
152.842
 21
48.775
  0
LINE
  8
0
 10
152.842
 20
48.775
 11
152.916
 21
48.6304
  0
LINE
  8
0
 10
152.916
 20
48.6304
 11
152.974
 21
48.479
  0
LINE
  8
0
 10
152.974
 20
48.479
 11
153.016
 21
48.3223
  0
LINE
  8
0
 10
153.016
 20
48.3223
 11
153.042
 21
48.162
  0
LINE
  8
0
 10
153.042
 20
48.162
 11
153.05
 21
48
  0
LINE
  8
0
 10
153.05
 20
48
 11
153.042
 21
47.838
  0
LINE
  8
0
 10
153.042
 20
47.838
 11
153.016
 21
47.6777
  0
LINE
  8
0
 10
153.016
 20
47.6777
 11
152.974
 21
47.521
  0
LINE
  8
0
 10
152.974
 20
47.521
 11
152.916
 21
47.3696
  0
LINE
  8
0
 10
152.916
 20
47.3696
 11
152.842
 21
47.225
  0
LINE
  8
0
 10
152.842
 20
47.225
 11
152.754
 21
47.0889
  0
LINE
  8
0
 10
152.754
 20
47.0889
 11
152.652
 21
46.9628
  0
LINE
  8
0
 10
152.652
 20
46.9628
 11
152.537
 21
46.8481
  0
LINE
  8
0
 10
152.537
 20
46.8481
 11
152.411
 21
46.746
  0
LINE
  8
0
 10
152.411
 20
46.746
 11
152.275
 21
46.6577
  0
LINE
  8
0
 10
152.275
 20
46.6577
 11
152.13
 21
46.584
  0
LINE
  8
0
 10
152.13
 20
46.584
 11
151.979
 21
46.5258
  0
LINE
  8
0
 10
151.979
 20
46.5258
 11
151.822
 21
46.4839
  0
LINE
  8
0
 10
151.822
 20
46.4839
 11
151.662
 21
46.4585
  0
LINE
  8
0
 10
151.662
 20
46.4585
 11
151.5
 21
46.45
  0
LINE
  8
0
 10
151.5
 20
46.45
 11
151.338
 21
46.4585
  0
LINE
  8
0
 10
3.83797
 20
46.4585
 11
3.67773
 21
46.4839
  0
LINE
  8
0
 10
3.67773
 20
46.4839
 11
3.52101
 21
46.5258
  0
LINE
  8
0
 10
3.52101
 20
46.5258
 11
3.36955
 21
46.584
  0
LINE
  8
0
 10
3.36955
 20
46.584
 11
3.22499
 21
46.6577
  0
LINE
  8
0
 10
3.22499
 20
46.6577
 11
3.08893
 21
46.746
  0
LINE
  8
0
 10
3.08893
 20
46.746
 11
2.96284
 21
46.8481
  0
LINE
  8
0
 10
2.96284
 20
46.8481
 11
2.84811
 21
46.9628
  0
LINE
  8
0
 10
2.84811
 20
46.9628
 11
2.74602
 21
47.0889
  0
LINE
  8
0
 10
2.74602
 20
47.0889
 11
2.65765
 21
47.225
  0
LINE
  8
0
 10
2.65765
 20
47.225
 11
2.584
 21
47.3696
  0
LINE
  8
0
 10
2.584
 20
47.3696
 11
2.52585
 21
47.521
  0
LINE
  8
0
 10
2.52585
 20
47.521
 11
2.48386
 21
47.6777
  0
LINE
  8
0
 10
2.48386
 20
47.6777
 11
2.45848
 21
47.838
  0
LINE
  8
0
 10
2.45848
 20
47.838
 11
2.45
 21
48
  0
LINE
  8
0
 10
2.45
 20
48
 11
2.45848
 21
48.162
  0
LINE
  8
0
 10
2.45848
 20
48.162
 11
2.48386
 21
48.3223
  0
LINE
  8
0
 10
2.48386
 20
48.3223
 11
2.52585
 21
48.479
  0
LINE
  8
0
 10
2.52585
 20
48.479
 11
2.584
 21
48.6304
  0
LINE
  8
0
 10
2.584
 20
48.6304
 11
2.65765
 21
48.775
  0
LINE
  8
0
 10
2.65765
 20
48.775
 11
2.74602
 21
48.9111
  0
LINE
  8
0
 10
2.74602
 20
48.9111
 11
2.84811
 21
49.0371
  0
LINE
  8
0
 10
2.84811
 20
49.0371
 11
2.96284
 21
49.1519
  0
LINE
  8
0
 10
2.96284
 20
49.1519
 11
3.08893
 21
49.254
  0
LINE
  8
0
 10
3.08893
 20
49.254
 11
3.22499
 21
49.3423
  0
LINE
  8
0
 10
3.22499
 20
49.3423
 11
3.36955
 21
49.416
  0
LINE
  8
0
 10
3.36955
 20
49.416
 11
3.52101
 21
49.4741
  0
LINE
  8
0
 10
3.52101
 20
49.4741
 11
3.67773
 21
49.5161
  0
LINE
  8
0
 10
3.67773
 20
49.5161
 11
3.83797
 21
49.5415
  0
LINE
  8
0
 10
3.83797
 20
49.5415
 11
4
 21
49.55
  0
LINE
  8
0
 10
4
 20
49.55
 11
4.16202
 21
49.5415
  0
LINE
  8
0
 10
4.16202
 20
49.5415
 11
4.32225
 21
49.5161
  0
LINE
  8
0
 10
4.32225
 20
49.5161
 11
4.47897
 21
49.4741
  0
LINE
  8
0
 10
4.47897
 20
49.4741
 11
4.63043
 21
49.416
  0
LINE
  8
0
 10
4.63043
 20
49.416
 11
4.77499
 21
49.3423
  0
LINE
  8
0
 10
4.77499
 20
49.3423
 11
4.91106
 21
49.254
  0
LINE
  8
0
 10
4.91106
 20
49.254
 11
5.03714
 21
49.1519
  0
LINE
  8
0
 10
5.03714
 20
49.1519
 11
5.15187
 21
49.0371
  0
LINE
  8
0
 10
5.15187
 20
49.0371
 11
5.25397
 21
48.9111
  0
LINE
  8
0
 10
5.25397
 20
48.9111
 11
5.34233
 21
48.775
  0
LINE
  8
0
 10
5.34233
 20
48.775
 11
5.41599
 21
48.6304
  0
LINE
  8
0
 10
5.41599
 20
48.6304
 11
5.47414
 21
48.479
  0
LINE
  8
0
 10
5.47414
 20
48.479
 11
5.51613
 21
48.3223
  0
LINE
  8
0
 10
5.51613
 20
48.3223
 11
5.5415
 21
48.162
  0
LINE
  8
0
 10
5.5415
 20
48.162
 11
5.54999
 21
48
  0
LINE
  8
0
 10
5.54999
 20
48
 11
5.5415
 21
47.838
  0
LINE
  8
0
 10
5.5415
 20
47.838
 11
5.51613
 21
47.6777
  0
LINE
  8
0
 10
5.51613
 20
47.6777
 11
5.47414
 21
47.521
  0
LINE
  8
0
 10
5.47414
 20
47.521
 11
5.41599
 21
47.3696
  0
LINE
  8
0
 10
5.41599
 20
47.3696
 11
5.34233
 21
47.225
  0
LINE
  8
0
 10
5.34233
 20
47.225
 11
5.25397
 21
47.0889
  0
LINE
  8
0
 10
5.25397
 20
47.0889
 11
5.15187
 21
46.9628
  0
LINE
  8
0
 10
5.15187
 20
46.9628
 11
5.03714
 21
46.8481
  0
LINE
  8
0
 10
5.03714
 20
46.8481
 11
4.91106
 21
46.746
  0
LINE
  8
0
 10
4.91106
 20
46.746
 11
4.77499
 21
46.6577
  0
LINE
  8
0
 10
4.77499
 20
46.6577
 11
4.63043
 21
46.584
  0
LINE
  8
0
 10
4.63043
 20
46.584
 11
4.47897
 21
46.5258
  0
LINE
  8
0
 10
4.47897
 20
46.5258
 11
4.32225
 21
46.4839
  0
LINE
  8
0
 10
4.32225
 20
46.4839
 11
4.16202
 21
46.4585
  0
LINE
  8
0
 10
4.16202
 20
46.4585
 11
4
 21
46.45
  0
LINE
  8
0
 10
4
 20
46.45
 11
3.83797
 21
46.4585
  0
LINE
  8
0
 10
81.838
 20
46.4585
 11
81.6777
 21
46.4839
  0
LINE
  8
0
 10
81.6777
 20
46.4839
 11
81.521
 21
46.5258
  0
LINE
  8
0
 10
81.521
 20
46.5258
 11
81.3696
 21
46.584
  0
LINE
  8
0
 10
81.3696
 20
46.584
 11
81.225
 21
46.6577
  0
LINE
  8
0
 10
81.225
 20
46.6577
 11
81.0889
 21
46.746
  0
LINE
  8
0
 10
81.0889
 20
46.746
 11
80.9628
 21
46.8481
  0
LINE
  8
0
 10
80.9628
 20
46.8481
 11
80.8481
 21
46.9628
  0
LINE
  8
0
 10
80.8481
 20
46.9628
 11
80.746
 21
47.0889
  0
LINE
  8
0
 10
80.746
 20
47.0889
 11
80.6577
 21
47.225
  0
LINE
  8
0
 10
80.6577
 20
47.225
 11
80.584
 21
47.3696
  0
LINE
  8
0
 10
80.584
 20
47.3696
 11
80.5258
 21
47.521
  0
LINE
  8
0
 10
80.5258
 20
47.521
 11
80.4839
 21
47.6777
  0
LINE
  8
0
 10
80.4839
 20
47.6777
 11
80.4585
 21
47.838
  0
LINE
  8
0
 10
80.4585
 20
47.838
 11
80.45
 21
48
  0
LINE
  8
0
 10
80.45
 20
48
 11
80.4585
 21
48.162
  0
LINE
  8
0
 10
80.4585
 20
48.162
 11
80.4839
 21
48.3223
  0
LINE
  8
0
 10
80.4839
 20
48.3223
 11
80.5258
 21
48.479
  0
LINE
  8
0
 10
80.5258
 20
48.479
 11
80.584
 21
48.6304
  0
LINE
  8
0
 10
80.584
 20
48.6304
 11
80.6577
 21
48.775
  0
LINE
  8
0
 10
80.6577
 20
48.775
 11
80.746
 21
48.9111
  0
LINE
  8
0
 10
80.746
 20
48.9111
 11
80.8481
 21
49.0371
  0
LINE
  8
0
 10
80.8481
 20
49.0371
 11
80.9628
 21
49.1519
  0
LINE
  8
0
 10
80.9628
 20
49.1519
 11
81.0889
 21
49.254
  0
LINE
  8
0
 10
81.0889
 20
49.254
 11
81.225
 21
49.3423
  0
LINE
  8
0
 10
81.225
 20
49.3423
 11
81.3696
 21
49.416
  0
LINE
  8
0
 10
81.3696
 20
49.416
 11
81.521
 21
49.4741
  0
LINE
  8
0
 10
81.521
 20
49.4741
 11
81.6777
 21
49.5161
  0
LINE
  8
0
 10
81.6777
 20
49.5161
 11
81.838
 21
49.5415
  0
LINE
  8
0
 10
81.838
 20
49.5415
 11
82
 21
49.55
  0
LINE
  8
0
 10
82
 20
49.55
 11
82.162
 21
49.5415
  0
LINE
  8
0
 10
82.162
 20
49.5415
 11
82.3223
 21
49.5161
  0
LINE
  8
0
 10
82.3223
 20
49.5161
 11
82.479
 21
49.4741
  0
LINE
  8
0
 10
82.479
 20
49.4741
 11
82.6304
 21
49.416
  0
LINE
  8
0
 10
82.6304
 20
49.416
 11
82.775
 21
49.3423
  0
LINE
  8
0
 10
82.775
 20
49.3423
 11
82.9111
 21
49.254
  0
LINE
  8
0
 10
82.9111
 20
49.254
 11
83.0371
 21
49.1519
  0
LINE
  8
0
 10
83.0371
 20
49.1519
 11
83.1519
 21
49.0371
  0
LINE
  8
0
 10
83.1519
 20
49.0371
 11
83.254
 21
48.9111
  0
LINE
  8
0
 10
83.254
 20
48.9111
 11
83.3423
 21
48.775
  0
LINE
  8
0
 10
83.3423
 20
48.775
 11
83.416
 21
48.6304
  0
LINE
  8
0
 10
83.416
 20
48.6304
 11
83.4741
 21
48.479
  0
LINE
  8
0
 10
83.4741
 20
48.479
 11
83.5161
 21
48.3223
  0
LINE
  8
0
 10
83.5161
 20
48.3223
 11
83.5415
 21
48.162
  0
LINE
  8
0
 10
83.5415
 20
48.162
 11
83.55
 21
48
  0
LINE
  8
0
 10
83.55
 20
48
 11
83.5415
 21
47.838
  0
LINE
  8
0
 10
83.5415
 20
47.838
 11
83.5161
 21
47.6777
  0
LINE
  8
0
 10
83.5161
 20
47.6777
 11
83.4741
 21
47.521
  0
LINE
  8
0
 10
83.4741
 20
47.521
 11
83.416
 21
47.3696
  0
LINE
  8
0
 10
83.416
 20
47.3696
 11
83.3423
 21
47.225
  0
LINE
  8
0
 10
83.3423
 20
47.225
 11
83.254
 21
47.0889
  0
LINE
  8
0
 10
83.254
 20
47.0889
 11
83.1519
 21
46.9628
  0
LINE
  8
0
 10
83.1519
 20
46.9628
 11
83.0371
 21
46.8481
  0
LINE
  8
0
 10
83.0371
 20
46.8481
 11
82.9111
 21
46.746
  0
LINE
  8
0
 10
82.9111
 20
46.746
 11
82.775
 21
46.6577
  0
LINE
  8
0
 10
82.775
 20
46.6577
 11
82.6304
 21
46.584
  0
LINE
  8
0
 10
82.6304
 20
46.584
 11
82.479
 21
46.5258
  0
LINE
  8
0
 10
82.479
 20
46.5258
 11
82.3223
 21
46.4839
  0
LINE
  8
0
 10
82.3223
 20
46.4839
 11
82.162
 21
46.4585
  0
LINE
  8
0
 10
82.162
 20
46.4585
 11
82
 21
46.45
  0
LINE
  8
0
 10
82
 20
46.45
 11
81.838
 21
46.4585
  0
LINE
  8
0
 10
3.83797
 20
2.45848
 11
3.67773
 21
2.48386
  0
LINE
  8
0
 10
3.67773
 20
2.48386
 11
3.52101
 21
2.52585
  0
LINE
  8
0
 10
3.52101
 20
2.52585
 11
3.36955
 21
2.584
  0
LINE
  8
0
 10
3.36955
 20
2.584
 11
3.22499
 21
2.65765
  0
LINE
  8
0
 10
3.22499
 20
2.65765
 11
3.08893
 21
2.74602
  0
LINE
  8
0
 10
3.08893
 20
2.74602
 11
2.96284
 21
2.84811
  0
LINE
  8
0
 10
2.96284
 20
2.84811
 11
2.84811
 21
2.96284
  0
LINE
  8
0
 10
2.84811
 20
2.96284
 11
2.74602
 21
3.08893
  0
LINE
  8
0
 10
2.74602
 20
3.08893
 11
2.65765
 21
3.22499
  0
LINE
  8
0
 10
2.65765
 20
3.22499
 11
2.584
 21
3.36955
  0
LINE
  8
0
 10
2.584
 20
3.36955
 11
2.52585
 21
3.52101
  0
LINE
  8
0
 10
2.52585
 20
3.52101
 11
2.48386
 21
3.67773
  0
LINE
  8
0
 10
2.48386
 20
3.67773
 11
2.45848
 21
3.83797
  0
LINE
  8
0
 10
2.45848
 20
3.83797
 11
2.45
 21
4
  0
LINE
  8
0
 10
2.45
 20
4
 11
2.45848
 21
4.16202
  0
LINE
  8
0
 10
2.45848
 20
4.16202
 11
2.48386
 21
4.32225
  0
LINE
  8
0
 10
2.48386
 20
4.32225
 11
2.52585
 21
4.47897
  0
LINE
  8
0
 10
2.52585
 20
4.47897
 11
2.584
 21
4.63043
  0
LINE
  8
0
 10
2.584
 20
4.63043
 11
2.65765
 21
4.77499
  0
LINE
  8
0
 10
2.65765
 20
4.77499
 11
2.74602
 21
4.91106
  0
LINE
  8
0
 10
2.74602
 20
4.91106
 11
2.84811
 21
5.03714
  0
LINE
  8
0
 10
2.84811
 20
5.03714
 11
2.96284
 21
5.15187
  0
LINE
  8
0
 10
2.96284
 20
5.15187
 11
3.08893
 21
5.25397
  0
LINE
  8
0
 10
3.08893
 20
5.25397
 11
3.22499
 21
5.34233
  0
LINE
  8
0
 10
3.22499
 20
5.34233
 11
3.36955
 21
5.41599
  0
LINE
  8
0
 10
3.36955
 20
5.41599
 11
3.52101
 21
5.47414
  0
LINE
  8
0
 10
3.52101
 20
5.47414
 11
3.67773
 21
5.51613
  0
LINE
  8
0
 10
3.67773
 20
5.51613
 11
3.83797
 21
5.5415
  0
LINE
  8
0
 10
3.83797
 20
5.5415
 11
4
 21
5.54999
  0
LINE
  8
0
 10
4
 20
5.54999
 11
4.16202
 21
5.5415
  0
LINE
  8
0
 10
4.16202
 20
5.5415
 11
4.32225
 21
5.51613
  0
LINE
  8
0
 10
4.32225
 20
5.51613
 11
4.47897
 21
5.47414
  0
LINE
  8
0
 10
4.47897
 20
5.47414
 11
4.63043
 21
5.41599
  0
LINE
  8
0
 10
4.63043
 20
5.41599
 11
4.77499
 21
5.34233
  0
LINE
  8
0
 10
4.77499
 20
5.34233
 11
4.91106
 21
5.25397
  0
LINE
  8
0
 10
4.91106
 20
5.25397
 11
5.03714
 21
5.15187
  0
LINE
  8
0
 10
5.03714
 20
5.15187
 11
5.15187
 21
5.03714
  0
LINE
  8
0
 10
5.15187
 20
5.03714
 11
5.25397
 21
4.91106
  0
LINE
  8
0
 10
5.25397
 20
4.91106
 11
5.34233
 21
4.77499
  0
LINE
  8
0
 10
5.34233
 20
4.77499
 11
5.41599
 21
4.63043
  0
LINE
  8
0
 10
5.41599
 20
4.63043
 11
5.47414
 21
4.47897
  0
LINE
  8
0
 10
5.47414
 20
4.47897
 11
5.51613
 21
4.32225
  0
LINE
  8
0
 10
5.51613
 20
4.32225
 11
5.5415
 21
4.16202
  0
LINE
  8
0
 10
5.5415
 20
4.16202
 11
5.54999
 21
4
  0
LINE
  8
0
 10
5.54999
 20
4
 11
5.5415
 21
3.83797
  0
LINE
  8
0
 10
5.5415
 20
3.83797
 11
5.51613
 21
3.67773
  0
LINE
  8
0
 10
5.51613
 20
3.67773
 11
5.47414
 21
3.52101
  0
LINE
  8
0
 10
5.47414
 20
3.52101
 11
5.41599
 21
3.36955
  0
LINE
  8
0
 10
5.41599
 20
3.36955
 11
5.34233
 21
3.22499
  0
LINE
  8
0
 10
5.34233
 20
3.22499
 11
5.25397
 21
3.08893
  0
LINE
  8
0
 10
5.25397
 20
3.08893
 11
5.15187
 21
2.96284
  0
LINE
  8
0
 10
5.15187
 20
2.96284
 11
5.03714
 21
2.84811
  0
LINE
  8
0
 10
5.03714
 20
2.84811
 11
4.91106
 21
2.74602
  0
LINE
  8
0
 10
4.91106
 20
2.74602
 11
4.77499
 21
2.65765
  0
LINE
  8
0
 10
4.77499
 20
2.65765
 11
4.63043
 21
2.584
  0
LINE
  8
0
 10
4.63043
 20
2.584
 11
4.47897
 21
2.52585
  0
LINE
  8
0
 10
4.47897
 20
2.52585
 11
4.32225
 21
2.48386
  0
LINE
  8
0
 10
4.32225
 20
2.48386
 11
4.16202
 21
2.45848
  0
LINE
  8
0
 10
4.16202
 20
2.45848
 11
4
 21
2.45
  0
LINE
  8
0
 10
4
 20
2.45
 11
3.83797
 21
2.45848
  0
LINE
  8
0
 10
81.838
 20
2.45848
 11
81.6777
 21
2.48386
  0
LINE
  8
0
 10
81.6777
 20
2.48386
 11
81.521
 21
2.52585
  0
LINE
  8
0
 10
81.521
 20
2.52585
 11
81.3696
 21
2.584
  0
LINE
  8
0
 10
81.3696
 20
2.584
 11
81.225
 21
2.65765
  0
LINE
  8
0
 10
81.225
 20
2.65765
 11
81.0889
 21
2.74602
  0
LINE
  8
0
 10
81.0889
 20
2.74602
 11
80.9628
 21
2.84811
  0
LINE
  8
0
 10
80.9628
 20
2.84811
 11
80.8481
 21
2.96284
  0
LINE
  8
0
 10
80.8481
 20
2.96284
 11
80.746
 21
3.08893
  0
LINE
  8
0
 10
80.746
 20
3.08893
 11
80.6577
 21
3.22499
  0
LINE
  8
0
 10
80.6577
 20
3.22499
 11
80.584
 21
3.36955
  0
LINE
  8
0
 10
80.584
 20
3.36955
 11
80.5258
 21
3.52101
  0
LINE
  8
0
 10
80.5258
 20
3.52101
 11
80.4839
 21
3.67773
  0
LINE
  8
0
 10
80.4839
 20
3.67773
 11
80.4585
 21
3.83797
  0
LINE
  8
0
 10
80.4585
 20
3.83797
 11
80.45
 21
4
  0
LINE
  8
0
 10
80.45
 20
4
 11
80.4585
 21
4.16202
  0
LINE
  8
0
 10
80.4585
 20
4.16202
 11
80.4839
 21
4.32225
  0
LINE
  8
0
 10
80.4839
 20
4.32225
 11
80.5258
 21
4.47897
  0
LINE
  8
0
 10
80.5258
 20
4.47897
 11
80.584
 21
4.63043
  0
LINE
  8
0
 10
80.584
 20
4.63043
 11
80.6577
 21
4.77499
  0
LINE
  8
0
 10
80.6577
 20
4.77499
 11
80.746
 21
4.91106
  0
LINE
  8
0
 10
80.746
 20
4.91106
 11
80.8481
 21
5.03714
  0
LINE
  8
0
 10
80.8481
 20
5.03714
 11
80.9628
 21
5.15187
  0
LINE
  8
0
 10
80.9628
 20
5.15187
 11
81.0889
 21
5.25397
  0
LINE
  8
0
 10
81.0889
 20
5.25397
 11
81.225
 21
5.34233
  0
LINE
  8
0
 10
81.225
 20
5.34233
 11
81.3696
 21
5.41599
  0
LINE
  8
0
 10
81.3696
 20
5.41599
 11
81.521
 21
5.47414
  0
LINE
  8
0
 10
81.521
 20
5.47414
 11
81.6777
 21
5.51613
  0
LINE
  8
0
 10
81.6777
 20
5.51613
 11
81.838
 21
5.5415
  0
LINE
  8
0
 10
81.838
 20
5.5415
 11
82
 21
5.54999
  0
LINE
  8
0
 10
82
 20
5.54999
 11
82.162
 21
5.5415
  0
LINE
  8
0
 10
82.162
 20
5.5415
 11
82.3223
 21
5.51613
  0
LINE
  8
0
 10
82.3223
 20
5.51613
 11
82.479
 21
5.47414
  0
LINE
  8
0
 10
82.479
 20
5.47414
 11
82.6304
 21
5.41599
  0
LINE
  8
0
 10
82.6304
 20
5.41599
 11
82.775
 21
5.34233
  0
LINE
  8
0
 10
82.775
 20
5.34233
 11
82.9111
 21
5.25397
  0
LINE
  8
0
 10
82.9111
 20
5.25397
 11
83.0371
 21
5.15187
  0
LINE
  8
0
 10
83.0371
 20
5.15187
 11
83.1519
 21
5.03714
  0
LINE
  8
0
 10
83.1519
 20
5.03714
 11
83.254
 21
4.91106
  0
LINE
  8
0
 10
83.254
 20
4.91106
 11
83.3423
 21
4.77499
  0
LINE
  8
0
 10
83.3423
 20
4.77499
 11
83.416
 21
4.63043
  0
LINE
  8
0
 10
83.416
 20
4.63043
 11
83.4741
 21
4.47897
  0
LINE
  8
0
 10
83.4741
 20
4.47897
 11
83.5161
 21
4.32225
  0
LINE
  8
0
 10
83.5161
 20
4.32225
 11
83.5415
 21
4.16202
  0
LINE
  8
0
 10
83.5415
 20
4.16202
 11
83.55
 21
4
  0
LINE
  8
0
 10
83.55
 20
4
 11
83.5415
 21
3.83797
  0
LINE
  8
0
 10
83.5415
 20
3.83797
 11
83.5161
 21
3.67773
  0
LINE
  8
0
 10
83.5161
 20
3.67773
 11
83.4741
 21
3.52101
  0
LINE
  8
0
 10
83.4741
 20
3.52101
 11
83.416
 21
3.36955
  0
LINE
  8
0
 10
83.416
 20
3.36955
 11
83.3423
 21
3.22499
  0
LINE
  8
0
 10
83.3423
 20
3.22499
 11
83.254
 21
3.08893
  0
LINE
  8
0
 10
83.254
 20
3.08893
 11
83.1519
 21
2.96284
  0
LINE
  8
0
 10
83.1519
 20
2.96284
 11
83.0371
 21
2.84811
  0
LINE
  8
0
 10
83.0371
 20
2.84811
 11
82.9111
 21
2.74602
  0
LINE
  8
0
 10
82.9111
 20
2.74602
 11
82.775
 21
2.65765
  0
LINE
  8
0
 10
82.775
 20
2.65765
 11
82.6304
 21
2.584
  0
LINE
  8
0
 10
82.6304
 20
2.584
 11
82.479
 21
2.52585
  0
LINE
  8
0
 10
82.479
 20
2.52585
 11
82.3223
 21
2.48386
  0
LINE
  8
0
 10
82.3223
 20
2.48386
 11
82.162
 21
2.45848
  0
LINE
  8
0
 10
82.162
 20
2.45848
 11
82
 21
2.45
  0
LINE
  8
0
 10
82
 20
2.45
 11
81.838
 21
2.45848
  0
LINE
  8
0
 10
151.338
 20
2.45848
 11
151.178
 21
2.48386
  0
LINE
  8
0
 10
151.178
 20
2.48386
 11
151.021
 21
2.52585
  0
LINE
  8
0
 10
151.021
 20
2.52585
 11
150.87
 21
2.584
  0
LINE
  8
0
 10
150.87
 20
2.584
 11
150.725
 21
2.65765
  0
LINE
  8
0
 10
150.725
 20
2.65765
 11
150.589
 21
2.74602
  0
LINE
  8
0
 10
150.589
 20
2.74602
 11
150.463
 21
2.84811
  0
LINE
  8
0
 10
150.463
 20
2.84811
 11
150.348
 21
2.96284
  0
LINE
  8
0
 10
150.348
 20
2.96284
 11
150.246
 21
3.08893
  0
LINE
  8
0
 10
150.246
 20
3.08893
 11
150.158
 21
3.22499
  0
LINE
  8
0
 10
150.158
 20
3.22499
 11
150.084
 21
3.36955
  0
LINE
  8
0
 10
150.084
 20
3.36955
 11
150.026
 21
3.52101
  0
LINE
  8
0
 10
150.026
 20
3.52101
 11
149.984
 21
3.67773
  0
LINE
  8
0
 10
149.984
 20
3.67773
 11
149.958
 21
3.83797
  0
LINE
  8
0
 10
149.958
 20
3.83797
 11
149.95
 21
4
  0
LINE
  8
0
 10
149.95
 20
4
 11
149.958
 21
4.16202
  0
LINE
  8
0
 10
149.958
 20
4.16202
 11
149.984
 21
4.32225
  0
LINE
  8
0
 10
149.984
 20
4.32225
 11
150.026
 21
4.47897
  0
LINE
  8
0
 10
150.026
 20
4.47897
 11
150.084
 21
4.63043
  0
LINE
  8
0
 10
150.084
 20
4.63043
 11
150.158
 21
4.77499
  0
LINE
  8
0
 10
150.158
 20
4.77499
 11
150.246
 21
4.91106
  0
LINE
  8
0
 10
150.246
 20
4.91106
 11
150.348
 21
5.03714
  0
LINE
  8
0
 10
150.348
 20
5.03714
 11
150.463
 21
5.15187
  0
LINE
  8
0
 10
150.463
 20
5.15187
 11
150.589
 21
5.25397
  0
LINE
  8
0
 10
150.589
 20
5.25397
 11
150.725
 21
5.34233
  0
LINE
  8
0
 10
150.725
 20
5.34233
 11
150.87
 21
5.41599
  0
LINE
  8
0
 10
150.87
 20
5.41599
 11
151.021
 21
5.47414
  0
LINE
  8
0
 10
151.021
 20
5.47414
 11
151.178
 21
5.51613
  0
LINE
  8
0
 10
151.178
 20
5.51613
 11
151.338
 21
5.5415
  0
LINE
  8
0
 10
151.338
 20
5.5415
 11
151.5
 21
5.54999
  0
LINE
  8
0
 10
151.5
 20
5.54999
 11
151.662
 21
5.5415
  0
LINE
  8
0
 10
151.662
 20
5.5415
 11
151.822
 21
5.51613
  0
LINE
  8
0
 10
151.822
 20
5.51613
 11
151.979
 21
5.47414
  0
LINE
  8
0
 10
151.979
 20
5.47414
 11
152.13
 21
5.41599
  0
LINE
  8
0
 10
152.13
 20
5.41599
 11
152.275
 21
5.34233
  0
LINE
  8
0
 10
152.275
 20
5.34233
 11
152.411
 21
5.25397
  0
LINE
  8
0
 10
152.411
 20
5.25397
 11
152.537
 21
5.15187
  0
LINE
  8
0
 10
152.537
 20
5.15187
 11
152.652
 21
5.03714
  0
LINE
  8
0
 10
152.652
 20
5.03714
 11
152.754
 21
4.91106
  0
LINE
  8
0
 10
152.754
 20
4.91106
 11
152.842
 21
4.77499
  0
LINE
  8
0
 10
152.842
 20
4.77499
 11
152.916
 21
4.63043
  0
LINE
  8
0
 10
152.916
 20
4.63043
 11
152.974
 21
4.47897
  0
LINE
  8
0
 10
152.974
 20
4.47897
 11
153.016
 21
4.32225
  0
LINE
  8
0
 10
153.016
 20
4.32225
 11
153.042
 21
4.16202
  0
LINE
  8
0
 10
153.042
 20
4.16202
 11
153.05
 21
4
  0
LINE
  8
0
 10
153.05
 20
4
 11
153.042
 21
3.83797
  0
LINE
  8
0
 10
153.042
 20
3.83797
 11
153.016
 21
3.67773
  0
LINE
  8
0
 10
153.016
 20
3.67773
 11
152.974
 21
3.52101
  0
LINE
  8
0
 10
152.974
 20
3.52101
 11
152.916
 21
3.36955
  0
LINE
  8
0
 10
152.916
 20
3.36955
 11
152.842
 21
3.22499
  0
LINE
  8
0
 10
152.842
 20
3.22499
 11
152.754
 21
3.08893
  0
LINE
  8
0
 10
152.754
 20
3.08893
 11
152.652
 21
2.96284
  0
LINE
  8
0
 10
152.652
 20
2.96284
 11
152.537
 21
2.84811
  0
LINE
  8
0
 10
152.537
 20
2.84811
 11
152.411
 21
2.74602
  0
LINE
  8
0
 10
152.411
 20
2.74602
 11
152.275
 21
2.65765
  0
LINE
  8
0
 10
152.275
 20
2.65765
 11
152.13
 21
2.584
  0
LINE
  8
0
 10
152.13
 20
2.584
 11
151.979
 21
2.52585
  0
LINE
  8
0
 10
151.979
 20
2.52585
 11
151.822
 21
2.48386
  0
LINE
  8
0
 10
151.822
 20
2.48386
 11
151.662
 21
2.45848
  0
LINE
  8
0
 10
151.662
 20
2.45848
 11
151.5
 21
2.45
  0
LINE
  8
0
 10
151.5
 20
2.45
 11
151.338
 21
2.45848
  0
ENDSEC
  0
SECTION
  2
OBJECTS
  0
DICTIONARY
  0
ENDSEC
  0
EOF
